<svg xmlns="http://www.w3.org/2000/svg" xmlns:xlink="http://www.w3.org/1999/xlink" xmlns:lucid="lucid" width="2776.28" height="857.6"><g transform="translate(-49.55640500031514 1246.3150862920022)" lucid:page-tab-id="-nYnAA-~JlXC"><path d="M0-1258.83h3677.73V64H0z" fill="#fff"/><path d="M1388.35-1172.97a6 6 0 0 1 6-6h772.58a6 6 0 0 1 6 6v756.5a6 6 0 0 1-6 6h-772.58a6 6 0 0 1-6-6z" stroke="#5e5e5e" stroke-width="3" fill="#ffeca9"/><path d="M1956.68-1161.9a6 6 0 0 1 6-6h135.8a6 6 0 0 1 6 6v36.23a6 6 0 0 1-6 6h-135.8a6 6 0 0 1-6-6z" stroke="#000" stroke-opacity="0" stroke-width="3" fill="#fff" fill-opacity="0"/><use xlink:href="#a" transform="matrix(1,0,0,1,1961.6775030727877,-1162.9126955462857) translate(-57.648148148148124 25.72222222222222)"/><path d="M325.55-1172.97a6 6 0 0 1 6-6h238.4a6 6 0 0 1 6 6v756.5a6 6 0 0 1-6 6h-238.4a6 6 0 0 1-6-6z" stroke="#5e5e5e" stroke-width="3" fill="#ffeca9"/><path d="M450.57-1163.43a6 6 0 0 1 6-6h113.4a6 6 0 0 1 6 6v42.76a6 6 0 0 1-6 6h-113.4a6 6 0 0 1-6-6z" stroke="#000" stroke-opacity="0" stroke-width="3" fill="#fff" fill-opacity="0"/><use xlink:href="#b" transform="matrix(1,0,0,1,455.5715295196424,-1164.4332033680932) translate(22.87037037037038 27.701388888888886)"/><path d="M864.18-1172.97a6 6 0 0 1 6-6h242.78a6 6 0 0 1 6 6v758.26a6 6 0 0 1-6 6H870.18a6 6 0 0 1-6-6z" stroke="#5e5e5e" stroke-width="3" fill="#ffeca9"/><path d="M1015.86-1163.43a6 6 0 0 1 6-6h73.77a6 6 0 0 1 6 6v40.07a6 6 0 0 1-6 6h-73.77a6 6 0 0 1-6-6z" stroke="#000" stroke-opacity="0" stroke-width="3" fill="#fff" fill-opacity="0"/><use xlink:href="#c" transform="matrix(1,0,0,1,1020.8637983957907,-1164.4332033680928) translate(-3.308641975308632 27.72222222222222)"/><path d="M578.43-796.42h56.34" stroke="#5e5e5e" stroke-width="2" fill="none"/><path d="M578.45-795.42h-1.02v-2h1.02z" stroke="#5e5e5e" stroke-width=".05" fill="#5e5e5e"/><path d="M650.04-796.43l-14.27 4.64v-9.26z" stroke="#5e5e5e" stroke-width="2" fill="#5e5e5e"/><path d="M763.9-799.92h30.7a.22.22 0 0 0 .2-.22.22.22 0 0 1 .22-.22h13.2" stroke="#5e5e5e" stroke-width="2" fill="none"/><path d="M763.93-798.92h-1.03v-2h1.03z" stroke="#5e5e5e" stroke-width=".05" fill="#5e5e5e"/><path d="M823.48-800.36l-14.27 4.64V-805z" stroke="#5e5e5e" stroke-width="2" fill="#5e5e5e"/><path d="M1294.28-802.76H1329.05" stroke="#5e5e5e" stroke-width="2" fill="none"/><path d="M1294.3-801.76h-1.02v-2h1.03z" stroke="#5e5e5e" stroke-width=".05" fill="#5e5e5e"/><path d="M1344.3-802.76l-14.26 4.64v-9.27z" stroke="#5e5e5e" stroke-width="2" fill="#5e5e5e"/><path d="M145.26-793.83h88.65a.26.26 0 0 0 .27-.26.26.26 0 0 1 .26-.25h71.16" stroke="#5e5e5e" stroke-width="2" fill="none"/><path d="M145.28-792.83h-1.02v-2h1.02z" stroke="#5e5e5e" stroke-width=".05" fill="#5e5e5e"/><path d="M320.86-794.35l-14.27 4.64V-799z" stroke="#5e5e5e" stroke-width="2" fill="#5e5e5e"/><use xlink:href="#d" transform="matrix(1,0,0,1,167.6159184921242,-824.4940078858637) translate(0 17.77777777777778)"/><path d="M1325.4-536.12h-18.57a.2.2 0 0 1-.2-.2.2.2 0 0 0-.2-.2h-18.6" stroke="#5e5e5e" stroke-width="2" fill="none"/><path d="M1326.5-537.02l-.1 1.07.08.83h-1.1v-2h1.15zM1287.87-535.53h-1.03v-2h1.03z" stroke="#5e5e5e" stroke-width=".05" fill="#5e5e5e"/><path d="M1176.2-536.53H948.14" stroke="#5e5e5e" stroke-width="2" fill="none"/><path d="M1177.2-535.53h-1v-2h1z" stroke="#5e5e5e" stroke-width=".05" fill="#5e5e5e"/><path d="M932.88-536.53l14.26-4.63v9.27z" stroke="#5e5e5e" stroke-width="2" fill="#5e5e5e"/><path d="M654.78-830.43a6 6 0 0 1 6-6h94.66a6 6 0 0 1 6 6v74c-17.8-13.36-28.9-13.36-35.62-13.36-10.67 0-24.86 13.37-35.52 13.37-6.62 0-17.82 0-35.52-13.36z" stroke="#5e5e5e" stroke-width="3" fill="#cfe4ff"/><use xlink:href="#e" transform="matrix(1,0,0,1,659.7768702905863,-831.4259872533418) translate(14.055555555555557 32.02777777777778)"/><path d="M923.18-614.04a3.2 3.2 0 0 1 5 2.67v148a3.2 3.2 0 0 1-5 2.67l-110-73.34a4 4 0 0 1 0-6.66z" stroke="#5e5e5e" stroke-width="3" fill="#c3f7c8"/><use xlink:href="#f" transform="matrix(6.123233995736766e-17,1,-1,6.123233995736766e-17,923.1768702905863,-612.36910760054) translate(37.38154320987655 45.27777777777778)"/><path d="M833.17-723.7a3.2 3.2 0 0 1-5-2.66v-148a3.2 3.2 0 0 1 5-2.67l110 73.34a4 4 0 0 1 0 6.67z" stroke="#5e5e5e" stroke-width="3" fill="#cfe4ff"/><use xlink:href="#g" transform="matrix(6.123233995736766e-17,-1,1,6.123233995736766e-17,833.1768702905869,-725.3577316699799) translate(51.57907407407408 59.02777777777778)"/><path d="M1354-722.75a3.2 3.2 0 0 1-5-2.68v-148a3.2 3.2 0 0 1 5-2.67l110.02 73.35a4 4 0 0 1 0 6.65z" stroke="#5e5e5e" stroke-width="3" fill="#cfe4ff"/><use xlink:href="#g" transform="matrix(6.123233995736766e-17,-1,1,6.123233995736766e-17,1354.0108364061207,-724.4259872533418) translate(51.57907407407408 59.02777777777778)"/><path d="M1178.7-570.53a6 6 0 0 1 6-6h94.68a6 6 0 0 1 6 6v74c-17.8-13.36-28.9-13.36-35.63-13.36-10.66 0-24.85 13.37-35.52 13.37-6.6 0-17.8 0-35.52-13.36z" stroke="#5e5e5e" stroke-width="3" fill="#c3f7c8"/><use xlink:href="#h" transform="matrix(1,0,0,1,1183.7129408760127,-571.5267530635875) translate(21.401234567901238 32.02777777777778)"/><path d="M1439.7-612.62a3.2 3.2 0 0 1 5 2.67v148a3.2 3.2 0 0 1-5 2.67l-110.02-73.34a4 4 0 0 1 0-6.66z" stroke="#5e5e5e" stroke-width="3" fill="#c3f7c8"/><use xlink:href="#f" transform="matrix(6.123233995736766e-17,1,-1,6.123233995736766e-17,1439.6925897839533,-610.9487861215416) translate(37.38154320987655 45.27777777777778)"/><path d="M133.3-847.2c0 10.6-11.92 19.15-26.62 19.15-14.77 0-26.7-8.55-26.7-19.14 0-10.57 11.93-19.13 26.7-19.13 14.7 0 26.63 8.56 26.63 19.14zM83.8-826.16h46.28c14.25 0 14.25 0 14.25 10.3s0 10.3-14.25 10.3H83.8c-14.24 0-14.24 0-14.24-10.3s0-10.3 14.25-10.3z" fill="#29aae1"/><path d="M86.96-808.9h39.37v42.48H86.96v-42.5z" fill="#29aae1"/><path d="M86.96-768.02h17.77v46.84H86.96v-46.84zM109.83-767.58h16.5v46.1h-16.5v-46.1zM69.7-818.48h13.5v41.04H69.7v-41.04zM130.6-817.9h13.66v41.04H130.6v-41.04z" fill="#29aae1"/><path d="M654.78-571.4a6 6 0 0 1 6-6h94.66a6 6 0 0 1 6 6v74c-17.8-13.35-28.9-13.35-35.62-13.35-10.67 0-24.86 13.36-35.52 13.36-6.62 0-17.82 0-35.52-13.35z" stroke="#5e5e5e" stroke-width="3" fill="#c3f7c8"/><use xlink:href="#h" transform="matrix(1,0,0,1,659.7768702905863,-572.3918594616606) translate(21.401234567901238 32.02777777777778)"/><path d="M808.88-537.37H763.9" stroke="#5e5e5e" stroke-width="2" fill="none"/><path d="M809.88-537.37l.1 1h-1.12v-2h1.12zM763.93-536.37h-1.02v-2h1.03z" stroke="#5e5e5e" stroke-width=".05" fill="#5e5e5e"/><path d="M652.28-537.4h-36.83a.1.1 0 0 1-.1-.08.1.1 0 0 0-.07-.08h-19.33" stroke="#5e5e5e" stroke-width="2" fill="none"/><path d="M653.28-536.4h-1.03v-2h1.03z" stroke="#5e5e5e" stroke-width=".05" fill="#5e5e5e"/><path d="M580.7-537.56l14.25-4.64v9.27z" stroke="#5e5e5e" stroke-width="2" fill="#5e5e5e"/><path d="M1185.15-836.36a6 6 0 0 1 6-6h94.67a6 6 0 0 1 6 6v74c-17.8-13.36-28.9-13.36-35.63-13.36-10.67 0-24.86 13.36-35.53 13.36-6.6 0-17.8 0-35.52-13.36z" stroke="#5e5e5e" stroke-width="3" fill="#cfe4ff"/><use xlink:href="#i" transform="matrix(1,0,0,1,1190.1533433438065,-837.3577316699799) translate(1.0617283950617278 32.02777777777778)"/><path d="M923.18-1114.03a3.2 3.2 0 0 1 5 2.67v148a3.2 3.2 0 0 1-5 2.67l-110-73.33a4 4 0 0 1 0-6.66z" stroke="#5e5e5e" stroke-width="3" fill="#fc9432"/><use xlink:href="#f" transform="matrix(6.123233995736766e-17,1,-1,6.123233995736766e-17,923.1768702905866,-1112.3577316699798) translate(37.38154320987655 45.27777777777778)"/><path d="M654.78-1071.38a6 6 0 0 1 6-6h94.66a6 6 0 0 1 6 6v74c-17.8-13.36-28.9-13.36-35.62-13.36-10.67 0-24.86 13.36-35.52 13.36-6.62 0-17.82 0-35.52-13.36z" stroke="#5e5e5e" stroke-width="3" fill="#fc9432"/><use xlink:href="#j" transform="matrix(1,0,0,1,659.7768702905868,-1072.3804835311005) translate(25.074074074074076 17.77777777777778)"/><use xlink:href="#k" transform="matrix(1,0,0,1,659.7768702905868,-1072.3804835311005) translate(17.7283950617284 44.44444444444444)"/><path d="M652.28-1037.38h-36.8a.13.13 0 0 0-.14.13.13.13 0 0 1-.13.13h-19.3" stroke="#5e5e5e" stroke-width="2" fill="none"/><path d="M653.28-1036.38h-1.03v-2h1.03z" stroke="#5e5e5e" stroke-width=".05" fill="#5e5e5e"/><path d="M580.64-1037.12l14.26-4.64v9.27z" stroke="#5e5e5e" stroke-width="2" fill="#5e5e5e"/><path d="M808.88-1037.36H763.9" stroke="#5e5e5e" stroke-width="2" fill="none"/><path d="M809.88-1037.36l.1 1h-1.12v-2h1.12zM763.93-1036.36h-1.02v-2h1.03z" stroke="#5e5e5e" stroke-width=".05" fill="#5e5e5e"/><path d="M708.1-1079.84v-76.63" stroke="#5e5e5e" stroke-width="2" fill="none"/><path d="M709.1-1078.84h-2v-1.03h2z" stroke="#5e5e5e" stroke-width=".05" fill="#5e5e5e"/><path d="M708.1-1171.74l4.65 14.27h-9.28z" stroke="#5e5e5e" stroke-width="2" fill="#5e5e5e"/><path d="M609.54-1213.46a6 6 0 0 1 6-6H792.4a6 6 0 0 1 6 6v31.02a6 6 0 0 1-6 6H615.54a6 6 0 0 1-6-6z" stroke="#5e5e5e" stroke-width="3" fill="#ffeca9"/><path d="M605.42-1220.32a6 6 0 0 1 6-6h176.85a6 6 0 0 1 6 6v48.72a6 6 0 0 1-6 6H611.42a6 6 0 0 1-6-6z" stroke="#000" stroke-opacity="0" stroke-width="3" fill="#fff" fill-opacity="0"/><use xlink:href="#l" transform="matrix(1,0,0,1,610.4172071833741,-1221.3150862920022) translate(12.75925925925928 31.263888888888886)"/><path d="M946.63-803.26h218.52" stroke="#5e5e5e" stroke-width="2" fill="none"/><path d="M946.65-802.26h-.53l-.07-.2-.5-.96-.7-.84h1.8z" stroke="#5e5e5e" stroke-width=".05" fill="#5e5e5e"/><path d="M1180.42-803.26l-14.27 4.64v-9.27z" stroke="#5e5e5e" stroke-width="2" fill="#5e5e5e"/><path d="M1468.3-799.43h238.9" stroke="#5e5e5e" stroke-width="2" fill="none"/><path d="M1468.33-798.43h-1.12l.1-1-.1-1h1.13z" stroke="#5e5e5e" stroke-width=".05" fill="#5e5e5e"/><path d="M1722.46-799.43l-14.26 4.64v-9.26z" stroke="#5e5e5e" stroke-width="2" fill="#5e5e5e"/><path d="M1033.35-804.26v-227.1a6 6 0 0 0-6-6h-79.2M1033.35-804.28v1.02" stroke="#5e5e5e" stroke-width="2" fill="none"/><path d="M932.88-1037.36l14.26-4.63v9.28z" stroke="#5e5e5e" stroke-width="2" fill="#5e5e5e"/><path d="M2492.06-1170.44a6 6 0 0 1 6-6h293.33a6 6 0 0 1 6 6v755.73a6 6 0 0 1-6 6h-293.34a6 6 0 0 1-6-6z" stroke="#5e5e5e" stroke-width="3" fill="#ffeca9"/><path d="M2704.73-795.5c0 31.8-25.76 57.62-57.5 57.62s-57.5-25.82-57.5-57.63c0-31.82 25.76-57.64 57.5-57.64s57.5 25.82 57.5 57.63z" fill="#5886b6"/><path d="M2589.73-800.24h115v4.72h-115v-4.72z" fill="#dc8e6c"/><path d="M2704.73-800.24c0 31.8-25.76 57.63-57.5 57.63s-57.5-25.83-57.5-57.64c0-31.8 25.76-57.63 57.5-57.63s57.5 25.82 57.5 57.63z" fill="#6db1ff"/><path d="M2684.63-771.9l-4.48-11.8-9.97 3.83-14.23-37.42-3.97-10.32-1.88-4.9-2.9-7.65h-18.92v12.55h10.27l3.6 9.34-29.75 53.03h14.37l21.17-37.8 15.02 39.4 3.6-1.37 8.1-3.06 9.97-3.83z" fill="#fff"/><use xlink:href="#m" transform="matrix(1,0,0,1,2589.7314604586636,-737.8673230902733) translate(3.302469135802461 17.77777777777778)"/><path d="M2593.9-645.06a6 6 0 0 1 6-6h94.66a6 6 0 0 1 6 6v74c-17.8-13.36-28.9-13.36-35.62-13.36-10.67 0-24.86 13.36-35.52 13.36-6.62 0-17.82 0-35.52-13.36z" stroke="#5e5e5e" stroke-width="3" fill="#cfe4ff"/><use xlink:href="#n" transform="matrix(1,0,0,1,2598.89812712533,-646.0589152194825) translate(25.69135802469136 17.77777777777778)"/><use xlink:href="#o" transform="matrix(1,0,0,1,2598.89812712533,-646.0589152194825) translate(21.401234567901238 44.44444444444444)"/><path d="M2647-918.1v29.5a.1.1 0 0 0 .12.12.1.1 0 0 1 .1.1v12" stroke="#5e5e5e" stroke-width="2" fill="none"/><path d="M2648-918.07h-2v-.55l2-.96z" stroke="#5e5e5e" stroke-width=".05" fill="#5e5e5e"/><path d="M2647.23-861.1l-4.63-14.27h9.27z" stroke="#5e5e5e" stroke-width="2" fill="#5e5e5e"/><path d="M2647.23-716.87v45.85" stroke="#5e5e5e" stroke-width="2" fill="none"/><path d="M2648.23-716.84h-2v-4.03h2z" stroke="#5e5e5e" stroke-width=".05" fill="#5e5e5e"/><path d="M2647.23-655.76l-4.63-14.26h9.27z" stroke="#5e5e5e" stroke-width="2" fill="#5e5e5e"/><path d="M2565.84-1163.43a6 6 0 0 1 6-6h228a6 6 0 0 1 6 6v48a6 6 0 0 1-6 6h-228a6 6 0 0 1-6-6z" stroke="#000" stroke-opacity="0" stroke-width="3" fill="#fff" fill-opacity="0"/><use xlink:href="#p" transform="matrix(1,0,0,1,2570.8369495481834,-1164.4332033680928) translate(27.93209876543213 31.13888888888888)"/><path d="M2445.2-795.84h26.9" stroke="#5e5e5e" stroke-width="2" fill="none"/><path d="M2445.24-794.84h-1.03v-2h1.04z" stroke="#5e5e5e" stroke-width=".05" fill="#5e5e5e"/><path d="M2487.36-795.84l-14.26 4.64v-9.27z" stroke="#5e5e5e" stroke-width="2" fill="#5e5e5e"/><path d="M2597.84-989.8a6 6 0 0 1 6-6h94.66a6 6 0 0 1 6 6v74c-17.8-13.36-28.9-13.36-35.62-13.36-10.67 0-24.86 13.36-35.52 13.36-6.62 0-17.82 0-35.52-13.36z" stroke="#5e5e5e" stroke-width="3" fill="#cfe4ff"/><use xlink:href="#q" transform="matrix(1,0,0,1,2602.835909256902,-990.8000410647837) translate(30.01234567901235 17.77777777777778)"/><use xlink:href="#o" transform="matrix(1,0,0,1,2602.835909256902,-990.8000410647837) translate(21.401234567901238 44.44444444444444)"/><path d="M2489.63-535.95H2237.73" stroke="#5e5e5e" stroke-width="2" fill="none"/><path d="M2490.63-534.95h-1.03v-2h1.03z" stroke="#5e5e5e" stroke-width=".05" fill="#5e5e5e"/><path d="M2222.46-535.95l14.26-4.63v9.27z" stroke="#5e5e5e" stroke-width="2" fill="#5e5e5e"/><path d="M2222.43-841.67a6 6 0 0 1 6-6h208.32a6 6 0 0 1 6 6V-750a6 6 0 0 1-6 6h-208.32a6 6 0 0 1-6-6z" stroke="#5e5e5e" stroke-width="3" fill="#ffeca9"/><path d="M2263.06-828.6a6 6 0 0 1 6-6h131.75a6 6 0 0 1 6 6v78.6a6 6 0 0 1-6 6h-131.74a6 6 0 0 1-6-6z" stroke="#000" stroke-opacity="0" stroke-width="3" fill="#fff" fill-opacity="0"/><use xlink:href="#r" transform="matrix(1,0,0,1,2268.061566028766,-829.5892976166235) translate(-17.561728395061706 46.72222222222222)"/><path d="M2219.78-543.6c0 31.82-25.76 57.64-57.5 57.64s-57.5-25.82-57.5-57.63c0-31.8 25.76-57.62 57.5-57.62s57.5 25.82 57.5 57.63z" fill="#3f9915"/><path d="M2104.78-548.32h115v4.72h-115v-4.72z" fill="#c3a100"/><path d="M2219.78-548.32c0 31.8-25.76 57.63-57.5 57.63s-57.5-25.8-57.5-57.62c0-31.8 25.76-57.63 57.5-57.63s57.5 25.82 57.5 57.63z" fill="#54c45e"/><path d="M2199.67-520l-4.47-11.77-9.97 3.82-14.23-37.42-3.97-10.33-1.88-4.9-2.9-7.65h-18.93v12.55h10.27l3.6 9.34-29.76 53.03h14.38l21.16-37.8 15.03 39.4 3.62-1.37 8.1-3.06 9.95-3.83z" fill="#fff"/><use xlink:href="#s" transform="matrix(1,0,0,1,2104.7765581708272,-485.94878612154173) translate(26.049382716049386 17.77777777777778)"/><path d="M1914.1-570.37a6 6 0 0 1 6-6h94.67a6 6 0 0 1 6 6v74c-17.8-13.36-28.9-13.36-35.63-13.36-10.66 0-24.85 13.36-35.52 13.36-6.6 0-17.8 0-35.52-13.36z" stroke="#5e5e5e" stroke-width="3" fill="#c3f7c8"/><use xlink:href="#t" transform="matrix(1,0,0,1,1919.1044313254206,-571.3691076005401) translate(16.49382716049383 32.02777777777778)"/><path d="M1911.6-536h-45.35a.03.03 0 0 0-.03.02.03.03 0 0 1-.03.03h-27.86" stroke="#5e5e5e" stroke-width="2" fill="none"/><path d="M1912.6-535h-1.02v-2h1.02z" stroke="#5e5e5e" stroke-width=".05" fill="#5e5e5e"/><path d="M1823.07-535.95l14.27-4.63v9.27z" stroke="#5e5e5e" stroke-width="2" fill="#5e5e5e"/><path d="M2103.83-542.06h-63.1" stroke="#5e5e5e" stroke-width="2" fill="none"/><path d="M2104.78-543.06l.1 2h-1.07v-2h.98z" stroke="#5e5e5e" stroke-width=".05" fill="#5e5e5e"/><path d="M2025.46-542.06l14.27-4.64v9.27z" stroke="#5e5e5e" stroke-width="2" fill="#5e5e5e"/><path d="M1836.33-797.06h366.12" stroke="#5e5e5e" stroke-width="2" fill="none"/><path d="M1836.35-796.06h-1.02v-2h1.02z" stroke="#5e5e5e" stroke-width=".05" fill="#5e5e5e"/><path d="M2217.73-797.06l-14.27 4.64v-9.27z" stroke="#5e5e5e" stroke-width="2" fill="#5e5e5e"/><path d="M1820.4-543.6c0 31.82-25.77 57.64-57.5 57.64-31.75 0-57.5-25.82-57.5-57.63 0-31.8 25.75-57.62 57.5-57.62 31.73 0 57.5 25.82 57.5 57.63z" fill="#3f9915"/><path d="M1705.4-548.32h115v4.72h-115v-4.72z" fill="#c3a100"/><path d="M1820.4-548.32c0 31.8-25.77 57.63-57.5 57.63-31.75 0-57.5-25.8-57.5-57.62 0-31.8 25.75-57.63 57.5-57.63 31.73 0 57.5 25.82 57.5 57.63z" fill="#54c45e"/><path d="M1800.3-520l-4.5-11.77-9.96 3.82-14.22-37.42-3.98-10.33-1.88-4.9-2.88-7.65H1743.94v12.55h10.27l3.62 9.34-29.76 53.03h14.37l21.17-37.8 15.02 39.4 3.6-1.37 8.1-3.06 9.97-3.83z" fill="#fff"/><use xlink:href="#u" transform="matrix(1,0,0,1,1705.3929915949213,-485.94878612154173) translate(34.691358024691354 17.77777777777778)"/><path d="M1727.2-831.06a6 6 0 0 1 6-6h94.67a6 6 0 0 1 6 6v74c-17.82-13.36-28.9-13.36-35.63-13.36-10.67 0-24.85 13.36-35.52 13.36-6.6 0-17.8 0-35.52-13.36z" stroke="#5e5e5e" stroke-width="3" fill="#cfe4ff"/><use xlink:href="#i" transform="matrix(1,0,0,1,1732.200820778157,-832.055909704963) translate(1.0617283950617278 32.02777777777778)"/><path d="M1506.8-570.37a6 6 0 0 1 6-6h94.68a6 6 0 0 1 6 6v74c-17.82-13.36-28.9-13.36-35.63-13.36-10.67 0-24.85 13.36-35.52 13.36-6.6 0-17.8 0-35.52-13.36z" stroke="#5e5e5e" stroke-width="3" fill="#c3f7c8"/><use xlink:href="#h" transform="matrix(1,0,0,1,1511.8105181593166,-571.3691076005401) translate(21.401234567901238 32.02777777777778)"/><path d="M1704.95-535.95h-44.3a.2.2 0 0 1-.2-.2.2.2 0 0 0-.22-.22h-26.8" stroke="#5e5e5e" stroke-width="2" fill="none"/><path d="M1706.1-534.95h-1.18v-2h.9z" stroke="#5e5e5e" stroke-width=".05" fill="#5e5e5e"/><path d="M1618.17-536.37l14.27-4.63v9.27z" stroke="#5e5e5e" stroke-width="2" fill="#5e5e5e"/><path d="M1504.3-536.37h-28.36a.2.2 0 0 0-.2.2.2.2 0 0 1-.22.22h-10.86" stroke="#5e5e5e" stroke-width="2" fill="none"/><path d="M1505.3-535.37h-1.02v-2h1.03z" stroke="#5e5e5e" stroke-width=".05" fill="#5e5e5e"/><path d="M1449.4-535.95l14.26-4.63v9.27z" stroke="#5e5e5e" stroke-width="2" fill="#5e5e5e"/><defs><path fill="#333" d="M240-174c0 40-23 61-54 70L253 0h-59l-57-94H76V0H24v-248c93 4 217-23 216 74zM76-134c48-2 112 12 112-38 0-48-66-32-112-35v73" id="v"/><path fill="#333" d="M185-48c-13 30-37 53-82 52C43 2 14-33 14-96s30-98 90-98c62 0 83 45 84 108H66c0 31 8 55 39 56 18 0 30-7 34-22zm-45-69c5-46-57-63-70-21-2 6-4 13-4 21h74" id="w"/><path fill="#333" d="M88-194c31-1 46 15 58 34l-1-101h50l1 261h-48c-2-10 0-23-3-31C134-8 116 4 84 4 32 4 16-41 15-95c0-56 19-97 73-99zm17 164c33 0 40-30 41-66 1-37-9-64-41-64s-38 30-39 65c0 43 13 65 39 65" id="x"/><path fill="#333" d="M85 4C-2 5 27-109 22-190h50c7 57-23 150 33 157 60-5 35-97 40-157h50l1 190h-47c-2-12 1-28-3-38-12 25-28 42-61 42" id="y"/><path fill="#333" d="M144 0l-44-69L55 0H2l70-98-66-92h53l41 62 40-62h54l-67 91 71 99h-54" id="z"/><path fill="#333" d="M182-130c37 4 62 22 62 59C244 23 116-4 24 0v-248c84 5 203-23 205 63 0 31-19 50-47 55zM76-148c40-3 101 13 101-30 0-44-60-28-101-31v61zm0 110c48-3 116 14 116-37 0-48-69-32-116-35v72" id="A"/><path fill="#333" d="M24 0v-248h52v208h133V0H24" id="B"/><path fill="#333" d="M110-194c64 0 96 36 96 99 0 64-35 99-97 99-61 0-95-36-95-99 0-62 34-99 96-99zm-1 164c35 0 45-28 45-65 0-40-10-65-43-65-34 0-45 26-45 65 0 36 10 65 43 65" id="C"/><path fill="#333" d="M67-125c0 53 21 87 73 88 37 1 54-22 65-47l45 17C233-25 199 4 140 4 58 4 20-42 15-125 8-235 124-281 211-232c18 10 29 29 36 50l-46 12c-8-25-30-41-62-41-52 0-71 34-72 86" id="D"/><path fill="#333" d="M169-182c-1-43-94-46-97-3 18 66 151 10 154 114 3 95-165 93-204 36-6-8-10-19-12-30l50-8c3 46 112 56 116 5-17-69-150-10-154-114-4-87 153-88 188-35 5 8 8 18 10 28" id="E"/><path fill="#333" d="M115-3C79 11 28 4 28-45v-112H4v-33h27l15-45h31v45h36v33H77v99c-1 23 16 31 38 25v30" id="F"/><path fill="#333" d="M133-34C117-15 103 5 69 4 32 3 11-16 11-54c-1-60 55-63 116-61 1-26-3-47-28-47-18 1-26 9-28 27l-52-2c7-38 36-58 82-57s74 22 75 68l1 82c-1 14 12 18 25 15v27c-30 8-71 5-69-32zm-48 3c29 0 43-24 42-57-32 0-66-3-65 30 0 17 8 27 23 27" id="G"/><g id="a"><use transform="matrix(0.08641975308641973,0,0,0.08641975308641973,0,0)" xlink:href="#v"/><use transform="matrix(0.08641975308641973,0,0,0.08641975308641973,22.38271604938271,0)" xlink:href="#w"/><use transform="matrix(0.08641975308641973,0,0,0.08641975308641973,39.66666666666666,0)" xlink:href="#x"/><use transform="matrix(0.08641975308641973,0,0,0.08641975308641973,58.59259259259258,0)" xlink:href="#y"/><use transform="matrix(0.08641975308641973,0,0,0.08641975308641973,77.5185185185185,0)" xlink:href="#z"/><use transform="matrix(0.08641975308641973,0,0,0.08641975308641973,94.80246913580245,0)" xlink:href="#A"/><use transform="matrix(0.08641975308641973,0,0,0.08641975308641973,117.18518518518516,0)" xlink:href="#B"/><use transform="matrix(0.08641975308641973,0,0,0.08641975308641973,136.1111111111111,0)" xlink:href="#C"/><use transform="matrix(0.08641975308641973,0,0,0.08641975308641973,155.037037037037,0)" xlink:href="#D"/><use transform="matrix(0.08641975308641973,0,0,0.08641975308641973,177.41975308641972,0)" xlink:href="#E"/><use transform="matrix(0.08641975308641973,0,0,0.08641975308641973,198.16049382716045,0)" xlink:href="#F"/><use transform="matrix(0.08641975308641973,0,0,0.08641975308641973,208.4444444444444,0)" xlink:href="#G"/><use transform="matrix(0.08641975308641973,0,0,0.08641975308641973,225.72839506172835,0)" xlink:href="#F"/><use transform="matrix(0.08641975308641973,0,0,0.08641975308641973,236.0123456790123,0)" xlink:href="#w"/></g><path fill="#333" d="M147 0H94L2-248h55l64 206c17-72 42-137 63-206h54" id="H"/><path fill="#333" d="M25-224v-37h50v37H25zM25 0v-190h50V0H25" id="I"/><path fill="#333" d="M231 0h-52l-39-155L100 0H48L-1-190h46L77-45c9-52 24-97 36-145h53l37 145 32-145h46" id="J"/><g id="b"><use transform="matrix(0.08641975308641973,0,0,0.08641975308641973,0,0)" xlink:href="#H"/><use transform="matrix(0.08641975308641973,0,0,0.08641975308641973,20.1358024691358,0)" xlink:href="#I"/><use transform="matrix(0.08641975308641973,0,0,0.08641975308641973,28.77777777777777,0)" xlink:href="#w"/><use transform="matrix(0.08641975308641973,0,0,0.08641975308641973,46.06172839506172,0)" xlink:href="#J"/></g><g id="c"><use transform="matrix(0.08641975308641973,0,0,0.08641975308641973,0,0)" xlink:href="#A"/><use transform="matrix(0.08641975308641973,0,0,0.08641975308641973,22.38271604938271,0)" xlink:href="#B"/><use transform="matrix(0.08641975308641973,0,0,0.08641975308641973,41.30864197530863,0)" xlink:href="#C"/><use transform="matrix(0.08641975308641973,0,0,0.08641975308641973,60.234567901234556,0)" xlink:href="#D"/></g><path fill="#333" d="M135-194c87-1 58 113 63 194h-50c-7-57 23-157-34-157-59 0-34 97-39 157H25l-1-190h47c2 12-1 28 3 38 12-26 28-41 61-42" id="K"/><path fill="#333" d="M135-150c-39-12-60 13-60 57V0H25l-1-190h47c2 13-1 29 3 40 6-28 27-53 61-41v41" id="L"/><path fill="#333" d="M190-63c-7 42-38 67-86 67-59 0-84-38-90-98-12-110 154-137 174-36l-49 2c-2-19-15-32-35-32-30 0-35 28-38 64-6 74 65 87 74 30" id="M"/><path fill="#333" d="M137-138c1-29-70-34-71-4 15 46 118 7 119 86 1 83-164 76-172 9l43-7c4 19 20 25 44 25 33 8 57-30 24-41C81-84 22-81 20-136c-2-80 154-74 161-7" id="N"/><g id="d"><use transform="matrix(0.06172839506172839,0,0,0.06172839506172839,0,0)" xlink:href="#I"/><use transform="matrix(0.06172839506172839,0,0,0.06172839506172839,6.172839506172839,0)" xlink:href="#K"/><use transform="matrix(0.06172839506172839,0,0,0.06172839506172839,19.691358024691358,0)" xlink:href="#F"/><use transform="matrix(0.06172839506172839,0,0,0.06172839506172839,27.037037037037038,0)" xlink:href="#w"/><use transform="matrix(0.06172839506172839,0,0,0.06172839506172839,39.382716049382715,0)" xlink:href="#L"/><use transform="matrix(0.06172839506172839,0,0,0.06172839506172839,48.02469135802469,0)" xlink:href="#G"/><use transform="matrix(0.06172839506172839,0,0,0.06172839506172839,60.37037037037037,0)" xlink:href="#M"/><use transform="matrix(0.06172839506172839,0,0,0.06172839506172839,72.71604938271605,0)" xlink:href="#F"/><use transform="matrix(0.06172839506172839,0,0,0.06172839506172839,80.06172839506173,0)" xlink:href="#N"/></g><path fill="#333" d="M199 0l-22-63H83L61 0H9l90-248h61L250 0h-51zm-33-102l-36-108c-10 38-24 72-36 108h72" id="O"/><g id="e"><use transform="matrix(0.06172839506172839,0,0,0.06172839506172839,0,0)" xlink:href="#O"/><use transform="matrix(0.06172839506172839,0,0,0.06172839506172839,15.987654320987653,0)" xlink:href="#M"/><use transform="matrix(0.06172839506172839,0,0,0.06172839506172839,28.333333333333332,0)" xlink:href="#F"/><use transform="matrix(0.06172839506172839,0,0,0.06172839506172839,35.67901234567901,0)" xlink:href="#I"/><use transform="matrix(0.06172839506172839,0,0,0.06172839506172839,41.851851851851855,0)" xlink:href="#C"/><use transform="matrix(0.06172839506172839,0,0,0.06172839506172839,55.370370370370374,0)" xlink:href="#K"/></g><path fill="#333" d="M220-157c-53 9-28 100-34 157h-49v-107c1-27-5-49-29-50C55-147 81-57 75 0H25l-1-190h47c2 12-1 28 3 38 10-53 101-56 108 0 13-22 24-43 59-42 82 1 51 116 57 194h-49v-107c-1-25-5-48-29-50" id="P"/><g id="f"><use transform="matrix(0.06172839506172839,0,0,0.06172839506172839,0,0)" xlink:href="#E"/><use transform="matrix(0.06172839506172839,0,0,0.06172839506172839,14.814814814814813,0)" xlink:href="#F"/><use transform="matrix(0.06172839506172839,0,0,0.06172839506172839,22.160493827160494,0)" xlink:href="#L"/><use transform="matrix(0.06172839506172839,0,0,0.06172839506172839,30.80246913580247,0)" xlink:href="#w"/><use transform="matrix(0.06172839506172839,0,0,0.06172839506172839,43.148148148148145,0)" xlink:href="#G"/><use transform="matrix(0.06172839506172839,0,0,0.06172839506172839,55.49382716049382,0)" xlink:href="#P"/></g><path fill="#333" d="M147 0L96-86 75-71V0H25v-261h50v150l67-79h53l-66 74L201 0h-54" id="Q"/><g id="g"><use transform="matrix(0.06172839506172839,0,0,0.06172839506172839,0,0)" xlink:href="#E"/><use transform="matrix(0.06172839506172839,0,0,0.06172839506172839,14.814814814814813,0)" xlink:href="#I"/><use transform="matrix(0.06172839506172839,0,0,0.06172839506172839,20.98765432098765,0)" xlink:href="#K"/><use transform="matrix(0.06172839506172839,0,0,0.06172839506172839,34.50617283950617,0)" xlink:href="#Q"/></g><g id="h"><use transform="matrix(0.06172839506172839,0,0,0.06172839506172839,0,0)" xlink:href="#E"/><use transform="matrix(0.06172839506172839,0,0,0.06172839506172839,14.814814814814813,0)" xlink:href="#F"/><use transform="matrix(0.06172839506172839,0,0,0.06172839506172839,22.160493827160494,0)" xlink:href="#G"/><use transform="matrix(0.06172839506172839,0,0,0.06172839506172839,34.50617283950617,0)" xlink:href="#F"/><use transform="matrix(0.06172839506172839,0,0,0.06172839506172839,41.85185185185185,0)" xlink:href="#w"/></g><path fill="#333" d="M24-248c93 1 206-16 204 79-1 75-69 88-152 82V0H24v-248zm52 121c47 0 100 7 100-41 0-47-54-39-100-39v80" id="R"/><path fill="#333" d="M135-194c53 0 70 44 70 98 0 56-19 98-73 100-31 1-45-17-59-34 3 33 2 69 2 105H25l-1-265h48c2 10 0 23 3 31 11-24 29-35 60-35zM114-30c33 0 39-31 40-66 0-38-9-64-40-64-56 0-55 130 0 130" id="S"/><path fill="#333" d="M25 0v-261h50V0H25" id="T"/><g id="i"><use transform="matrix(0.06172839506172839,0,0,0.06172839506172839,0,0)" xlink:href="#R"/><use transform="matrix(0.06172839506172839,0,0,0.06172839506172839,14.814814814814813,0)" xlink:href="#L"/><use transform="matrix(0.06172839506172839,0,0,0.06172839506172839,23.456790123456788,0)" xlink:href="#C"/><use transform="matrix(0.06172839506172839,0,0,0.06172839506172839,36.9753086419753,0)" xlink:href="#S"/><use transform="matrix(0.06172839506172839,0,0,0.06172839506172839,50.49382716049382,0)" xlink:href="#C"/><use transform="matrix(0.06172839506172839,0,0,0.06172839506172839,64.01234567901234,0)" xlink:href="#N"/><use transform="matrix(0.06172839506172839,0,0,0.06172839506172839,76.35802469135803,0)" xlink:href="#G"/><use transform="matrix(0.06172839506172839,0,0,0.06172839506172839,88.70370370370371,0)" xlink:href="#T"/></g><g id="j"><use transform="matrix(0.06172839506172839,0,0,0.06172839506172839,0,0)" xlink:href="#E"/><use transform="matrix(0.06172839506172839,0,0,0.06172839506172839,14.814814814814813,0)" xlink:href="#I"/><use transform="matrix(0.06172839506172839,0,0,0.06172839506172839,20.98765432098765,0)" xlink:href="#x"/><use transform="matrix(0.06172839506172839,0,0,0.06172839506172839,34.50617283950617,0)" xlink:href="#w"/></g><path fill="#333" d="M24 0v-248h195v40H76v63h132v40H76v65h150V0H24" id="U"/><path fill="#333" d="M121-226c-27-7-43 5-38 36h38v33H83V0H34v-157H6v-33h28c-9-59 32-81 87-68v32" id="V"/><g id="k"><use transform="matrix(0.06172839506172839,0,0,0.06172839506172839,0,0)" xlink:href="#U"/><use transform="matrix(0.06172839506172839,0,0,0.06172839506172839,14.814814814814813,0)" xlink:href="#V"/><use transform="matrix(0.06172839506172839,0,0,0.06172839506172839,22.160493827160494,0)" xlink:href="#V"/><use transform="matrix(0.06172839506172839,0,0,0.06172839506172839,29.50617283950617,0)" xlink:href="#w"/><use transform="matrix(0.06172839506172839,0,0,0.06172839506172839,41.85185185185185,0)" xlink:href="#M"/><use transform="matrix(0.06172839506172839,0,0,0.06172839506172839,54.197530864197525,0)" xlink:href="#F"/></g><g id="l"><use transform="matrix(0.08641975308641973,0,0,0.08641975308641973,0,0)" xlink:href="#D"/><use transform="matrix(0.08641975308641973,0,0,0.08641975308641973,22.38271604938271,0)" xlink:href="#C"/><use transform="matrix(0.08641975308641973,0,0,0.08641975308641973,41.30864197530863,0)" xlink:href="#K"/><use transform="matrix(0.08641975308641973,0,0,0.08641975308641973,60.234567901234556,0)" xlink:href="#N"/><use transform="matrix(0.08641975308641973,0,0,0.08641975308641973,77.5185185185185,0)" xlink:href="#y"/><use transform="matrix(0.08641975308641973,0,0,0.08641975308641973,96.44444444444443,0)" xlink:href="#P"/><use transform="matrix(0.08641975308641973,0,0,0.08641975308641973,124.09876543209874,0)" xlink:href="#w"/><use transform="matrix(0.08641975308641973,0,0,0.08641975308641973,141.38271604938268,0)" xlink:href="#L"/></g><path fill="#333" d="M67-93c0 74 22 123 53 168H70C40 30 18-18 18-93s22-123 52-168h50c-32 44-53 94-53 168" id="W"/><path fill="#333" d="M102-93c0 74-22 123-52 168H0C30 29 54-18 53-93c0-74-22-123-53-168h50c30 45 52 94 52 168" id="X"/><g id="m"><use transform="matrix(0.06172839506172839,0,0,0.06172839506172839,0,0)" xlink:href="#L"/><use transform="matrix(0.06172839506172839,0,0,0.06172839506172839,8.641975308641975,0)" xlink:href="#w"/><use transform="matrix(0.06172839506172839,0,0,0.06172839506172839,20.98765432098765,0)" xlink:href="#x"/><use transform="matrix(0.06172839506172839,0,0,0.06172839506172839,34.50617283950617,0)" xlink:href="#y"/><use transform="matrix(0.06172839506172839,0,0,0.06172839506172839,48.02469135802469,0)" xlink:href="#M"/><use transform="matrix(0.06172839506172839,0,0,0.06172839506172839,60.37037037037037,0)" xlink:href="#w"/><use transform="matrix(0.06172839506172839,0,0,0.06172839506172839,72.71604938271605,0)" xlink:href="#L"/><use transform="matrix(0.06172839506172839,0,0,0.06172839506172839,81.35802469135803,0)" xlink:href="#W"/><use transform="matrix(0.06172839506172839,0,0,0.06172839506172839,88.70370370370371,0)" xlink:href="#N"/><use transform="matrix(0.06172839506172839,0,0,0.06172839506172839,101.0493827160494,0)" xlink:href="#X"/></g><path fill="#333" d="M175 0L67-191c6 58 2 128 3 191H24v-248h59L193-55c-6-58-2-129-3-193h46V0h-61" id="Y"/><g id="n"><use transform="matrix(0.06172839506172839,0,0,0.06172839506172839,0,0)" xlink:href="#Y"/><use transform="matrix(0.06172839506172839,0,0,0.06172839506172839,15.987654320987653,0)" xlink:href="#w"/><use transform="matrix(0.06172839506172839,0,0,0.06172839506172839,28.333333333333332,0)" xlink:href="#J"/></g><g id="o"><use transform="matrix(0.06172839506172839,0,0,0.06172839506172839,0,0)" xlink:href="#E"/><use transform="matrix(0.06172839506172839,0,0,0.06172839506172839,14.814814814814813,0)" xlink:href="#F"/><use transform="matrix(0.06172839506172839,0,0,0.06172839506172839,22.160493827160494,0)" xlink:href="#G"/><use transform="matrix(0.06172839506172839,0,0,0.06172839506172839,34.50617283950617,0)" xlink:href="#F"/><use transform="matrix(0.06172839506172839,0,0,0.06172839506172839,41.85185185185185,0)" xlink:href="#w"/></g><g id="p"><use transform="matrix(0.0864197530864197,0,0,0.0864197530864197,0,0)" xlink:href="#v"/><use transform="matrix(0.0864197530864197,0,0,0.0864197530864197,22.382716049382704,0)" xlink:href="#w"/><use transform="matrix(0.0864197530864197,0,0,0.0864197530864197,39.66666666666664,0)" xlink:href="#x"/><use transform="matrix(0.0864197530864197,0,0,0.0864197530864197,58.59259259259256,0)" xlink:href="#y"/><use transform="matrix(0.0864197530864197,0,0,0.0864197530864197,77.51851851851848,0)" xlink:href="#z"/><use transform="matrix(0.0864197530864197,0,0,0.0864197530864197,94.80246913580241,0)" xlink:href="#E"/><use transform="matrix(0.0864197530864197,0,0,0.0864197530864197,115.54320987654317,0)" xlink:href="#F"/><use transform="matrix(0.0864197530864197,0,0,0.0864197530864197,125.82716049382711,0)" xlink:href="#C"/><use transform="matrix(0.0864197530864197,0,0,0.0864197530864197,144.75308641975303,0)" xlink:href="#L"/><use transform="matrix(0.0864197530864197,0,0,0.0864197530864197,156.8518518518518,0)" xlink:href="#w"/></g><path fill="#333" d="M140-251c80 0 125 45 125 126S219 4 139 4C58 4 15-44 15-125s44-126 125-126zm-1 214c52 0 73-35 73-88 0-50-21-86-72-86-52 0-73 35-73 86s22 88 72 88" id="Z"/><g id="q"><use transform="matrix(0.06172839506172839,0,0,0.06172839506172839,0,0)" xlink:href="#Z"/><use transform="matrix(0.06172839506172839,0,0,0.06172839506172839,17.28395061728395,0)" xlink:href="#T"/><use transform="matrix(0.06172839506172839,0,0,0.06172839506172839,23.456790123456788,0)" xlink:href="#x"/></g><path fill="#333" d="M230 0l2-204L168 0h-37L68-204 70 0H24v-248h70l56 185 57-185h69V0h-46" id="aa"/><g id="r"><use transform="matrix(0.08641975308641973,0,0,0.08641975308641973,0,0)" xlink:href="#aa"/><use transform="matrix(0.08641975308641973,0,0,0.08641975308641973,25.8395061728395,0)" xlink:href="#I"/><use transform="matrix(0.08641975308641973,0,0,0.08641975308641973,34.481481481481474,0)" xlink:href="#x"/><use transform="matrix(0.08641975308641973,0,0,0.08641975308641973,53.40740740740738,0)" xlink:href="#x"/><use transform="matrix(0.08641975308641973,0,0,0.08641975308641973,72.33333333333331,0)" xlink:href="#T"/><use transform="matrix(0.08641975308641973,0,0,0.08641975308641973,80.97530864197529,0)" xlink:href="#w"/><use transform="matrix(0.08641975308641973,0,0,0.08641975308641973,98.25925925925924,0)" xlink:href="#J"/><use transform="matrix(0.08641975308641973,0,0,0.08641975308641973,122.45679012345677,0)" xlink:href="#G"/><use transform="matrix(0.08641975308641973,0,0,0.08641975308641973,139.7407407407407,0)" xlink:href="#L"/><use transform="matrix(0.08641975308641973,0,0,0.08641975308641973,151.83950617283946,0)" xlink:href="#w"/></g><g id="s"><use transform="matrix(0.06172839506172839,0,0,0.06172839506172839,0,0)" xlink:href="#N"/><use transform="matrix(0.06172839506172839,0,0,0.06172839506172839,12.345679012345679,0)" xlink:href="#w"/><use transform="matrix(0.06172839506172839,0,0,0.06172839506172839,24.691358024691358,0)" xlink:href="#T"/><use transform="matrix(0.06172839506172839,0,0,0.06172839506172839,30.864197530864196,0)" xlink:href="#w"/><use transform="matrix(0.06172839506172839,0,0,0.06172839506172839,43.20987654320987,0)" xlink:href="#M"/><use transform="matrix(0.06172839506172839,0,0,0.06172839506172839,55.55555555555555,0)" xlink:href="#F"/></g><g id="t"><use transform="matrix(0.06172839506172839,0,0,0.06172839506172839,0,0)" xlink:href="#aa"/><use transform="matrix(0.06172839506172839,0,0,0.06172839506172839,18.456790123456788,0)" xlink:href="#C"/><use transform="matrix(0.06172839506172839,0,0,0.06172839506172839,31.9753086419753,0)" xlink:href="#x"/><use transform="matrix(0.06172839506172839,0,0,0.06172839506172839,45.49382716049382,0)" xlink:href="#w"/><use transform="matrix(0.06172839506172839,0,0,0.06172839506172839,57.8395061728395,0)" xlink:href="#T"/></g><g id="u"><use transform="matrix(0.06172839506172839,0,0,0.06172839506172839,0,0)" xlink:href="#P"/><use transform="matrix(0.06172839506172839,0,0,0.06172839506172839,19.753086419753085,0)" xlink:href="#G"/><use transform="matrix(0.06172839506172839,0,0,0.06172839506172839,32.098765432098766,0)" xlink:href="#S"/></g></defs></g></svg>