<svg xmlns="http://www.w3.org/2000/svg" xmlns:xlink="http://www.w3.org/1999/xlink" xmlns:lucid="lucid" width="2369.4" height="1558.94"><g transform="translate(-24 2498.944843960342)" lucid:page-tab-id="ftBjKsJP~4FK"><path d="M0-2517.67h3677.73V64H0z" fill="#fff"/><path d="M1978.04-1874a6 6 0 0 1 6-6h363.36a6 6 0 0 1 6 6v908a6 6 0 0 1-6 6h-363.36a6 6 0 0 1-6-6z" stroke="#5e5e5e" stroke-width="3" fill="#ffeca9"/><path d="M2133.4-1874a6 6 0 0 1 6-6h228a6 6 0 0 1 6 6v53.56a6 6 0 0 1-6 6h-228a6 6 0 0 1-6-6z" stroke="#000" stroke-opacity="0" stroke-width="3" fill="#fff" fill-opacity="0"/><use xlink:href="#a" transform="matrix(1,0,0,1,2138.4,-1875) translate(35.7530864197531 35.388888888888886)"/><path d="M257.2-1874a6 6 0 0 1 6-6h445.04a6 6 0 0 1 6 6v908a6 6 0 0 1-6 6H263.2a6 6 0 0 1-6-6z" stroke="#5e5e5e" stroke-width="3" fill="#ffeca9"/><path d="M469-1874a6 6 0 0 1 6-6h228a6 6 0 0 1 6 6v53.56a6 6 0 0 1-6 6H475a6 6 0 0 1-6-6z" stroke="#000" stroke-opacity="0" stroke-width="3" fill="#fff" fill-opacity="0"/><use xlink:href="#b" transform="matrix(1,0,0,1,474,-1875) translate(9.049382716049408 35.388888888888886)"/><use xlink:href="#c" transform="matrix(1,0,0,1,474,-1875) translate(48.716049382716065 35.388888888888886)"/><path d="M989.4-1874a6 6 0 0 1 6-6h701a6 6 0 0 1 6 6v908a6 6 0 0 1-6 6h-701a6 6 0 0 1-6-6z" stroke="#5e5e5e" stroke-width="3" fill="#ffeca9"/><path d="M1519.17-1874a6 6 0 0 1 6-6h228a6 6 0 0 1 6 6v40.08a6 6 0 0 1-6 6h-228a6 6 0 0 1-6-6z" stroke="#000" stroke-opacity="0" stroke-width="3" fill="#fff" fill-opacity="0"/><use xlink:href="#d" transform="matrix(1,0,0,1,1524.1666686666672,-1875) translate(73.69135802469137 27.576388888888886)"/><path d="M369.42-1540h-.08a3.2 3.2 0 0 0-3.2 3.2 3.2 3.2 0 0 1-3.18 3.18h-.08M369.4-1540h1.02M362.9-1533.62h-1.02M716.7-1476.06H760" stroke="#5e5e5e" stroke-width="2" fill="none"/><path d="M716.72-1475.06h-1.02v-2h1.02z" stroke="#5e5e5e" stroke-width=".05" fill="#5e5e5e"/><path d="M775.26-1476.07l-14.26 4.64v-9.27z" stroke="#5e5e5e" stroke-width="2" fill="#5e5e5e"/><path d="M1072.7-1480h38.75" stroke="#5e5e5e" stroke-width="2" fill="none"/><path d="M1072.72-1479h-1.12l.1-1-.1-1h1.12z" stroke="#5e5e5e" stroke-width=".05" fill="#5e5e5e"/><path d="M1126.72-1480l-14.27 4.64v-9.28z" stroke="#5e5e5e" stroke-width="2" fill="#5e5e5e"/><path d="M889.12-1479.57h30.7a.22.22 0 0 0 .2-.2.22.22 0 0 1 .23-.23h13.2" stroke="#5e5e5e" stroke-width="2" fill="none"/><path d="M889.15-1478.57h-1.03v-2h1.03z" stroke="#5e5e5e" stroke-width=".05" fill="#5e5e5e"/><path d="M948.7-1480l-14.26 4.64v-9.28z" stroke="#5e5e5e" stroke-width="2" fill="#5e5e5e"/><path d="M1754-1097.18h-561.1a6 6 0 0 1-6-6v-308.33" stroke="#5e5e5e" stroke-width="2" fill="none"/><path d="M1755-1096.18h-1.03v-2h1.03z" stroke="#5e5e5e" stroke-width=".05" fill="#5e5e5e"/><path d="M1186.9-1426.78l4.64 14.27h-9.28z" stroke="#5e5e5e" stroke-width="2" fill="#5e5e5e"/><path d="M1245.2-1483h88" stroke="#5e5e5e" stroke-width="2" fill="none"/><path d="M1245.22-1482h-1.1l.06-.58.06-1.42h.98zM1334.2-1482h-1.04v-2h1.03z" stroke="#5e5e5e" stroke-width=".05" fill="#5e5e5e"/><path d="M1444.82-1482.33h47.23a.17.17 0 0 1 .17.16.17.17 0 0 0 .16.17h29.74" stroke="#5e5e5e" stroke-width="2" fill="none"/><path d="M1444.84-1481.33h-1.02v-2h1.02z" stroke="#5e5e5e" stroke-width=".05" fill="#5e5e5e"/><path d="M1537.4-1482l-14.28 4.64v-9.28z" stroke="#5e5e5e" stroke-width="2" fill="#5e5e5e"/><path d="M1655.5-1482h139.38a.66.66 0 0 0 .66-.66.66.66 0 0 1 .67-.67h121.87" stroke="#5e5e5e" stroke-width="2" fill="none"/><path d="M1655.54-1481h-1.16l.26-2h.9z" stroke="#5e5e5e" stroke-width=".05" fill="#5e5e5e"/><path d="M1933.34-1483.33l-14.27 4.64v-9.26z" stroke="#5e5e5e" stroke-width="2" fill="#5e5e5e"/><path d="M119.7-1420H237.24" stroke="#5e5e5e" stroke-width="2" fill="none"/><path d="M119.73-1419h-1.03v-2h1.03z" stroke="#5e5e5e" stroke-width=".05" fill="#5e5e5e"/><path d="M252.5-1420l-14.26 4.64v-9.28z" stroke="#5e5e5e" stroke-width="2" fill="#5e5e5e"/><use xlink:href="#e" transform="matrix(1,0,0,1,141.0144218531795,-1450.6666210881463) translate(0 17.77777777777778)"/><path d="M2114.9-1098.03h-39.96a.5.5 0 0 0-.5.5.5.5 0 0 1-.52.52h-22.46" stroke="#5e5e5e" stroke-width="2" fill="none"/><path d="M2115.9-1097.03h-1.03v-2h1.03z" stroke="#5e5e5e" stroke-width=".05" fill="#5e5e5e"/><path d="M2036.2-1097l14.26-4.65v9.27z" stroke="#5e5e5e" stroke-width="2" fill="#5e5e5e"/><path d="M2170.9-1412.03v126.93a.08.08 0 0 1-.08.08.08.08 0 0 0-.1.1v144.42" stroke="#5e5e5e" stroke-width="2" fill="none"/><path d="M2170.9-1427.3l4.64 14.27h-9.28z" stroke="#5e5e5e" stroke-width="2" fill="#5e5e5e"/><path d="M2171.73-1139.5h-2v-1.02h2z" stroke="#5e5e5e" stroke-width=".05" fill="#5e5e5e"/><path d="M2057.34-1480h27.54a.26.26 0 0 0 .27-.26.26.26 0 0 1 .26-.26h10.05" stroke="#5e5e5e" stroke-width="2" fill="none"/><path d="M2057.36-1479h-1.12l.1-1-.1-1h1.12z" stroke="#5e5e5e" stroke-width=".05" fill="#5e5e5e"/><path d="M2110.72-1480.52l-14.27 4.63v-9.26z" stroke="#5e5e5e" stroke-width="2" fill="#5e5e5e"/><path d="M1912.22-1097.18h-46.6" stroke="#5e5e5e" stroke-width="2" fill="none"/><path d="M1913.3-1098.1l-.1 1.1.1.82h-1.1v-2h1.14zM1865.65-1096.18h-1.02v-2h1.02z" stroke="#5e5e5e" stroke-width=".05" fill="#5e5e5e"/><path d="M1754-1097.18h-680.63" stroke="#5e5e5e" stroke-width="2" fill="none"/><path d="M1755-1096.18h-1.03v-2h1.03z" stroke="#5e5e5e" stroke-width=".05" fill="#5e5e5e"/><path d="M1058.1-1097.18l14.27-4.64v9.27z" stroke="#5e5e5e" stroke-width="2" fill="#5e5e5e"/><path d="M635-1104.68c0 31.82-25.76 57.63-57.5 57.63s-57.5-25.8-57.5-57.63c0-31.8 25.76-57.63 57.5-57.63s57.5 25.8 57.5 57.62z" fill="#3f9915"/><path d="M520-1109.4h115v4.72H520v-4.73z" fill="#c3a100"/><path d="M635-1109.4c0 31.8-25.76 57.63-57.5 57.63S520-1077.6 520-1109.4c0-31.82 25.76-57.63 57.5-57.63s57.5 25.8 57.5 57.63z" fill="#54c45e"/><path d="M614.9-1081.07l-4.48-11.8-9.97 3.84-14.23-37.42-3.97-10.33-1.88-4.9-2.9-7.65h-18.92v12.55h10.26l3.63 9.33-29.76 53.03h14.37l21.16-37.8 15.03 39.4 3.6-1.37 8.1-3.05 9.97-3.82z" fill="#fff"/><use xlink:href="#f" transform="matrix(1,0,0,1,520,-1047.0341277916805) translate(34.135802469135804 17.77777777777778)"/><path d="M292.2-1846a6 6 0 0 1 6-6h148a6 6 0 0 1 6 6v857a6 6 0 0 1-6 6h-148a6 6 0 0 1-6-6z" stroke="#5e5e5e" stroke-width="3" fill="#fcfcca"/><path d="M429.7-1104.65c0 31.8-25.76 57.63-57.5 57.63s-57.5-25.82-57.5-57.63c0-31.82 25.76-57.63 57.5-57.63s57.5 25.8 57.5 57.63z" fill="#3f9915"/><path d="M314.7-1109.4h115v4.74h-115v-4.73z" fill="#c3a100"/><path d="M429.7-1109.38c0 31.8-25.76 57.63-57.5 57.63s-57.5-25.82-57.5-57.63c0-31.8 25.76-57.63 57.5-57.63s57.5 25.8 57.5 57.62z" fill="#54c45e"/><path d="M409.6-1081.05l-4.48-11.8-9.97 3.84-14.23-37.43-3.97-10.33-1.88-4.9-2.9-7.65h-18.92v12.54h10.26l3.63 9.33-29.76 53.04h14.37l21.16-37.8 15.03 39.4 3.6-1.36 8.1-3.07 9.97-3.82z" fill="#fff"/><use xlink:href="#g" transform="matrix(1,0,0,1,314.69999999999993,-1047.0113759305605) translate(22.99382716049383 17.77777777777778)"/><path d="M1244.4-1487.64c0 31.8-25.76 57.63-57.5 57.63s-57.5-25.83-57.5-57.64c0-31.8 25.76-57.63 57.5-57.63s57.5 25.82 57.5 57.63z" fill="#5886b6"/><path d="M1129.4-1492.38h115v4.73h-115v-4.73z" fill="#dc8e6c"/><path d="M1244.4-1492.37c0 31.8-25.76 57.63-57.5 57.63s-57.5-25.82-57.5-57.63c0-31.8 25.76-57.63 57.5-57.63s57.5 25.82 57.5 57.63z" fill="#6db1ff"/><path d="M1224.3-1464.04l-4.48-11.8-9.97 3.84-14.23-37.42-3.97-10.33-1.88-4.9-2.9-7.65h-18.92v12.55h10.26l3.63 9.34-29.76 53.02h14.37l21.16-37.8 15.03 39.4 3.6-1.37 8.1-3.06 9.97-3.84z" fill="#fff"/><use xlink:href="#h" transform="matrix(1,0,0,1,1129.4,-1430.0000000000002) translate(13.858024691358018 17.77777777777778)"/><path d="M780-1510.07a6 6 0 0 1 6-6h94.67a6 6 0 0 1 6 6v74c-17.82-13.36-28.9-13.36-35.63-13.36-10.67 0-24.85 13.36-35.52 13.36-6.6 0-17.8 0-35.52-13.36z" stroke="#5e5e5e" stroke-width="3" fill="#cfe4ff"/><use xlink:href="#i" transform="matrix(1,0,0,1,785,-1511.068255583362) translate(14.055555555555557 32.02777777777778)"/><path d="M1048.4-1173.68a3.2 3.2 0 0 1 5 2.67v148a3.2 3.2 0 0 1-5 2.66l-110-73.34a4 4 0 0 1 0-6.66z" stroke="#5e5e5e" stroke-width="3" fill="#c3f7c8"/><use xlink:href="#j" transform="matrix(6.123233995736766e-17,1,-1,6.123233995736766e-17,1048.3999999999996,-1172.0113759305605) translate(37.38154320987655 45.27777777777778)"/><path d="M958.4-1403.33a3.2 3.2 0 0 1-5-2.67v-148a3.2 3.2 0 0 1 5-2.67l110 73.34a4 4 0 0 1 0 6.66z" stroke="#5e5e5e" stroke-width="3" fill="#cfe4ff"/><use xlink:href="#k" transform="matrix(6.123233995736766e-17,-1,1,6.123233995736766e-17,958.3999999999999,-1405.0000000000002) translate(51.57907407407408 59.02777777777778)"/><path d="M1943.03-1403.33a3.2 3.2 0 0 1-5-2.67v-148a3.2 3.2 0 0 1 5-2.67l110.02 73.34a4 4 0 0 1 0 6.66z" stroke="#5e5e5e" stroke-width="3" fill="#cfe4ff"/><use xlink:href="#k" transform="matrix(6.123233995736766e-17,-1,1,6.123233995736766e-17,1943.0409763574153,-1405) translate(51.57907407407408 59.02777777777778)"/><path d="M1756.5-1131.18a6 6 0 0 1 6-6h94.67a6 6 0 0 1 6 6v74c-17.82-13.36-28.9-13.36-35.63-13.36-10.67 0-24.85 13.36-35.52 13.36-6.6 0-17.8 0-35.52-13.36z" stroke="#5e5e5e" stroke-width="3" fill="#c3f7c8"/><use xlink:href="#l" transform="matrix(1,0,0,1,1761.5000020000004,-1132.1804285810013) translate(21.401234567901238 32.02777777777778)"/><path d="M2026.5-1173.68a3.2 3.2 0 0 1 5 2.67v148a3.2 3.2 0 0 1-5 2.66l-110-73.34a4 4 0 0 1 0-6.66z" stroke="#5e5e5e" stroke-width="3" fill="#c3f7c8"/><use xlink:href="#j" transform="matrix(6.123233995736766e-17,1,-1,6.123233995736766e-17,2026.4999980000014,-1172.0113759305602) translate(37.38154320987655 45.27777777777778)"/><path d="M107.75-1475.86c0 10.58-11.93 19.14-26.63 19.14-14.77 0-26.7-8.56-26.7-19.14 0-10.6 11.93-19.14 26.7-19.14 14.7 0 26.63 8.56 26.63 19.14zM58.25-1454.84h46.28c14.25 0 14.25 0 14.25 10.3s0 10.3-14.25 10.3H58.25c-14.25 0-14.25 0-14.25-10.3s0-10.3 14.25-10.3z" fill="#29aae1"/><path d="M61.4-1437.58h39.38v42.48H61.4v-42.48z" fill="#29aae1"/><path d="M61.4-1396.7h17.77v46.85H61.4v-46.84zM84.28-1396.26h16.5v46.12h-16.5v-46.12zM44.15-1447.15h13.5V-1406.13h-13.5v-41.03zM105.05-1446.57h13.65v41.03h-13.65v-41.03z" fill="#29aae1"/><path d="M2117.4-1132.03a6 6 0 0 1 6-6h94.67a6 6 0 0 1 6 6v74c-17.82-13.36-28.9-13.36-35.63-13.36-10.67 0-24.85 13.37-35.52 13.37-6.6 0-17.8 0-35.52-13.36z" stroke="#5e5e5e" stroke-width="3" fill="#fff"/><use xlink:href="#l" transform="matrix(1,0,0,1,2122.4,-1133.0341277916805) translate(21.401234567901238 32.02777777777778)"/><path d="M780-1131.03a6 6 0 0 1 6-6h94.67a6 6 0 0 1 6 6v74c-17.82-13.36-28.9-13.36-35.63-13.36-10.67 0-24.85 13.37-35.52 13.37-6.6 0-17.8 0-35.52-13.36z" stroke="#5e5e5e" stroke-width="3" fill="#c3f7c8"/><use xlink:href="#l" transform="matrix(1,0,0,1,785,-1132.0341277916805) translate(21.401234567901238 32.02777777777778)"/><path d="M934.1-1097H889.12" stroke="#5e5e5e" stroke-width="2" fill="none"/><path d="M935.1-1097l.1 1h-1.12v-2h1.12zM889.15-1096h-1.02v-2h1.02z" stroke="#5e5e5e" stroke-width=".05" fill="#5e5e5e"/><path d="M777.5-1097.03H652.95" stroke="#5e5e5e" stroke-width="2" fill="none"/><path d="M778.5-1096.03h-1.03v-2h1.03z" stroke="#5e5e5e" stroke-width=".05" fill="#5e5e5e"/><path d="M637.68-1097.03l14.27-4.64v9.27z" stroke="#5e5e5e" stroke-width="2" fill="#5e5e5e"/><path d="M2057.34-1480h27.54a.26.26 0 0 0 .27-.26.26.26 0 0 1 .26-.26h10.05" stroke="#5e5e5e" stroke-width="2" fill="none"/><path d="M2057.36-1479h-1.12l.1-1-.1-1h1.12z" stroke="#5e5e5e" stroke-width=".05" fill="#5e5e5e"/><path d="M2110.72-1480.52l-14.27 4.63v-9.26z" stroke="#5e5e5e" stroke-width="2" fill="#5e5e5e"/><path d="M2114.9-1098.03h-64.46" stroke="#5e5e5e" stroke-width="2" fill="none"/><path d="M2115.9-1097.03h-1.03v-2h1.03z" stroke="#5e5e5e" stroke-width=".05" fill="#5e5e5e"/><path d="M2036.2-1097.2l13.96-5.46.55 9.25z" stroke="#5e5e5e" stroke-width="2" fill="#5e5e5e"/><path d="M1335.7-1517a6 6 0 0 1 6-6h94.65a6 6 0 0 1 6 6v74c-17.8-13.36-28.9-13.36-35.62-13.36-10.67 0-24.86 13.36-35.52 13.36-6.6 0-17.8 0-35.5-13.36z" stroke="#5e5e5e" stroke-width="3" fill="#cfe4ff"/><use xlink:href="#m" transform="matrix(1,0,0,1,1340.6871548453744,-1518) translate(0.537037037037031 32.02777777777778)"/><path d="M1759.17-1506.83a6 6 0 0 1 6-6h94.66a6 6 0 0 1 6 6v74c-17.8-13.36-28.9-13.36-35.62-13.36-10.66 0-24.85 13.37-35.5 13.37-6.63 0-17.83 0-35.53-13.36z" stroke="#5e5e5e" stroke-width="3" fill="#cfe4ff"/><use xlink:href="#n" transform="matrix(1,0,0,1,1764.1666686666672,-1507.8346456692914) translate(1.0617283950617278 32.02777777777778)"/><path d="M1655.07-1489.64c0 31.8-25.76 57.63-57.5 57.63s-57.5-25.83-57.5-57.64c0-31.8 25.76-57.63 57.5-57.63s57.5 25.82 57.5 57.63z" fill="#5886b6"/><path d="M1540.07-1494.38h115v4.73h-115v-4.73z" fill="#dc8e6c"/><path d="M1655.07-1494.37c0 31.8-25.76 57.63-57.5 57.63s-57.5-25.82-57.5-57.63c0-31.8 25.76-57.63 57.5-57.63s57.5 25.82 57.5 57.63z" fill="#6db1ff"/><path d="M1634.96-1466.04l-4.47-11.8-9.98 3.84-14.23-37.42-3.98-10.33-1.88-4.9-2.9-7.65h-18.91v12.55h10.26l3.6 9.34-29.75 53.02h14.38l21.17-37.8 15.03 39.4 3.6-1.37 8.1-3.06 9.96-3.84z" fill="#fff"/><use xlink:href="#o" transform="matrix(1,0,0,1,1540.0666666666666,-1431.9999999999998) translate(3.302469135802461 17.77777777777778)"/><path d="M1754-1097.18h-150.43a6 6 0 0 1-6-6v-310.33" stroke="#5e5e5e" stroke-width="2" fill="none"/><path d="M1755-1096.18h-1.03v-2h1.03z" stroke="#5e5e5e" stroke-width=".05" fill="#5e5e5e"/><path d="M1597.57-1428.78l4.63 14.27h-9.27z" stroke="#5e5e5e" stroke-width="2" fill="#5e5e5e"/><path d="M2228.4-1488.16c0 31.8-25.76 57.63-57.5 57.63s-57.5-25.82-57.5-57.63c0-31.82 25.76-57.63 57.5-57.63s57.5 25.82 57.5 57.64z" fill="#5886b6"/><path d="M2113.4-1492.9h115v4.73h-115v-4.73z" fill="#dc8e6c"/><path d="M2228.4-1492.9c0 31.82-25.76 57.64-57.5 57.64s-57.5-25.82-57.5-57.63c0-31.8 25.76-57.62 57.5-57.62s57.5 25.82 57.5 57.63z" fill="#6db1ff"/><path d="M2208.3-1464.56l-4.48-11.8-9.97 3.84-14.23-37.42-3.97-10.33-1.88-4.9-2.9-7.65h-18.92v12.55h10.26l3.63 9.33-29.76 53.03h14.37l21.16-37.8 15.03 39.4 3.6-1.38 8.1-3.06 9.97-3.82z" fill="#fff"/><use xlink:href="#p" transform="matrix(1,0,0,1,2113.4,-1430.522751861121) translate(22.376543209876544 17.77777777777778)"/><path d="M2228.84-1480.52h68.56a6 6 0 0 1 6 6v370.5a6 6 0 0 1-6 6h-53.37" stroke="#5e5e5e" stroke-width="2" fill="none"/><path d="M2228.87-1479.52h-1.16l.27-2h.9z" stroke="#5e5e5e" stroke-width=".05" fill="#5e5e5e"/><path d="M2228.76-1098.03l14.27-4.64v9.27z" stroke="#5e5e5e" stroke-width="2" fill="#5e5e5e"/><path d="M519.08-1102.7H472.18" stroke="#5e5e5e" stroke-width="2" fill="none"/><path d="M520.13-1101.7h-1.08v-2h.98z" stroke="#5e5e5e" stroke-width=".05" fill="#5e5e5e"/><path d="M456.93-1102.7l14.26-4.64v9.27z" stroke="#5e5e5e" stroke-width="2" fill="#5e5e5e"/><path d="M1335.7-1751.02a6 6 0 0 1 6-6h94.65a6 6 0 0 1 6 6v74c-17.8-13.36-28.9-13.36-35.62-13.36-10.67 0-24.86 13.36-35.52 13.36-6.6 0-17.8 0-35.5-13.36z" stroke="#5e5e5e" stroke-width="3" fill="#fc9432"/><use xlink:href="#q" transform="matrix(1,0,0,1,1340.6871548453744,-1752.0227518611205) translate(25.074074074074076 17.77777777777778)"/><use xlink:href="#r" transform="matrix(1,0,0,1,1340.6871548453744,-1752.0227518611205) translate(4.209876543209873 44.44444444444444)"/><path d="M1048.4-1793.67a3.2 3.2 0 0 1 5 2.67v148a3.2 3.2 0 0 1-5 2.67l-110-73.34a4 4 0 0 1 0-6.66z" stroke="#5e5e5e" stroke-width="3" fill="#fc9432"/><use xlink:href="#j" transform="matrix(6.123233995736766e-17,1,-1,6.123233995736766e-17,1048.4,-1792) translate(37.38154320987655 45.27777777777778)"/><path d="M780-1751.02a6 6 0 0 1 6-6h94.67a6 6 0 0 1 6 6v74c-17.82-13.36-28.9-13.36-35.63-13.36-10.67 0-24.85 13.36-35.52 13.36-6.6 0-17.8 0-35.52-13.36z" stroke="#5e5e5e" stroke-width="3" fill="#fc9432"/><use xlink:href="#q" transform="matrix(1,0,0,1,785.0000000000002,-1752.0227518611205) translate(25.074074074074076 17.77777777777778)"/><use xlink:href="#s" transform="matrix(1,0,0,1,785.0000000000002,-1752.0227518611205) translate(17.7283950617284 44.44444444444444)"/><path d="M1597.57-1553v-158.02a6 6 0 0 0-6-6H1444.8" stroke="#5e5e5e" stroke-width="2" fill="none"/><path d="M1598.57-1551.96l-1-.04h-.54l-.46.03v-1.06h2zM1444.84-1716.02h-1.02v-2h1.02z" stroke="#5e5e5e" stroke-width=".05" fill="#5e5e5e"/><path d="M1333.2-1717.02h-138.66-.02v.02h-121.16" stroke="#5e5e5e" stroke-width="2" fill="none"/><path d="M1334.2-1716.02h-1.04v-2h1.03z" stroke="#5e5e5e" stroke-width=".05" fill="#5e5e5e"/><path d="M1058.1-1717l14.26-4.64v9.28z" stroke="#5e5e5e" stroke-width="2" fill="#5e5e5e"/><path d="M777.5-1717.02h-30.37a.04.04 0 0 0-.04.04.04.04 0 0 1-.05.04h-12.87" stroke="#5e5e5e" stroke-width="2" fill="none"/><path d="M778.5-1716.02h-1.03v-2h1.03z" stroke="#5e5e5e" stroke-width=".05" fill="#5e5e5e"/><path d="M718.92-1716.94l14.26-4.64v9.27z" stroke="#5e5e5e" stroke-width="2" fill="#5e5e5e"/><path d="M934.1-1717H889.12" stroke="#5e5e5e" stroke-width="2" fill="none"/><path d="M935.1-1717l.1 1h-1.12v-2h1.12zM889.15-1716h-1.02v-2h1.02z" stroke="#5e5e5e" stroke-width=".05" fill="#5e5e5e"/><path d="M833.33-1759.5v-181.43" stroke="#5e5e5e" stroke-width="2" fill="none"/><path d="M834.33-1758.5h-2v-1h2z" stroke="#5e5e5e" stroke-width=".05" fill="#5e5e5e"/><path d="M833.33-1956.2l4.63 14.27h-9.27z" stroke="#5e5e5e" stroke-width="2" fill="#5e5e5e"/><path d="M708.16-2014.9a6 6 0 0 1 6-6h228a6 6 0 0 1 6 6v48a6 6 0 0 1-6 6h-228a6 6 0 0 1-6-6z" stroke="#5e5e5e" stroke-width="3" fill="#ffeca9"/><path d="M702.92-2024.45a6 6 0 0 1 6-6h228a6 6 0 0 1 6 6v72.67a6 6 0 0 1-6 6h-228a6 6 0 0 1-6-6z" stroke="#000" stroke-opacity="0" stroke-width="3" fill="#fff" fill-opacity="0"/><use xlink:href="#t" transform="matrix(1,0,0,1,707.9193321490869,-2025.4462069253057) translate(38.25925925925928 43.638888888888886)"/><path d="M991.93-2416.48l.03 1.42.14 2.24.22 2.1.3 1.96.34 1.85.4 1.74.48 1.67.5 1.6.58 1.53.62 1.46.66 1.4.72 1.38.77 1.33.8 1.3.9 1.28.94 1.24 1 1.23 1.1 1.2 1.17 1.2 1.27 1.18 1.36 1.17 1.48 1.17 1.6 1.17 1.77 1.17 1.93 1.18 2.13 1.17 2.37 1.17 2.65 1.18 2.98 1.18 3.4 1.18 3.9 1.18 4.57 1.17 5.4 1.15 6.58 1.1 8.24 1.04 10.96.9 16.92.68 10.67.05" stroke="#5e5e5e" stroke-width="2" stroke-linejoin="round" fill="none"/><path d="M992.93-2416.48l-2 .05-.02-1.05h2z" stroke="#5e5e5e" stroke-width=".05" fill="#5e5e5e"/><path d="M1109.03-2367.1l-14.3 4.57.06-9.27z" stroke="#5e5e5e" stroke-width="2" fill="#5e5e5e"/><path d="M1232.2-2336.05l.02 1.48.15 2.3.23 2.18.3 2.04.38 1.93.44 1.83.5 1.74.55 1.66.6 1.6.67 1.55.72 1.5.78 1.44.84 1.4.9 1.4.97 1.35 1.04 1.33 1.1 1.3 1.22 1.3 1.3 1.3 1.4 1.28 1.55 1.28 1.67 1.27 1.84 1.3 2 1.27 2.24 1.28 2.48 1.3 2.78 1.3 3.13 1.3 3.57 1.3 4.1 1.3 4.77 1.3 5.65 1.28 6.8 1.24 8.46 1.16 11.03 1.04 16 .8 6.16.1" stroke="#5e5e5e" stroke-width="2" stroke-linejoin="round" fill="none"/><path d="M1233.2-2336.05l-2 .04-.03-1.05h2z" stroke="#5e5e5e" stroke-width=".05" fill="#5e5e5e"/><path d="M1345.82-2284.16l-14.32 4.47.1-9.26z" stroke="#5e5e5e" stroke-width="2" fill="#5e5e5e"/><g fill="none"><path d="M987.63-2128.9a6 6 0 0 1-6-6v-33.24a6 6 0 0 1 6-6h708.77a6 6 0 0 1 6 6v33.24a6 6 0 0 1-6 6z"/><path d="M1702.4-2128.9c0-5.52-4.48-10-10-10h-340.38c-5.53 0-10-4.48-10-10 0 5.52-4.48 10-10 10h-340.4c-5.5 0-10 4.48-10 10" stroke="#5e5e5e" stroke-width="3"/></g><path d="M1349.02-2308.12a6 6 0 0 1 6-6h228a6 6 0 0 1 6 6v48a6 6 0 0 1-6 6h-228a6 6 0 0 1-6-6z" stroke="#5e5e5e" stroke-width="3" fill="#6db1ff"/><path d="M1349.02-2308.12a6 6 0 0 1 6-6h228a6 6 0 0 1 6 6v48a6 6 0 0 1-6 6h-228a6 6 0 0 1-6-6z" stroke="#000" stroke-opacity="0" stroke-width="3" fill-opacity="0"/><use xlink:href="#u" transform="matrix(1,0,0,1,1354.0204881787076,-2309.119120486835) translate(52.99382716049384 31.263888888888886)"/><path d="M1112.17-2392.52a6 6 0 0 1 6-6h228a6 6 0 0 1 6 6v48a6 6 0 0 1-6 6h-228a6 6 0 0 1-6-6z" stroke="#5e5e5e" stroke-width="3" fill="#cfe4ff"/><path d="M1112.23-2394.05a6 6 0 0 1 6-6h228a6 6 0 0 1 6 6v53.95a6 6 0 0 1-6 6h-228a6 6 0 0 1-6-6z" stroke="#000" stroke-opacity="0" stroke-width="3" fill-opacity="0"/><use xlink:href="#v" transform="matrix(1,0,0,1,1117.2333340000002,-2395.048551771514) translate(61.549382716049394 35.388888888888886)"/><path d="M871.9-2472.94a6 6 0 0 1 6-6h228a6 6 0 0 1 6 6v48a6 6 0 0 1-6 6h-228a6 6 0 0 1-6-6z" stroke="#5e5e5e" stroke-width="3" fill="#edf5ff"/><path d="M869.4-2472.94a6 6 0 0 1 6-6h228a6 6 0 0 1 6 6v48a6 6 0 0 1-6 6h-228a6 6 0 0 1-6-6z" stroke="#000" stroke-opacity="0" stroke-width="3" fill-opacity="0"/><use xlink:href="#w" transform="matrix(1,0,0,1,874.4000000000001,-2473.944843960342) translate(31.432098765432116 31.263888888888886)"/><use xlink:href="#x" transform="matrix(1,0,0,1,874.4000000000001,-2473.944843960342) translate(91.66666666666667 31.263888888888886)"/><path d="M1589.02-2228.14a6 6 0 0 1 6-6h228a6 6 0 0 1 6 6v48a6 6 0 0 1-6 6h-228a6 6 0 0 1-6-6z" stroke="#5e5e5e" stroke-width="3" fill="#6db1ff"/><path d="M1589.02-2228.14a6 6 0 0 1 6-6h228a6 6 0 0 1 6 6v48a6 6 0 0 1-6 6h-228a6 6 0 0 1-6-6z" stroke="#000" stroke-opacity="0" stroke-width="3" fill-opacity="0"/><use xlink:href="#y" transform="matrix(1,0,0,1,1594.0204881787079,-2229.138107246655) translate(39.12345679012347 31.263888888888886)"/><path d="M1469.04-2253.15l.03 1.4.14 2.23.23 2.08.3 1.96.35 1.84.4 1.74.47 1.66.52 1.58.57 1.52.62 1.46.67 1.4.72 1.38.77 1.32.83 1.3.9 1.26.94 1.24 1 1.22 1.1 1.2 1.18 1.2 1.28 1.18 1.37 1.18 1.5 1.17 1.63 1.17 1.8 1.16 1.95 1.17 2.18 1.18 2.42 1.17 2.72 1.18 3.07 1.2 3.5 1.17 4.04 1.18 4.74 1.17 5.65 1.14 6.92 1.1 8.8 1 11.98.87 20.52.6h2.2" stroke="#5e5e5e" stroke-width="2" stroke-linejoin="round" fill="none"/><path d="M1470.04-2253.15l-2 .04-.02-1.06h2z" stroke="#5e5e5e" stroke-width=".05" fill="#5e5e5e"/><path d="M1584.32-2204.15l-14.28 4.6.03-9.26z" stroke="#5e5e5e" stroke-width="2" fill="#5e5e5e"/><path d="M1469-2316.58l-.03-1.45-.15-2.28-.23-2.14-.3-2-.38-1.9-.42-1.78-.5-1.7-.53-1.64-.6-1.56-.65-1.5-.7-1.47-.76-1.4-.8-1.38-.9-1.34-.93-1.32-1-1.3-1.1-1.27-1.17-1.27-1.27-1.25-1.38-1.24-1.5-1.23-1.6-1.22-1.78-1.24-1.95-1.23-2.16-1.23-2.4-1.24-2.67-1.25-3.03-1.26-3.44-1.26-3.95-1.25-4.6-1.24-5.47-1.23-6.6-1.2-8.2-1.12-10.78-1-15.84-.8-8.56-.08" stroke="#5e5e5e" stroke-width="2" stroke-linejoin="round" fill="none"/><path d="M1470.02-2315.58h-2l-.02-1 2-.05z" stroke="#5e5e5e" stroke-width=".05" fill="#5e5e5e"/><path d="M1355.43-2367.04l14.32-4.48-.1 9.27z" stroke="#5e5e5e" stroke-width="2" fill="#5e5e5e"/><path d="M250.42-1827a6 6 0 0 1 6-6h228a6 6 0 0 1 6 6v48a6 6 0 0 1-6 6h-228a6 6 0 0 1-6-6z" stroke="#000" stroke-opacity="0" stroke-width="3" fill="#fff" fill-opacity="0"/><use xlink:href="#z" transform="matrix(1,0,0,1,255.41933214908693,-1827.98862406944) translate(79.87037037037038 31.138888888888886)"/><path d="M429.5-1486.3c0 31.8-25.76 57.62-57.5 57.62s-57.5-25.82-57.5-57.63c0-31.82 25.76-57.64 57.5-57.64s57.5 25.82 57.5 57.63z" fill="#5886b6"/><path d="M314.5-1491.05h115v4.73h-115v-4.73z" fill="#dc8e6c"/><path d="M429.5-1491.04c0 31.8-25.76 57.63-57.5 57.63s-57.5-25.83-57.5-57.64c0-31.8 25.76-57.63 57.5-57.63s57.5 25.82 57.5 57.63z" fill="#6db1ff"/><path d="M409.4-1462.7l-4.48-11.8-9.97 3.83-14.23-37.42-3.97-10.32-1.88-4.9-2.9-7.65h-18.92v12.55h10.26l3.63 9.34-29.76 53.03h14.37l21.16-37.8 15.03 39.4 3.6-1.37 8.1-3.06 9.97-3.83z" fill="#fff"/><g><use xlink:href="#A" transform="matrix(1,0,0,1,314.5,-1428.6692913385823) translate(22.376543209876544 17.77777777777778)"/></g><defs><path fill="#333" d="M182-130c37 4 62 22 62 59C244 23 116-4 24 0v-248c84 5 203-23 205 63 0 31-19 50-47 55zM76-148c40-3 101 13 101-30 0-44-60-28-101-31v61zm0 110c48-3 116 14 116-37 0-48-69-32-116-35v72" id="B"/><path fill="#333" d="M24 0v-248h52v208h133V0H24" id="C"/><path fill="#333" d="M110-194c64 0 96 36 96 99 0 64-35 99-97 99-61 0-95-36-95-99 0-62 34-99 96-99zm-1 164c35 0 45-28 45-65 0-40-10-65-43-65-34 0-45 26-45 65 0 36 10 65 43 65" id="D"/><path fill="#333" d="M67-125c0 53 21 87 73 88 37 1 54-22 65-47l45 17C233-25 199 4 140 4 58 4 20-42 15-125 8-235 124-281 211-232c18 10 29 29 36 50l-46 12c-8-25-30-41-62-41-52 0-71 34-72 86" id="E"/><path fill="#333" d="M169-182c-1-43-94-46-97-3 18 66 151 10 154 114 3 95-165 93-204 36-6-8-10-19-12-30l50-8c3 46 112 56 116 5-17-69-150-10-154-114-4-87 153-88 188-35 5 8 8 18 10 28" id="F"/><path fill="#333" d="M115-3C79 11 28 4 28-45v-112H4v-33h27l15-45h31v45h36v33H77v99c-1 23 16 31 38 25v30" id="G"/><path fill="#333" d="M133-34C117-15 103 5 69 4 32 3 11-16 11-54c-1-60 55-63 116-61 1-26-3-47-28-47-18 1-26 9-28 27l-52-2c7-38 36-58 82-57s74 22 75 68l1 82c-1 14 12 18 25 15v27c-30 8-71 5-69-32zm-48 3c29 0 43-24 42-57-32 0-66-3-65 30 0 17 8 27 23 27" id="H"/><path fill="#333" d="M185-48c-13 30-37 53-82 52C43 2 14-33 14-96s30-98 90-98c62 0 83 45 84 108H66c0 31 8 55 39 56 18 0 30-7 34-22zm-45-69c5-46-57-63-70-21-2 6-4 13-4 21h74" id="I"/><g id="a"><use transform="matrix(0.08641975308641973,0,0,0.08641975308641973,0,0)" xlink:href="#B"/><use transform="matrix(0.08641975308641973,0,0,0.08641975308641973,22.38271604938271,0)" xlink:href="#C"/><use transform="matrix(0.08641975308641973,0,0,0.08641975308641973,41.30864197530863,0)" xlink:href="#D"/><use transform="matrix(0.08641975308641973,0,0,0.08641975308641973,60.234567901234556,0)" xlink:href="#E"/><use transform="matrix(0.08641975308641973,0,0,0.08641975308641973,82.61728395061726,0)" xlink:href="#F"/><use transform="matrix(0.08641975308641973,0,0,0.08641975308641973,103.358024691358,0)" xlink:href="#G"/><use transform="matrix(0.08641975308641973,0,0,0.08641975308641973,113.64197530864195,0)" xlink:href="#H"/><use transform="matrix(0.08641975308641973,0,0,0.08641975308641973,130.9259259259259,0)" xlink:href="#G"/><use transform="matrix(0.08641975308641973,0,0,0.08641975308641973,141.20987654320984,0)" xlink:href="#I"/></g><path fill="#333" d="M238-95c0 69-44 99-111 99C63 4 22-25 22-93v-155h51v151c-1 38 19 59 55 60 90 1 49-130 58-211h52v153" id="J"/><path fill="#333" d="M24 0v-248h52V0H24" id="K"/><g id="b"><use transform="matrix(0.08641975308641973,0,0,0.08641975308641973,0,0)" xlink:href="#J"/><use transform="matrix(0.08641975308641973,0,0,0.08641975308641973,22.38271604938271,0)" xlink:href="#K"/></g><path fill="#333" d="M220-157c-53 9-28 100-34 157h-49v-107c1-27-5-49-29-50C55-147 81-57 75 0H25l-1-190h47c2 12-1 28 3 38 10-53 101-56 108 0 13-22 24-43 59-42 82 1 51 116 57 194h-49v-107c-1-25-5-48-29-50" id="L"/><path fill="#333" d="M135-194c53 0 70 44 70 98 0 56-19 98-73 100-31 1-45-17-59-34 3 33 2 69 2 105H25l-1-265h48c2 10 0 23 3 31 11-24 29-35 60-35zM114-30c33 0 39-31 40-66 0-38-9-64-40-64-56 0-55 130 0 130" id="M"/><path fill="#333" d="M135-194c87-1 58 113 63 194h-50c-7-57 23-157-34-157-59 0-34 97-39 157H25l-1-190h47c2 12-1 28 3 38 12-26 28-41 61-42" id="N"/><g id="c"><use transform="matrix(0.08641975308641973,0,0,0.08641975308641973,0,0)" xlink:href="#E"/><use transform="matrix(0.08641975308641973,0,0,0.08641975308641973,22.38271604938271,0)" xlink:href="#D"/><use transform="matrix(0.08641975308641973,0,0,0.08641975308641973,41.30864197530863,0)" xlink:href="#L"/><use transform="matrix(0.08641975308641973,0,0,0.08641975308641973,68.96296296296295,0)" xlink:href="#M"/><use transform="matrix(0.08641975308641973,0,0,0.08641975308641973,87.88888888888887,0)" xlink:href="#D"/><use transform="matrix(0.08641975308641973,0,0,0.08641975308641973,106.8148148148148,0)" xlink:href="#N"/><use transform="matrix(0.08641975308641973,0,0,0.08641975308641973,125.74074074074072,0)" xlink:href="#I"/><use transform="matrix(0.08641975308641973,0,0,0.08641975308641973,143.02469135802465,0)" xlink:href="#N"/><use transform="matrix(0.08641975308641973,0,0,0.08641975308641973,161.95061728395058,0)" xlink:href="#G"/></g><g id="d"><use transform="matrix(0.08641975308641973,0,0,0.08641975308641973,0,0)" xlink:href="#B"/><use transform="matrix(0.08641975308641973,0,0,0.08641975308641973,22.38271604938271,0)" xlink:href="#C"/><use transform="matrix(0.08641975308641973,0,0,0.08641975308641973,41.30864197530863,0)" xlink:href="#D"/><use transform="matrix(0.08641975308641973,0,0,0.08641975308641973,60.234567901234556,0)" xlink:href="#E"/></g><path fill="#333" d="M25-224v-37h50v37H25zM25 0v-190h50V0H25" id="O"/><path fill="#333" d="M135-150c-39-12-60 13-60 57V0H25l-1-190h47c2 13-1 29 3 40 6-28 27-53 61-41v41" id="P"/><path fill="#333" d="M190-63c-7 42-38 67-86 67-59 0-84-38-90-98-12-110 154-137 174-36l-49 2c-2-19-15-32-35-32-30 0-35 28-38 64-6 74 65 87 74 30" id="Q"/><path fill="#333" d="M137-138c1-29-70-34-71-4 15 46 118 7 119 86 1 83-164 76-172 9l43-7c4 19 20 25 44 25 33 8 57-30 24-41C81-84 22-81 20-136c-2-80 154-74 161-7" id="R"/><g id="e"><use transform="matrix(0.06172839506172839,0,0,0.06172839506172839,0,0)" xlink:href="#O"/><use transform="matrix(0.06172839506172839,0,0,0.06172839506172839,6.172839506172839,0)" xlink:href="#N"/><use transform="matrix(0.06172839506172839,0,0,0.06172839506172839,19.691358024691358,0)" xlink:href="#G"/><use transform="matrix(0.06172839506172839,0,0,0.06172839506172839,27.037037037037038,0)" xlink:href="#I"/><use transform="matrix(0.06172839506172839,0,0,0.06172839506172839,39.382716049382715,0)" xlink:href="#P"/><use transform="matrix(0.06172839506172839,0,0,0.06172839506172839,48.02469135802469,0)" xlink:href="#H"/><use transform="matrix(0.06172839506172839,0,0,0.06172839506172839,60.37037037037037,0)" xlink:href="#Q"/><use transform="matrix(0.06172839506172839,0,0,0.06172839506172839,72.71604938271605,0)" xlink:href="#G"/><use transform="matrix(0.06172839506172839,0,0,0.06172839506172839,80.06172839506173,0)" xlink:href="#R"/></g><path fill="#333" d="M135-194c52 0 70 43 70 98 0 56-19 99-73 100-30 1-46-15-58-35L72 0H24l1-261h50v104c11-23 29-37 60-37zM114-30c31 0 40-27 40-66 0-37-7-63-39-63s-41 28-41 65c0 36 8 64 40 64" id="S"/><path fill="#333" d="M88-194c31-1 46 15 58 34l-1-101h50l1 261h-48c-2-10 0-23-3-31C134-8 116 4 84 4 32 4 16-41 15-95c0-56 19-97 73-99zm17 164c33 0 40-30 41-66 1-37-9-64-41-64s-38 30-39 65c0 43 13 65 39 65" id="T"/><g id="f"><use transform="matrix(0.06172839506172839,0,0,0.06172839506172839,0,0)" xlink:href="#S"/><use transform="matrix(0.06172839506172839,0,0,0.06172839506172839,13.518518518518517,0)" xlink:href="#O"/><use transform="matrix(0.06172839506172839,0,0,0.06172839506172839,19.691358024691358,0)" xlink:href="#N"/><use transform="matrix(0.06172839506172839,0,0,0.06172839506172839,33.20987654320987,0)" xlink:href="#T"/></g><g id="g"><use transform="matrix(0.06172839506172839,0,0,0.06172839506172839,0,0)" xlink:href="#P"/><use transform="matrix(0.06172839506172839,0,0,0.06172839506172839,8.641975308641975,0)" xlink:href="#I"/><use transform="matrix(0.06172839506172839,0,0,0.06172839506172839,20.98765432098765,0)" xlink:href="#N"/><use transform="matrix(0.06172839506172839,0,0,0.06172839506172839,34.50617283950617,0)" xlink:href="#T"/><use transform="matrix(0.06172839506172839,0,0,0.06172839506172839,48.02469135802469,0)" xlink:href="#I"/><use transform="matrix(0.06172839506172839,0,0,0.06172839506172839,60.37037037037037,0)" xlink:href="#P"/></g><path fill="#282c33" d="M115-3C79 11 28 4 28-45v-112H4v-33h27l15-45h31v45h36v33H77v99c-1 23 16 31 38 25v30" id="U"/><path fill="#282c33" d="M114-157C55-157 80-60 75 0H25v-261h50l-1 109c12-26 28-41 61-42 86-1 58 113 63 194h-50c-7-57 23-157-34-157" id="V"/><path fill="#282c33" d="M85 4C-2 5 27-109 22-190h50c7 57-23 150 33 157 60-5 35-97 40-157h50l1 190h-47c-2-12 1-28-3-38-12 25-28 42-61 42" id="W"/><path fill="#282c33" d="M135-194c87-1 58 113 63 194h-50c-7-57 23-157-34-157-59 0-34 97-39 157H25l-1-190h47c2 12-1 28 3 38 12-26 28-41 61-42" id="X"/><path fill="#282c33" d="M147 0L96-86 75-71V0H25v-261h50v150l67-79h53l-66 74L201 0h-54" id="Y"/><path fill="#282c33" d="M67-93c0 74 22 123 53 168H70C40 30 18-18 18-93s22-123 52-168h50c-32 44-53 94-53 168" id="Z"/><path fill="#282c33" d="M137-138c1-29-70-34-71-4 15 46 118 7 119 86 1 83-164 76-172 9l43-7c4 19 20 25 44 25 33 8 57-30 24-41C81-84 22-81 20-136c-2-80 154-74 161-7" id="aa"/><path fill="#282c33" d="M102-93c0 74-22 123-52 168H0C30 29 54-18 53-93c0-74-22-123-53-168h50c30 45 52 94 52 168" id="ab"/><g id="h"><use transform="matrix(0.06172839506172839,0,0,0.06172839506172839,0,0)" xlink:href="#U"/><use transform="matrix(0.06172839506172839,0,0,0.06172839506172839,7.345679012345679,0)" xlink:href="#V"/><use transform="matrix(0.06172839506172839,0,0,0.06172839506172839,20.864197530864196,0)" xlink:href="#W"/><use transform="matrix(0.06172839506172839,0,0,0.06172839506172839,34.382716049382715,0)" xlink:href="#X"/><use transform="matrix(0.06172839506172839,0,0,0.06172839506172839,47.901234567901234,0)" xlink:href="#Y"/><use transform="matrix(0.06172839506172839,0,0,0.06172839506172839,60.24691358024691,0)" xlink:href="#Z"/><use transform="matrix(0.06172839506172839,0,0,0.06172839506172839,67.5925925925926,0)" xlink:href="#aa"/><use transform="matrix(0.06172839506172839,0,0,0.06172839506172839,79.93827160493828,0)" xlink:href="#ab"/></g><path fill="#333" d="M199 0l-22-63H83L61 0H9l90-248h61L250 0h-51zm-33-102l-36-108c-10 38-24 72-36 108h72" id="ac"/><g id="i"><use transform="matrix(0.06172839506172839,0,0,0.06172839506172839,0,0)" xlink:href="#ac"/><use transform="matrix(0.06172839506172839,0,0,0.06172839506172839,15.987654320987653,0)" xlink:href="#Q"/><use transform="matrix(0.06172839506172839,0,0,0.06172839506172839,28.333333333333332,0)" xlink:href="#G"/><use transform="matrix(0.06172839506172839,0,0,0.06172839506172839,35.67901234567901,0)" xlink:href="#O"/><use transform="matrix(0.06172839506172839,0,0,0.06172839506172839,41.851851851851855,0)" xlink:href="#D"/><use transform="matrix(0.06172839506172839,0,0,0.06172839506172839,55.370370370370374,0)" xlink:href="#N"/></g><g id="j"><use transform="matrix(0.06172839506172839,0,0,0.06172839506172839,0,0)" xlink:href="#F"/><use transform="matrix(0.06172839506172839,0,0,0.06172839506172839,14.814814814814813,0)" xlink:href="#G"/><use transform="matrix(0.06172839506172839,0,0,0.06172839506172839,22.160493827160494,0)" xlink:href="#P"/><use transform="matrix(0.06172839506172839,0,0,0.06172839506172839,30.80246913580247,0)" xlink:href="#I"/><use transform="matrix(0.06172839506172839,0,0,0.06172839506172839,43.148148148148145,0)" xlink:href="#H"/><use transform="matrix(0.06172839506172839,0,0,0.06172839506172839,55.49382716049382,0)" xlink:href="#L"/></g><path fill="#333" d="M147 0L96-86 75-71V0H25v-261h50v150l67-79h53l-66 74L201 0h-54" id="ad"/><g id="k"><use transform="matrix(0.06172839506172839,0,0,0.06172839506172839,0,0)" xlink:href="#F"/><use transform="matrix(0.06172839506172839,0,0,0.06172839506172839,14.814814814814813,0)" xlink:href="#O"/><use transform="matrix(0.06172839506172839,0,0,0.06172839506172839,20.98765432098765,0)" xlink:href="#N"/><use transform="matrix(0.06172839506172839,0,0,0.06172839506172839,34.50617283950617,0)" xlink:href="#ad"/></g><g id="l"><use transform="matrix(0.06172839506172839,0,0,0.06172839506172839,0,0)" xlink:href="#F"/><use transform="matrix(0.06172839506172839,0,0,0.06172839506172839,14.814814814814813,0)" xlink:href="#G"/><use transform="matrix(0.06172839506172839,0,0,0.06172839506172839,22.160493827160494,0)" xlink:href="#H"/><use transform="matrix(0.06172839506172839,0,0,0.06172839506172839,34.50617283950617,0)" xlink:href="#G"/><use transform="matrix(0.06172839506172839,0,0,0.06172839506172839,41.85185185185185,0)" xlink:href="#I"/></g><path fill="#333" d="M67-93c0 74 22 123 53 168H70C40 30 18-18 18-93s22-123 52-168h50c-32 44-53 94-53 168" id="ae"/><path fill="#333" d="M102-93c0 74-22 123-52 168H0C30 29 54-18 53-93c0-74-22-123-53-168h50c30 45 52 94 52 168" id="af"/><g id="m"><use transform="matrix(0.06172839506172839,0,0,0.06172839506172839,0,0)" xlink:href="#ac"/><use transform="matrix(0.06172839506172839,0,0,0.06172839506172839,15.987654320987653,0)" xlink:href="#Q"/><use transform="matrix(0.06172839506172839,0,0,0.06172839506172839,28.333333333333332,0)" xlink:href="#G"/><use transform="matrix(0.06172839506172839,0,0,0.06172839506172839,35.67901234567901,0)" xlink:href="#O"/><use transform="matrix(0.06172839506172839,0,0,0.06172839506172839,41.851851851851855,0)" xlink:href="#D"/><use transform="matrix(0.06172839506172839,0,0,0.06172839506172839,55.370370370370374,0)" xlink:href="#N"/><use transform="matrix(0.06172839506172839,0,0,0.06172839506172839,68.88888888888889,0)" xlink:href="#ae"/><use transform="matrix(0.06172839506172839,0,0,0.06172839506172839,76.23456790123457,0)" xlink:href="#R"/><use transform="matrix(0.06172839506172839,0,0,0.06172839506172839,88.58024691358025,0)" xlink:href="#af"/></g><path fill="#333" d="M24-248c93 1 206-16 204 79-1 75-69 88-152 82V0H24v-248zm52 121c47 0 100 7 100-41 0-47-54-39-100-39v80" id="ag"/><path fill="#333" d="M25 0v-261h50V0H25" id="ah"/><g id="n"><use transform="matrix(0.06172839506172839,0,0,0.06172839506172839,0,0)" xlink:href="#ag"/><use transform="matrix(0.06172839506172839,0,0,0.06172839506172839,14.814814814814813,0)" xlink:href="#P"/><use transform="matrix(0.06172839506172839,0,0,0.06172839506172839,23.456790123456788,0)" xlink:href="#D"/><use transform="matrix(0.06172839506172839,0,0,0.06172839506172839,36.9753086419753,0)" xlink:href="#M"/><use transform="matrix(0.06172839506172839,0,0,0.06172839506172839,50.49382716049382,0)" xlink:href="#D"/><use transform="matrix(0.06172839506172839,0,0,0.06172839506172839,64.01234567901234,0)" xlink:href="#R"/><use transform="matrix(0.06172839506172839,0,0,0.06172839506172839,76.35802469135803,0)" xlink:href="#H"/><use transform="matrix(0.06172839506172839,0,0,0.06172839506172839,88.70370370370371,0)" xlink:href="#ah"/></g><path fill="#333" d="M85 4C-2 5 27-109 22-190h50c7 57-23 150 33 157 60-5 35-97 40-157h50l1 190h-47c-2-12 1-28-3-38-12 25-28 42-61 42" id="ai"/><g id="o"><use transform="matrix(0.06172839506172839,0,0,0.06172839506172839,0,0)" xlink:href="#P"/><use transform="matrix(0.06172839506172839,0,0,0.06172839506172839,8.641975308641975,0)" xlink:href="#I"/><use transform="matrix(0.06172839506172839,0,0,0.06172839506172839,20.98765432098765,0)" xlink:href="#T"/><use transform="matrix(0.06172839506172839,0,0,0.06172839506172839,34.50617283950617,0)" xlink:href="#ai"/><use transform="matrix(0.06172839506172839,0,0,0.06172839506172839,48.02469135802469,0)" xlink:href="#Q"/><use transform="matrix(0.06172839506172839,0,0,0.06172839506172839,60.37037037037037,0)" xlink:href="#I"/><use transform="matrix(0.06172839506172839,0,0,0.06172839506172839,72.71604938271605,0)" xlink:href="#P"/><use transform="matrix(0.06172839506172839,0,0,0.06172839506172839,81.35802469135803,0)" xlink:href="#ae"/><use transform="matrix(0.06172839506172839,0,0,0.06172839506172839,88.70370370370371,0)" xlink:href="#R"/><use transform="matrix(0.06172839506172839,0,0,0.06172839506172839,101.0493827160494,0)" xlink:href="#af"/></g><g id="p"><use transform="matrix(0.06172839506172839,0,0,0.06172839506172839,0,0)" xlink:href="#H"/><use transform="matrix(0.06172839506172839,0,0,0.06172839506172839,12.345679012345679,0)" xlink:href="#Q"/><use transform="matrix(0.06172839506172839,0,0,0.06172839506172839,24.691358024691358,0)" xlink:href="#Q"/><use transform="matrix(0.06172839506172839,0,0,0.06172839506172839,37.03703703703704,0)" xlink:href="#I"/><use transform="matrix(0.06172839506172839,0,0,0.06172839506172839,49.382716049382715,0)" xlink:href="#M"/><use transform="matrix(0.06172839506172839,0,0,0.06172839506172839,62.901234567901234,0)" xlink:href="#G"/></g><g id="q"><use transform="matrix(0.06172839506172839,0,0,0.06172839506172839,0,0)" xlink:href="#F"/><use transform="matrix(0.06172839506172839,0,0,0.06172839506172839,14.814814814814813,0)" xlink:href="#O"/><use transform="matrix(0.06172839506172839,0,0,0.06172839506172839,20.98765432098765,0)" xlink:href="#T"/><use transform="matrix(0.06172839506172839,0,0,0.06172839506172839,34.50617283950617,0)" xlink:href="#I"/></g><path fill="#333" d="M24 0v-248h195v40H76v63h132v40H76v65h150V0H24" id="aj"/><path fill="#333" d="M121-226c-27-7-43 5-38 36h38v33H83V0H34v-157H6v-33h28c-9-59 32-81 87-68v32" id="ak"/><g id="r"><use transform="matrix(0.06172839506172839,0,0,0.06172839506172839,0,0)" xlink:href="#aj"/><use transform="matrix(0.06172839506172839,0,0,0.06172839506172839,14.814814814814813,0)" xlink:href="#ak"/><use transform="matrix(0.06172839506172839,0,0,0.06172839506172839,22.160493827160494,0)" xlink:href="#ak"/><use transform="matrix(0.06172839506172839,0,0,0.06172839506172839,29.50617283950617,0)" xlink:href="#I"/><use transform="matrix(0.06172839506172839,0,0,0.06172839506172839,41.85185185185185,0)" xlink:href="#Q"/><use transform="matrix(0.06172839506172839,0,0,0.06172839506172839,54.197530864197525,0)" xlink:href="#G"/><use transform="matrix(0.06172839506172839,0,0,0.06172839506172839,61.5432098765432,0)" xlink:href="#ae"/><use transform="matrix(0.06172839506172839,0,0,0.06172839506172839,68.88888888888889,0)" xlink:href="#R"/><use transform="matrix(0.06172839506172839,0,0,0.06172839506172839,81.23456790123457,0)" xlink:href="#af"/></g><g id="s"><use transform="matrix(0.06172839506172839,0,0,0.06172839506172839,0,0)" xlink:href="#aj"/><use transform="matrix(0.06172839506172839,0,0,0.06172839506172839,14.814814814814813,0)" xlink:href="#ak"/><use transform="matrix(0.06172839506172839,0,0,0.06172839506172839,22.160493827160494,0)" xlink:href="#ak"/><use transform="matrix(0.06172839506172839,0,0,0.06172839506172839,29.50617283950617,0)" xlink:href="#I"/><use transform="matrix(0.06172839506172839,0,0,0.06172839506172839,41.85185185185185,0)" xlink:href="#Q"/><use transform="matrix(0.06172839506172839,0,0,0.06172839506172839,54.197530864197525,0)" xlink:href="#G"/></g><g id="t"><use transform="matrix(0.08641975308641973,0,0,0.08641975308641973,0,0)" xlink:href="#E"/><use transform="matrix(0.08641975308641973,0,0,0.08641975308641973,22.38271604938271,0)" xlink:href="#D"/><use transform="matrix(0.08641975308641973,0,0,0.08641975308641973,41.30864197530863,0)" xlink:href="#N"/><use transform="matrix(0.08641975308641973,0,0,0.08641975308641973,60.234567901234556,0)" xlink:href="#R"/><use transform="matrix(0.08641975308641973,0,0,0.08641975308641973,77.5185185185185,0)" xlink:href="#ai"/><use transform="matrix(0.08641975308641973,0,0,0.08641975308641973,96.44444444444443,0)" xlink:href="#L"/><use transform="matrix(0.08641975308641973,0,0,0.08641975308641973,124.09876543209874,0)" xlink:href="#I"/><use transform="matrix(0.08641975308641973,0,0,0.08641975308641973,141.38271604938268,0)" xlink:href="#P"/></g><g id="u"><use transform="matrix(0.08641975308641973,0,0,0.08641975308641973,0,0)" xlink:href="#F"/><use transform="matrix(0.08641975308641973,0,0,0.08641975308641973,20.740740740740737,0)" xlink:href="#G"/><use transform="matrix(0.08641975308641973,0,0,0.08641975308641973,31.024691358024686,0)" xlink:href="#D"/><use transform="matrix(0.08641975308641973,0,0,0.08641975308641973,49.950617283950606,0)" xlink:href="#M"/><use transform="matrix(0.08641975308641973,0,0,0.08641975308641973,68.87654320987653,0)" xlink:href="#M"/><use transform="matrix(0.08641975308641973,0,0,0.08641975308641973,87.80246913580245,0)" xlink:href="#I"/><use transform="matrix(0.08641975308641973,0,0,0.08641975308641973,105.0864197530864,0)" xlink:href="#T"/></g><g id="v"><use transform="matrix(0.08641975308641973,0,0,0.08641975308641973,0,0)" xlink:href="#F"/><use transform="matrix(0.08641975308641973,0,0,0.08641975308641973,20.740740740740737,0)" xlink:href="#G"/><use transform="matrix(0.08641975308641973,0,0,0.08641975308641973,31.024691358024686,0)" xlink:href="#H"/><use transform="matrix(0.08641975308641973,0,0,0.08641975308641973,48.30864197530863,0)" xlink:href="#P"/><use transform="matrix(0.08641975308641973,0,0,0.08641975308641973,60.4074074074074,0)" xlink:href="#G"/><use transform="matrix(0.08641975308641973,0,0,0.08641975308641973,70.69135802469134,0)" xlink:href="#I"/><use transform="matrix(0.08641975308641973,0,0,0.08641975308641973,87.97530864197529,0)" xlink:href="#T"/></g><path fill="#333" d="M175 0L67-191c6 58 2 128 3 191H24v-248h59L193-55c-6-58-2-129-3-193h46V0h-61" id="al"/><g id="w"><use transform="matrix(0.08641975308641973,0,0,0.08641975308641973,0,0)" xlink:href="#al"/><use transform="matrix(0.08641975308641973,0,0,0.08641975308641973,22.38271604938271,0)" xlink:href="#D"/><use transform="matrix(0.08641975308641973,0,0,0.08641975308641973,41.30864197530863,0)" xlink:href="#G"/></g><g id="x"><use transform="matrix(0.08641975308641973,0,0,0.08641975308641973,0,0)" xlink:href="#F"/><use transform="matrix(0.08641975308641973,0,0,0.08641975308641973,20.740740740740737,0)" xlink:href="#G"/><use transform="matrix(0.08641975308641973,0,0,0.08641975308641973,31.024691358024686,0)" xlink:href="#H"/><use transform="matrix(0.08641975308641973,0,0,0.08641975308641973,48.30864197530863,0)" xlink:href="#P"/><use transform="matrix(0.08641975308641973,0,0,0.08641975308641973,60.4074074074074,0)" xlink:href="#G"/><use transform="matrix(0.08641975308641973,0,0,0.08641975308641973,70.69135802469134,0)" xlink:href="#I"/><use transform="matrix(0.08641975308641973,0,0,0.08641975308641973,87.97530864197529,0)" xlink:href="#T"/></g><path fill="#333" d="M24-248c120-7 223 5 221 122C244-46 201 0 124 0H24v-248zM76-40c74 7 117-18 117-86 0-67-45-88-117-82v168" id="am"/><path fill="#333" d="M123 10C108 53 80 86 19 72V37c35 8 53-11 59-39L3-190h52l48 148c12-52 28-100 44-148h51" id="an"/><g id="y"><use transform="matrix(0.08641975308641973,0,0,0.08641975308641973,0,0)" xlink:href="#am"/><use transform="matrix(0.08641975308641973,0,0,0.08641975308641973,22.38271604938271,0)" xlink:href="#I"/><use transform="matrix(0.08641975308641973,0,0,0.08641975308641973,39.66666666666666,0)" xlink:href="#R"/><use transform="matrix(0.08641975308641973,0,0,0.08641975308641973,56.950617283950606,0)" xlink:href="#G"/><use transform="matrix(0.08641975308641973,0,0,0.08641975308641973,67.23456790123456,0)" xlink:href="#P"/><use transform="matrix(0.08641975308641973,0,0,0.08641975308641973,79.33333333333331,0)" xlink:href="#D"/><use transform="matrix(0.08641975308641973,0,0,0.08641975308641973,98.25925925925924,0)" xlink:href="#an"/><use transform="matrix(0.08641975308641973,0,0,0.08641975308641973,115.54320987654319,0)" xlink:href="#I"/><use transform="matrix(0.08641975308641973,0,0,0.08641975308641973,132.82716049382714,0)" xlink:href="#T"/></g><path fill="#333" d="M147 0H94L2-248h55l64 206c17-72 42-137 63-206h54" id="ao"/><path fill="#333" d="M231 0h-52l-39-155L100 0H48L-1-190h46L77-45c9-52 24-97 36-145h53l37 145 32-145h46" id="ap"/><g id="z"><use transform="matrix(0.08641975308641973,0,0,0.08641975308641973,0,0)" xlink:href="#ao"/><use transform="matrix(0.08641975308641973,0,0,0.08641975308641973,20.1358024691358,0)" xlink:href="#O"/><use transform="matrix(0.08641975308641973,0,0,0.08641975308641973,28.77777777777777,0)" xlink:href="#I"/><use transform="matrix(0.08641975308641973,0,0,0.08641975308641973,46.06172839506172,0)" xlink:href="#ap"/></g><g id="A"><use transform="matrix(0.06172839506172839,0,0,0.06172839506172839,0,0)" xlink:href="#Q"/><use transform="matrix(0.06172839506172839,0,0,0.06172839506172839,12.345679012345679,0)" xlink:href="#D"/><use transform="matrix(0.06172839506172839,0,0,0.06172839506172839,25.864197530864196,0)" xlink:href="#ah"/><use transform="matrix(0.06172839506172839,0,0,0.06172839506172839,32.03703703703704,0)" xlink:href="#ah"/><use transform="matrix(0.06172839506172839,0,0,0.06172839506172839,38.20987654320988,0)" xlink:href="#I"/><use transform="matrix(0.06172839506172839,0,0,0.06172839506172839,50.55555555555556,0)" xlink:href="#Q"/><use transform="matrix(0.06172839506172839,0,0,0.06172839506172839,62.901234567901234,0)" xlink:href="#G"/></g></defs></g></svg>