<svg xmlns="http://www.w3.org/2000/svg" xmlns:xlink="http://www.w3.org/1999/xlink" xmlns:lucid="lucid" width="2729.84" height="960"><g transform="translate(-17.44035536591445 2500)" lucid:page-tab-id="tABjnr-rrWgM"><path d="M0-2517.67h3677.73v1322.84H0z" fill="#fff"/><path d="M1101.05-2474a6 6 0 0 1 6-6h363.36a6 6 0 0 1 6 6v908a6 6 0 0 1-6 6h-363.35a6 6 0 0 1-6-6z" stroke="#5e5e5e" stroke-width="3" fill="#ffeca9"/><path d="M1256.4-2474a6 6 0 0 1 6-6h228a6 6 0 0 1 6 6v53.56a6 6 0 0 1-6 6h-228a6 6 0 0 1-6-6z" stroke="#000" stroke-opacity="0" stroke-width="3" fill="#fff" fill-opacity="0"/><use xlink:href="#a" transform="matrix(1,0,0,1,1261.412549895177,-2475) translate(35.7530864197531 35.388888888888886)"/><path d="M999.3-2089h41.8" stroke="#5e5e5e" stroke-width="2" fill="none"/><path d="M999.33-2088h-1.03v-2h1.03z" stroke="#5e5e5e" stroke-width=".05" fill="#5e5e5e"/><path d="M1056.35-2089l-14.26 4.64v-9.28z" stroke="#5e5e5e" stroke-width="2" fill="#5e5e5e"/><path d="M1253.9-1698.03h-47.94a.5.5 0 0 0-.52.5.5.5 0 0 1-.5.52h-30.46" stroke="#5e5e5e" stroke-width="2" fill="none"/><path d="M1254.9-1697.03h-1v-2h1z" stroke="#5e5e5e" stroke-width=".05" fill="#5e5e5e"/><path d="M1159.2-1697l14.28-4.65v9.27z" stroke="#5e5e5e" stroke-width="2" fill="#5e5e5e"/><path d="M1035.23-1697.18h-46.6" stroke="#5e5e5e" stroke-width="2" fill="none"/><path d="M1036.32-1698.1l-.1 1.1.08.82h-1.1v-2h1.15zM988.67-1696.18h-1.03v-2h1.03z" stroke="#5e5e5e" stroke-width=".05" fill="#5e5e5e"/><path d="M1066.05-2012.33a3.2 3.2 0 0 1-5-2.67v-148a3.2 3.2 0 0 1 5-2.67l110 73.34a4 4 0 0 1 0 6.66z" stroke="#5e5e5e" stroke-width="3" fill="#cfe4ff"/><use xlink:href="#b" transform="matrix(6.123233995736766e-17,-1,1,6.123233995736766e-17,1066.0535262525918,-2014) translate(51.57907407407408 59.02777777777778)"/><path d="M879.5-1731.18a6 6 0 0 1 6-6h94.68a6 6 0 0 1 6 6v74c-17.8-13.36-28.9-13.36-35.63-13.36-10.66 0-24.85 13.36-35.52 13.36-6.6 0-17.8 0-35.52-13.36z" stroke="#5e5e5e" stroke-width="3" fill="#c3f7c8"/><use xlink:href="#c" transform="matrix(1,0,0,1,884.5125518951774,-1732.1804285810008) translate(21.401234567901238 32.02777777777778)"/><path d="M1149.52-1773.68a3.2 3.2 0 0 1 5 2.67v148a3.2 3.2 0 0 1-5 2.66l-110.02-73.34a4 4 0 0 1 0-6.66z" stroke="#5e5e5e" stroke-width="3" fill="#c3f7c8"/><use xlink:href="#d" transform="matrix(6.123233995736766e-17,1,-1,6.123233995736766e-17,1149.5125478951786,-1772.01137593056) translate(37.38154320987655 45.27777777777778)"/><path d="M1256.4-1732.03a6 6 0 0 1 6-6h94.68a6 6 0 0 1 6 6v74c-17.8-13.36-28.9-13.36-35.63-13.36-10.66 0-24.85 13.37-35.52 13.37-6.6 0-17.8 0-35.52-13.36z" stroke="#5e5e5e" stroke-width="3" fill="#c3f7c8"/><use xlink:href="#c" transform="matrix(1,0,0,1,1261.4125498951773,-1733.03412779168) translate(21.401234567901238 32.02777777777778)"/><path d="M1253.9-1698.03h-80.45" stroke="#5e5e5e" stroke-width="2" fill="none"/><path d="M1254.9-1697.03h-1v-2h1z" stroke="#5e5e5e" stroke-width=".05" fill="#5e5e5e"/><path d="M1159.2-1697.2l13.98-5.46.54 9.25z" stroke="#5e5e5e" stroke-width="2" fill="#5e5e5e"/><path d="M890.18-2116a6 6 0 0 1 6-6h94.67a6 6 0 0 1 6 6v74c-17.82-13.36-28.9-13.36-35.63-13.36-10.67 0-24.85 13.36-35.52 13.36-6.6 0-17.8 0-35.52-13.36z" stroke="#5e5e5e" stroke-width="3" fill="#cfe4ff"/><use xlink:href="#e" transform="matrix(1,0,0,1,895.1792185618442,-2116.999999999999) translate(1.0617283950617278 32.02777777777778)"/><path d="M2669.76-2029l-.16 7.75-.54 8.7-.9 8.6-1.28 8.58-1.62 8.5-1.98 8.46-2.35 8.4-2.7 8.33-3.1 8.3-3.45 8.2-3.83 8.16-4.22 8.05-4.6 7.98-5 7.86-5.38 7.73-5.76 7.6-6.16 7.42-6.5 7.24-6.9 7-7.22 6.8-7.56 6.53-7.87 6.23-8.16 5.93-8.42 5.58-8.64 5.23-8.85 4.88-9.02 4.47-9.15 4.08-9.27 3.67-9.36 3.26-9.4 2.84-9.46 2.43-9.46 2-9.45 1.6-9.42 1.2-9.4.8-9.33.38h-9.3l-9.2-.38-9.17-.77-9.1-1.15-.3-.05" stroke="#5e5e5e" stroke-width="2" stroke-linejoin="round" fill="none"/><path d="M2669.8-2030h.52l.47-.04-.04 1.08-2-.04.03-1.06z" stroke="#5e5e5e" stroke-width=".05" fill="#5e5e5e"/><path d="M2391.84-1813.43l14.88-1.86-1.75 9.1z" stroke="#5e5e5e" stroke-width="2" fill="#5e5e5e"/><use xlink:href="#f" transform="matrix(1,0,0,1,2559.7057439010223,-1845.842363999166) translate(0 17.77777777777778)"/><path d="M2727.3-2087.64c0 31.8-25.77 57.63-57.5 57.63-31.75 0-57.5-25.83-57.5-57.64 0-31.8 25.75-57.63 57.5-57.63 31.73 0 57.5 25.82 57.5 57.63z" fill="#5886b6"/><path d="M2612.3-2092.38h115v4.73h-115v-4.73z" fill="#dc8e6c"/><path d="M2727.3-2092.37c0 31.8-25.77 57.63-57.5 57.63-31.75 0-57.5-25.82-57.5-57.63 0-31.8 25.75-57.63 57.5-57.63 31.73 0 57.5 25.82 57.5 57.63z" fill="#6db1ff"/><path d="M2707.18-2064.04l-4.48-11.8-9.96 3.84-14.23-37.42-3.97-10.33-1.87-4.9-2.9-7.65h-18.93v12.55h10.27l3.6 9.34-29.75 53.02h14.38l21.16-37.8 15 39.4 3.63-1.37 8.1-3.06 9.95-3.84z" fill="#fff"/><path d="M2049.05-2379.47a6 6 0 0 1 6-6h326.52a6 6 0 0 1 6 6v563a6 6 0 0 1-6 6h-326.52a6 6 0 0 1-6-6z" stroke="#5e5e5e" stroke-width="3" fill="#ffeca9"/><path d="M2263.35-2080.6c0 31.8-25.76 57.62-57.5 57.62s-57.5-25.82-57.5-57.63c0-31.82 25.76-57.64 57.5-57.64s57.5 25.82 57.5 57.63z" fill="#5886b6"/><path d="M2148.35-2085.34h115v4.72h-115v-4.72z" fill="#dc8e6c"/><path d="M2263.35-2085.34c0 31.8-25.76 57.63-57.5 57.63s-57.5-25.83-57.5-57.64c0-31.8 25.76-57.63 57.5-57.63s57.5 25.82 57.5 57.63z" fill="#6db1ff"/><path d="M2243.25-2057l-4.48-11.8-9.97 3.83-14.23-37.42-3.97-10.32-1.88-4.9-2.9-7.65h-18.93v12.55h10.26l3.6 9.34-29.75 53.03h14.4l21.15-37.8 15.03 39.4 3.6-1.37 8.1-3.06 9.97-3.83z" fill="#fff"/><use xlink:href="#g" transform="matrix(1,0,0,1,2148.3473340201554,-2022.9683219874973) translate(21.141975308641975 17.77777777777778)"/><path d="M2152.5-1930.16a6 6 0 0 1 6-6h94.68a6 6 0 0 1 6 6v74c-17.8-13.36-28.9-13.36-35.63-13.36-10.66 0-24.85 13.36-35.52 13.36-6.6 0-17.8 0-35.52-13.36z" stroke="#5e5e5e" stroke-width="3" fill="#fff"/><use xlink:href="#h" transform="matrix(1,0,0,1,2157.514000686822,-1931.159914116707) translate(25.69135802469136 17.77777777777778)"/><use xlink:href="#i" transform="matrix(1,0,0,1,2157.514000686822,-1931.159914116707) translate(21.401234567901238 44.44444444444444)"/><path d="M2205.62-2203.2v29.5a.1.1 0 0 0 .1.12.1.1 0 0 1 .13.1v12" stroke="#5e5e5e" stroke-width="2" fill="none"/><path d="M2206.62-2203.17h-2v-.55l2-.96z" stroke="#5e5e5e" stroke-width=".05" fill="#5e5e5e"/><path d="M2205.85-2146.2l-4.64-14.27h9.28z" stroke="#5e5e5e" stroke-width="2" fill="#5e5e5e"/><path d="M2205.85-2001.97v45.84" stroke="#5e5e5e" stroke-width="2" fill="none"/><path d="M2206.85-2001.94h-2v-4.03h2z" stroke="#5e5e5e" stroke-width=".05" fill="#5e5e5e"/><path d="M2205.85-1940.86l-4.64-14.27h9.28z" stroke="#5e5e5e" stroke-width="2" fill="#5e5e5e"/><path d="M2098.3-2367.7a6 6 0 0 1 6-6h228a6 6 0 0 1 6 6v48a6 6 0 0 1-6 6h-228a6 6 0 0 1-6-6z" stroke="#000" stroke-opacity="0" stroke-width="3" fill="#fff" fill-opacity="0"/><use xlink:href="#j" transform="matrix(1,0,0,1,2103.3094826431875,-2368.6916344956035) translate(27.93209876543213 31.13888888888888)"/><path d="M1993.54-2072.97h136.86" stroke="#5e5e5e" stroke-width="2" fill="none"/><path d="M1993.56-2071.97h-1.02v-2h1.02z" stroke="#5e5e5e" stroke-width=".05" fill="#5e5e5e"/><path d="M2145.67-2072.97l-14.27 4.64v-9.27z" stroke="#5e5e5e" stroke-width="2" fill="#5e5e5e"/><path d="M2389.64-2382.1l7.7-1.66 8.7-1.5 8.7-1.12 8.74-.75 8.76-.4h8.78l8.8.34 8.86.73 8.87 1.1 8.9 1.48 8.92 1.88 8.94 2.28 8.94 2.67 8.93 3.1 8.9 3.5 8.87 3.9 8.8 4.35 8.7 4.76 8.6 5.18 8.46 5.6 8.3 6 8.08 6.37 7.87 6.74 7.6 7.1 7.3 7.44 7.02 7.74 6.67 8.02 6.3 8.27 5.94 8.5 5.54 8.7 5.15 8.85 4.73 9 4.32 9.12 3.9 9.22 3.48 9.3 3.07 9.35 2.65 9.4 2.24 9.45 1.83 9.47 1.42 9.5 1.02 9.5.07 1.15" stroke="#5e5e5e" stroke-width="2" stroke-linejoin="round" fill="none"/><path d="M2389.88-2381.13l-.97.2-.2-.86-.43-1.03 1.2-.26z" stroke="#5e5e5e" stroke-width=".05" fill="#5e5e5e"/><path d="M2669.65-2153.23l-5.23-14.06 9.27-.38z" stroke="#5e5e5e" stroke-width="2" fill="#5e5e5e"/><use xlink:href="#k" transform="matrix(1,0,0,1,2572.3132423477846,-2365.514452929655) translate(0 17.77777777777778)"/><path d="M1179.37-2085.88h179.3a.5.5 0 0 0 .5-.5.5.5 0 0 1 .5-.5h161.8" stroke="#5e5e5e" stroke-width="2" fill="none"/><path d="M1179.4-2084.88h-1.96l.25-.17.72-.9.5-.93h.48z" stroke="#5e5e5e" stroke-width=".05" fill="#5e5e5e"/><path d="M1536.72-2086.88l-14.26 4.64v-9.27z" stroke="#5e5e5e" stroke-width="2" fill="#5e5e5e"/><path d="M2156.45-2274.9a6 6 0 0 1 6-6h94.67a6 6 0 0 1 6 6v74c-17.8-13.36-28.9-13.36-35.63-13.36-10.67 0-24.86 13.36-35.53 13.36-6.6 0-17.8 0-35.52-13.36z" stroke="#5e5e5e" stroke-width="3" fill="#fff"/><use xlink:href="#l" transform="matrix(1,0,0,1,2161.451782818394,-2275.901039962008) translate(30.01234567901235 17.77777777777778)"/><use xlink:href="#i" transform="matrix(1,0,0,1,2161.451782818394,-2275.901039962008) translate(21.401234567901238 44.44444444444444)"/><path d="M2218.3-1808v115a6 6 0 0 1-6 6h-71.6" stroke="#5e5e5e" stroke-width="2" fill="none"/><path d="M2219.3-1807.98h-2v-1.03h2z" stroke="#5e5e5e" stroke-width=".05" fill="#5e5e5e"/><path d="M2125.42-1687l14.27-4.65v9.27z" stroke="#5e5e5e" stroke-width="2" fill="#5e5e5e"/><path d="M1749.93-2131.7a6 6 0 0 1 6-6h229.14a6 6 0 0 1 6 6v91.65a6 6 0 0 1-6 6h-229.14a6 6 0 0 1-6-6z" stroke="#5e5e5e" stroke-width="3" fill="#ffeca9"/><path d="M1794.4-2118.63a6 6 0 0 1 6-6h145.33a6 6 0 0 1 6 6v78.58a6 6 0 0 1-6 6H1800.4a6 6 0 0 1-6-6z" stroke="#000" stroke-opacity="0" stroke-width="3" fill="#fff" fill-opacity="0"/><use xlink:href="#m" transform="matrix(1,0,0,1,1799.4034067828036,-2119.62914369848) translate(-10.561728395061706 46.72222222222222)"/><path d="M2122.74-1694.65c0 31.8-25.76 57.63-57.5 57.63s-57.5-25.82-57.5-57.63c0-31.82 25.76-57.63 57.5-57.63s57.5 25.8 57.5 57.63z" fill="#3f9915"/><path d="M2007.74-1699.4h115v4.74h-115v-4.73z" fill="#c3a100"/><path d="M2122.74-1699.38c0 31.8-25.76 57.63-57.5 57.63s-57.5-25.82-57.5-57.63c0-31.8 25.76-57.63 57.5-57.63s57.5 25.8 57.5 57.62z" fill="#54c45e"/><path d="M2102.64-1671.05l-4.48-11.8-9.97 3.84-14.24-37.43-3.97-10.33-1.9-4.9-2.88-7.65h-18.93v12.54h10.26l3.6 9.33-29.75 53.04h14.38l21.17-37.8 15.02 39.4 3.6-1.36 8.1-3.07 9.97-3.82z" fill="#fff"/><use xlink:href="#n" transform="matrix(1,0,0,1,2007.7408975380986,-1637.01137593056) translate(26.049382716049386 17.77777777777778)"/><path d="M1779.15-1721a6 6 0 0 1 6-6h94.66a6 6 0 0 1 6 6v74c-17.8-13.37-28.9-13.37-35.6-13.37-10.68 0-24.87 13.36-35.53 13.36-6.62 0-17.82 0-35.52-13.37z" stroke="#5e5e5e" stroke-width="3" fill="#c3f7c8"/><use xlink:href="#o" transform="matrix(1,0,0,1,1784.1475299186352,-1722.01137593056) translate(16.49382716049383 32.02777777777778)"/><path d="M1776.65-1686.65h-61.78a.18.18 0 0 1-.18-.18.18.18 0 0 0-.2-.18h-44.26" stroke="#5e5e5e" stroke-width="2" fill="none"/><path d="M1777.65-1685.65h-1.03v-2h1.03z" stroke="#5e5e5e" stroke-width=".05" fill="#5e5e5e"/><path d="M1654.97-1687l14.27-4.65v9.27z" stroke="#5e5e5e" stroke-width="2" fill="#5e5e5e"/><path d="M2006.82-1692.68h-59.26-.02v-.02h-41.77" stroke="#5e5e5e" stroke-width="2" fill="none"/><path d="M2007.87-1691.68h-1.08v-2h.97z" stroke="#5e5e5e" stroke-width=".05" fill="#5e5e5e"/><path d="M1890.5-1692.7l14.27-4.64v9.27z" stroke="#5e5e5e" stroke-width="2" fill="#5e5e5e"/><path d="M1541.46-2120.88a6 6 0 0 1 6-6h94.67a6 6 0 0 1 6 6v74c-17.82-13.36-28.9-13.36-35.63-13.36-10.67 0-24.85 13.36-35.52 13.36-6.6 0-17.8 0-35.52-13.36z" stroke="#5e5e5e" stroke-width="3" fill="#cfe4ff"/><use xlink:href="#e" transform="matrix(1,0,0,1,1546.4610507904742,-2121.8782881008874) translate(1.0617283950617278 32.02777777777778)"/><path d="M1650.6-2086.5h79.36" stroke="#5e5e5e" stroke-width="2" fill="none"/><path d="M1650.6-2085.5h-1v-2h1z" stroke="#5e5e5e" stroke-width=".05" fill="#5e5e5e"/><path d="M1745.23-2086.5l-14.27 4.62v-9.27z" stroke="#5e5e5e" stroke-width="2" fill="#5e5e5e"/><path d="M1652.3-1694.65c0 31.8-25.77 57.63-57.5 57.63-31.75 0-57.5-25.82-57.5-57.63 0-31.82 25.75-57.63 57.5-57.63 31.73 0 57.5 25.8 57.5 57.63z" fill="#3f9915"/><path d="M1537.3-1699.4h115v4.74h-115v-4.73z" fill="#c3a100"/><path d="M1652.3-1699.38c0 31.8-25.77 57.63-57.5 57.63-31.75 0-57.5-25.82-57.5-57.63 0-31.8 25.75-57.63 57.5-57.63 31.73 0 57.5 25.8 57.5 57.62z" fill="#54c45e"/><path d="M1632.2-1671.05l-4.5-11.8-9.95 3.84-14.23-37.43-3.98-10.33-1.87-4.9-2.9-7.65h-18.93v12.54h10.27l3.62 9.33-29.76 53.04h14.37l21.17-37.8 15.02 39.4 3.6-1.36 8.1-3.07 9.97-3.82z" fill="#fff"/><use xlink:href="#p" transform="matrix(1,0,0,1,1537.2943841238075,-1637.01137593056) translate(34.691358024691354 17.77777777777778)"/><path d="M1536.37-1692.68h-170.82" stroke="#5e5e5e" stroke-width="2" fill="none"/><path d="M1537.42-1691.68h-1.07v-2h.97zM1365.57-1691.68h-1.02v-2h1.02z" stroke="#5e5e5e" stroke-width=".05" fill="#5e5e5e"/><path d="M93.44-2474a6 6 0 0 1 6-6h701a6 6 0 0 1 6 6v908a6 6 0 0 1-6 6h-701a6 6 0 0 1-6-6z" stroke="#5e5e5e" stroke-width="3" fill="#ffeca9"/><path d="M623.2-2474a6 6 0 0 1 6-6h228a6 6 0 0 1 6 6v40.08a6 6 0 0 1-6 6h-228a6 6 0 0 1-6-6z" stroke="#000" stroke-opacity="0" stroke-width="3" fill="#fff" fill-opacity="0"/><use xlink:href="#q" transform="matrix(1,0,0,1,628.2070240325822,-2474.999999999999) translate(73.69135802469137 27.576388888888886)"/><path d="M176.74-2080h38.75" stroke="#5e5e5e" stroke-width="2" fill="none"/><path d="M176.76-2079h-1.12l.1-1-.1-1h1.12z" stroke="#5e5e5e" stroke-width=".05" fill="#5e5e5e"/><path d="M230.76-2080l-14.27 4.64v-9.28z" stroke="#5e5e5e" stroke-width="2" fill="#5e5e5e"/><path d="M858.04-1697.18h-561.1a6 6 0 0 1-6-6v-308.33M858-1697.18h1.04" stroke="#5e5e5e" stroke-width="2" fill="none"/><path d="M290.94-2026.78l4.64 14.27h-9.27z" stroke="#5e5e5e" stroke-width="2" fill="#5e5e5e"/><path d="M548.86-2082.33h47.23a.17.17 0 0 1 .16.16.17.17 0 0 0 .16.17h29.74" stroke="#5e5e5e" stroke-width="2" fill="none"/><path d="M548.88-2081.33h-1.02v-2h1.02z" stroke="#5e5e5e" stroke-width=".05" fill="#5e5e5e"/><path d="M641.43-2082l-14.27 4.64v-9.28z" stroke="#5e5e5e" stroke-width="2" fill="#5e5e5e"/><path d="M349.24-2083h88" stroke="#5e5e5e" stroke-width="2" fill="none"/><path d="M349.26-2082h-1.1l.06-.58.06-1.42h.98zM438.23-2082h-1.03v-2h1.03z" stroke="#5e5e5e" stroke-width=".05" fill="#5e5e5e"/><path d="M858.04-1697.18H177.4M858-1697.18h1.04" stroke="#5e5e5e" stroke-width="2" fill="none"/><path d="M162.14-1697.18l14.27-4.64v9.27z" stroke="#5e5e5e" stroke-width="2" fill="#5e5e5e"/><path d="M348.44-2087.64c0 31.8-25.76 57.63-57.5 57.63s-57.5-25.83-57.5-57.64c0-31.8 25.76-57.63 57.5-57.63s57.5 25.82 57.5 57.63z" fill="#5886b6"/><path d="M233.44-2092.38h115v4.73h-115v-4.73z" fill="#dc8e6c"/><path d="M348.44-2092.37c0 31.8-25.76 57.63-57.5 57.63s-57.5-25.82-57.5-57.63c0-31.8 25.76-57.63 57.5-57.63s57.5 25.82 57.5 57.63z" fill="#6db1ff"/><path d="M328.34-2064.04l-4.48-11.8-9.97 3.84-14.24-37.42-3.97-10.33-1.9-4.9-2.88-7.65H272v12.55h10.25l3.62 9.34-29.76 53.02h14.38l21.16-37.8 15.03 39.4 3.6-1.37 8.1-3.06 9.97-3.84z" fill="#fff"/><use xlink:href="#r" transform="matrix(1,0,0,1,233.44035536591514,-2029.999999999999) translate(13.858024691358018 17.77777777777778)"/><path d="M152.45-1773.68a3.2 3.2 0 0 1 5 2.67v148a3.2 3.2 0 0 1-5 2.66l-110.02-73.34a4 4 0 0 1 0-6.66z" stroke="#5e5e5e" stroke-width="3" fill="#c3f7c8"/><use xlink:href="#d" transform="matrix(6.123233995736766e-17,1,-1,6.123233995736766e-17,152.44035536591446,-1772.0113759305596) translate(37.38154320987655 45.27777777777778)"/><path d="M62.43-2003.33a3.2 3.2 0 0 1-5-2.67v-148a3.2 3.2 0 0 1 5-2.67l110.02 73.34a4 4 0 0 1 0 6.66z" stroke="#5e5e5e" stroke-width="3" fill="#cfe4ff"/><use xlink:href="#b" transform="matrix(6.123233995736766e-17,-1,1,6.123233995736766e-17,62.44035536591491,-2004.999999999999) translate(51.57907407407408 59.02777777777778)"/><path d="M439.73-2117a6 6 0 0 1 6-6h94.66a6 6 0 0 1 6 6v74c-17.82-13.36-28.9-13.36-35.63-13.36-10.67 0-24.86 13.36-35.52 13.36-6.62 0-17.82 0-35.52-13.36z" stroke="#5e5e5e" stroke-width="3" fill="#cfe4ff"/><use xlink:href="#s" transform="matrix(1,0,0,1,444.72751021128937,-2117.999999999999) translate(0.537037037037031 32.02777777777778)"/><path d="M759.1-2089.64c0 31.8-25.75 57.63-57.5 57.63-31.73 0-57.5-25.83-57.5-57.64 0-31.8 25.77-57.63 57.5-57.63 31.75 0 57.5 25.82 57.5 57.63z" fill="#5886b6"/><path d="M644.1-2094.38h115v4.73h-115v-4.73z" fill="#dc8e6c"/><path d="M759.1-2094.37c0 31.8-25.75 57.63-57.5 57.63-31.73 0-57.5-25.82-57.5-57.63 0-31.8 25.77-57.63 57.5-57.63 31.75 0 57.5 25.82 57.5 57.63z" fill="#6db1ff"/><path d="M739-2066.04l-4.47-11.8-9.97 3.84-14.23-37.42-3.97-10.33-1.88-4.9-2.9-7.65h-18.93v12.55h10.27l3.6 9.34-29.75 53.02h14.38l21.16-37.8 15.04 39.4 3.6-1.37 8.1-3.06 9.97-3.84z" fill="#fff"/><use xlink:href="#t" transform="matrix(1,0,0,1,644.1070220325817,-2031.999999999999) translate(3.302469135802461 17.77777777777778)"/><path d="M877-1697.18H707.6a6 6 0 0 1-6-6v-310.33" stroke="#5e5e5e" stroke-width="2" fill="none"/><path d="M878-1696.18h-1v-2h1z" stroke="#5e5e5e" stroke-width=".05" fill="#5e5e5e"/><path d="M701.6-2028.78l4.64 14.27h-9.27z" stroke="#5e5e5e" stroke-width="2" fill="#5e5e5e"/><path d="M439.73-2351.02a6 6 0 0 1 6-6h94.66a6 6 0 0 1 6 6v74c-17.82-13.36-28.9-13.36-35.63-13.36-10.67 0-24.86 13.36-35.52 13.36-6.62 0-17.82 0-35.52-13.36z" stroke="#5e5e5e" stroke-width="3" fill="#fc9432"/><use xlink:href="#u" transform="matrix(1,0,0,1,444.72751021128937,-2352.0227518611196) translate(25.074074074074076 17.77777777777778)"/><use xlink:href="#v" transform="matrix(1,0,0,1,444.72751021128937,-2352.0227518611196) translate(4.209876543209873 44.44444444444444)"/><path d="M152.45-2393.67a3.2 3.2 0 0 1 5 2.67v148a3.2 3.2 0 0 1-5 2.67l-110.02-73.34a4 4 0 0 1 0-6.66z" stroke="#5e5e5e" stroke-width="3" fill="#fc9432"/><use xlink:href="#d" transform="matrix(6.123233995736766e-17,1,-1,6.123233995736766e-17,152.4403553659149,-2391.999999999999) translate(37.38154320987655 45.27777777777778)"/><path d="M701.6-2153v-158.02a6 6 0 0 0-6-6H548.86" stroke="#5e5e5e" stroke-width="2" fill="none"/><path d="M702.6-2151.96l-1-.04h-.52l-.47.03v-1.06h2zM548.88-2316.02h-1.02v-2h1.02z" stroke="#5e5e5e" stroke-width=".05" fill="#5e5e5e"/><path d="M437.23-2317.02H298.58l-.03.02H177.4" stroke="#5e5e5e" stroke-width="2" fill="none"/><path d="M438.23-2316.02h-1.03v-2h1.03z" stroke="#5e5e5e" stroke-width=".05" fill="#5e5e5e"/><path d="M162.14-2317l14.27-4.64v9.28z" stroke="#5e5e5e" stroke-width="2" fill="#5e5e5e"/><path d="M759.55-2082h128.13" stroke="#5e5e5e" stroke-width="2" fill="none"/><path d="M759.58-2081h-1.16l.26-2h.9zM888.68-2081h-1.03v-2h1.03z" stroke="#5e5e5e" stroke-width=".05" fill="#5e5e5e"/><defs><path fill="#333" d="M182-130c37 4 62 22 62 59C244 23 116-4 24 0v-248c84 5 203-23 205 63 0 31-19 50-47 55zM76-148c40-3 101 13 101-30 0-44-60-28-101-31v61zm0 110c48-3 116 14 116-37 0-48-69-32-116-35v72" id="w"/><path fill="#333" d="M24 0v-248h52v208h133V0H24" id="x"/><path fill="#333" d="M110-194c64 0 96 36 96 99 0 64-35 99-97 99-61 0-95-36-95-99 0-62 34-99 96-99zm-1 164c35 0 45-28 45-65 0-40-10-65-43-65-34 0-45 26-45 65 0 36 10 65 43 65" id="y"/><path fill="#333" d="M67-125c0 53 21 87 73 88 37 1 54-22 65-47l45 17C233-25 199 4 140 4 58 4 20-42 15-125 8-235 124-281 211-232c18 10 29 29 36 50l-46 12c-8-25-30-41-62-41-52 0-71 34-72 86" id="z"/><path fill="#333" d="M169-182c-1-43-94-46-97-3 18 66 151 10 154 114 3 95-165 93-204 36-6-8-10-19-12-30l50-8c3 46 112 56 116 5-17-69-150-10-154-114-4-87 153-88 188-35 5 8 8 18 10 28" id="A"/><path fill="#333" d="M115-3C79 11 28 4 28-45v-112H4v-33h27l15-45h31v45h36v33H77v99c-1 23 16 31 38 25v30" id="B"/><path fill="#333" d="M133-34C117-15 103 5 69 4 32 3 11-16 11-54c-1-60 55-63 116-61 1-26-3-47-28-47-18 1-26 9-28 27l-52-2c7-38 36-58 82-57s74 22 75 68l1 82c-1 14 12 18 25 15v27c-30 8-71 5-69-32zm-48 3c29 0 43-24 42-57-32 0-66-3-65 30 0 17 8 27 23 27" id="C"/><path fill="#333" d="M185-48c-13 30-37 53-82 52C43 2 14-33 14-96s30-98 90-98c62 0 83 45 84 108H66c0 31 8 55 39 56 18 0 30-7 34-22zm-45-69c5-46-57-63-70-21-2 6-4 13-4 21h74" id="D"/><g id="a"><use transform="matrix(0.08641975308641973,0,0,0.08641975308641973,0,0)" xlink:href="#w"/><use transform="matrix(0.08641975308641973,0,0,0.08641975308641973,22.38271604938271,0)" xlink:href="#x"/><use transform="matrix(0.08641975308641973,0,0,0.08641975308641973,41.30864197530863,0)" xlink:href="#y"/><use transform="matrix(0.08641975308641973,0,0,0.08641975308641973,60.234567901234556,0)" xlink:href="#z"/><use transform="matrix(0.08641975308641973,0,0,0.08641975308641973,82.61728395061726,0)" xlink:href="#A"/><use transform="matrix(0.08641975308641973,0,0,0.08641975308641973,103.358024691358,0)" xlink:href="#B"/><use transform="matrix(0.08641975308641973,0,0,0.08641975308641973,113.64197530864195,0)" xlink:href="#C"/><use transform="matrix(0.08641975308641973,0,0,0.08641975308641973,130.9259259259259,0)" xlink:href="#B"/><use transform="matrix(0.08641975308641973,0,0,0.08641975308641973,141.20987654320984,0)" xlink:href="#D"/></g><path fill="#333" d="M25-224v-37h50v37H25zM25 0v-190h50V0H25" id="E"/><path fill="#333" d="M135-194c87-1 58 113 63 194h-50c-7-57 23-157-34-157-59 0-34 97-39 157H25l-1-190h47c2 12-1 28 3 38 12-26 28-41 61-42" id="F"/><path fill="#333" d="M147 0L96-86 75-71V0H25v-261h50v150l67-79h53l-66 74L201 0h-54" id="G"/><g id="b"><use transform="matrix(0.06172839506172839,0,0,0.06172839506172839,0,0)" xlink:href="#A"/><use transform="matrix(0.06172839506172839,0,0,0.06172839506172839,14.814814814814813,0)" xlink:href="#E"/><use transform="matrix(0.06172839506172839,0,0,0.06172839506172839,20.98765432098765,0)" xlink:href="#F"/><use transform="matrix(0.06172839506172839,0,0,0.06172839506172839,34.50617283950617,0)" xlink:href="#G"/></g><g id="c"><use transform="matrix(0.06172839506172839,0,0,0.06172839506172839,0,0)" xlink:href="#A"/><use transform="matrix(0.06172839506172839,0,0,0.06172839506172839,14.814814814814813,0)" xlink:href="#B"/><use transform="matrix(0.06172839506172839,0,0,0.06172839506172839,22.160493827160494,0)" xlink:href="#C"/><use transform="matrix(0.06172839506172839,0,0,0.06172839506172839,34.50617283950617,0)" xlink:href="#B"/><use transform="matrix(0.06172839506172839,0,0,0.06172839506172839,41.85185185185185,0)" xlink:href="#D"/></g><path fill="#333" d="M135-150c-39-12-60 13-60 57V0H25l-1-190h47c2 13-1 29 3 40 6-28 27-53 61-41v41" id="H"/><path fill="#333" d="M220-157c-53 9-28 100-34 157h-49v-107c1-27-5-49-29-50C55-147 81-57 75 0H25l-1-190h47c2 12-1 28 3 38 10-53 101-56 108 0 13-22 24-43 59-42 82 1 51 116 57 194h-49v-107c-1-25-5-48-29-50" id="I"/><g id="d"><use transform="matrix(0.06172839506172839,0,0,0.06172839506172839,0,0)" xlink:href="#A"/><use transform="matrix(0.06172839506172839,0,0,0.06172839506172839,14.814814814814813,0)" xlink:href="#B"/><use transform="matrix(0.06172839506172839,0,0,0.06172839506172839,22.160493827160494,0)" xlink:href="#H"/><use transform="matrix(0.06172839506172839,0,0,0.06172839506172839,30.80246913580247,0)" xlink:href="#D"/><use transform="matrix(0.06172839506172839,0,0,0.06172839506172839,43.148148148148145,0)" xlink:href="#C"/><use transform="matrix(0.06172839506172839,0,0,0.06172839506172839,55.49382716049382,0)" xlink:href="#I"/></g><path fill="#333" d="M24-248c93 1 206-16 204 79-1 75-69 88-152 82V0H24v-248zm52 121c47 0 100 7 100-41 0-47-54-39-100-39v80" id="J"/><path fill="#333" d="M135-194c53 0 70 44 70 98 0 56-19 98-73 100-31 1-45-17-59-34 3 33 2 69 2 105H25l-1-265h48c2 10 0 23 3 31 11-24 29-35 60-35zM114-30c33 0 39-31 40-66 0-38-9-64-40-64-56 0-55 130 0 130" id="K"/><path fill="#333" d="M137-138c1-29-70-34-71-4 15 46 118 7 119 86 1 83-164 76-172 9l43-7c4 19 20 25 44 25 33 8 57-30 24-41C81-84 22-81 20-136c-2-80 154-74 161-7" id="L"/><path fill="#333" d="M25 0v-261h50V0H25" id="M"/><g id="e"><use transform="matrix(0.06172839506172839,0,0,0.06172839506172839,0,0)" xlink:href="#J"/><use transform="matrix(0.06172839506172839,0,0,0.06172839506172839,14.814814814814813,0)" xlink:href="#H"/><use transform="matrix(0.06172839506172839,0,0,0.06172839506172839,23.456790123456788,0)" xlink:href="#y"/><use transform="matrix(0.06172839506172839,0,0,0.06172839506172839,36.9753086419753,0)" xlink:href="#K"/><use transform="matrix(0.06172839506172839,0,0,0.06172839506172839,50.49382716049382,0)" xlink:href="#y"/><use transform="matrix(0.06172839506172839,0,0,0.06172839506172839,64.01234567901234,0)" xlink:href="#L"/><use transform="matrix(0.06172839506172839,0,0,0.06172839506172839,76.35802469135803,0)" xlink:href="#C"/><use transform="matrix(0.06172839506172839,0,0,0.06172839506172839,88.70370370370371,0)" xlink:href="#M"/></g><path fill="#333" d="M238-95c0 69-44 99-111 99C63 4 22-25 22-93v-155h51v151c-1 38 19 59 55 60 90 1 49-130 58-211h52v153" id="N"/><path fill="#333" d="M88-194c31-1 46 15 58 34l-1-101h50l1 261h-48c-2-10 0-23-3-31C134-8 116 4 84 4 32 4 16-41 15-95c0-56 19-97 73-99zm17 164c33 0 40-30 41-66 1-37-9-64-41-64s-38 30-39 65c0 43 13 65 39 65" id="O"/><g id="f"><use transform="matrix(0.06172839506172839,0,0,0.06172839506172839,0,0)" xlink:href="#N"/><use transform="matrix(0.06172839506172839,0,0,0.06172839506172839,15.987654320987653,0)" xlink:href="#K"/><use transform="matrix(0.06172839506172839,0,0,0.06172839506172839,29.50617283950617,0)" xlink:href="#O"/><use transform="matrix(0.06172839506172839,0,0,0.06172839506172839,43.02469135802469,0)" xlink:href="#C"/><use transform="matrix(0.06172839506172839,0,0,0.06172839506172839,55.37037037037037,0)" xlink:href="#B"/><use transform="matrix(0.06172839506172839,0,0,0.06172839506172839,62.716049382716044,0)" xlink:href="#D"/></g><path fill="#333" d="M85 4C-2 5 27-109 22-190h50c7 57-23 150 33 157 60-5 35-97 40-157h50l1 190h-47c-2-12 1-28-3-38-12 25-28 42-61 42" id="P"/><path fill="#333" d="M190-63c-7 42-38 67-86 67-59 0-84-38-90-98-12-110 154-137 174-36l-49 2c-2-19-15-32-35-32-30 0-35 28-38 64-6 74 65 87 74 30" id="Q"/><g id="g"><use transform="matrix(0.06172839506172839,0,0,0.06172839506172839,0,0)" xlink:href="#H"/><use transform="matrix(0.06172839506172839,0,0,0.06172839506172839,8.641975308641975,0)" xlink:href="#D"/><use transform="matrix(0.06172839506172839,0,0,0.06172839506172839,20.98765432098765,0)" xlink:href="#O"/><use transform="matrix(0.06172839506172839,0,0,0.06172839506172839,34.50617283950617,0)" xlink:href="#P"/><use transform="matrix(0.06172839506172839,0,0,0.06172839506172839,48.02469135802469,0)" xlink:href="#Q"/><use transform="matrix(0.06172839506172839,0,0,0.06172839506172839,60.37037037037037,0)" xlink:href="#D"/></g><path fill="#333" d="M175 0L67-191c6 58 2 128 3 191H24v-248h59L193-55c-6-58-2-129-3-193h46V0h-61" id="R"/><path fill="#333" d="M231 0h-52l-39-155L100 0H48L-1-190h46L77-45c9-52 24-97 36-145h53l37 145 32-145h46" id="S"/><g id="h"><use transform="matrix(0.06172839506172839,0,0,0.06172839506172839,0,0)" xlink:href="#R"/><use transform="matrix(0.06172839506172839,0,0,0.06172839506172839,15.987654320987653,0)" xlink:href="#D"/><use transform="matrix(0.06172839506172839,0,0,0.06172839506172839,28.333333333333332,0)" xlink:href="#S"/></g><g id="i"><use transform="matrix(0.06172839506172839,0,0,0.06172839506172839,0,0)" xlink:href="#A"/><use transform="matrix(0.06172839506172839,0,0,0.06172839506172839,14.814814814814813,0)" xlink:href="#B"/><use transform="matrix(0.06172839506172839,0,0,0.06172839506172839,22.160493827160494,0)" xlink:href="#C"/><use transform="matrix(0.06172839506172839,0,0,0.06172839506172839,34.50617283950617,0)" xlink:href="#B"/><use transform="matrix(0.06172839506172839,0,0,0.06172839506172839,41.85185185185185,0)" xlink:href="#D"/></g><path fill="#333" d="M240-174c0 40-23 61-54 70L253 0h-59l-57-94H76V0H24v-248c93 4 217-23 216 74zM76-134c48-2 112 12 112-38 0-48-66-32-112-35v73" id="T"/><path fill="#333" d="M144 0l-44-69L55 0H2l70-98-66-92h53l41 62 40-62h54l-67 91 71 99h-54" id="U"/><g id="j"><use transform="matrix(0.0864197530864197,0,0,0.0864197530864197,0,0)" xlink:href="#T"/><use transform="matrix(0.0864197530864197,0,0,0.0864197530864197,22.382716049382704,0)" xlink:href="#D"/><use transform="matrix(0.0864197530864197,0,0,0.0864197530864197,39.66666666666664,0)" xlink:href="#O"/><use transform="matrix(0.0864197530864197,0,0,0.0864197530864197,58.59259259259256,0)" xlink:href="#P"/><use transform="matrix(0.0864197530864197,0,0,0.0864197530864197,77.51851851851848,0)" xlink:href="#U"/><use transform="matrix(0.0864197530864197,0,0,0.0864197530864197,94.80246913580241,0)" xlink:href="#A"/><use transform="matrix(0.0864197530864197,0,0,0.0864197530864197,115.54320987654317,0)" xlink:href="#B"/><use transform="matrix(0.0864197530864197,0,0,0.0864197530864197,125.82716049382711,0)" xlink:href="#y"/><use transform="matrix(0.0864197530864197,0,0,0.0864197530864197,144.75308641975303,0)" xlink:href="#H"/><use transform="matrix(0.0864197530864197,0,0,0.0864197530864197,156.8518518518518,0)" xlink:href="#D"/></g><g id="k"><use transform="matrix(0.06172839506172839,0,0,0.06172839506172839,0,0)" xlink:href="#T"/><use transform="matrix(0.06172839506172839,0,0,0.06172839506172839,15.987654320987653,0)" xlink:href="#D"/><use transform="matrix(0.06172839506172839,0,0,0.06172839506172839,28.333333333333332,0)" xlink:href="#C"/><use transform="matrix(0.06172839506172839,0,0,0.06172839506172839,40.67901234567901,0)" xlink:href="#O"/></g><path fill="#333" d="M140-251c80 0 125 45 125 126S219 4 139 4C58 4 15-44 15-125s44-126 125-126zm-1 214c52 0 73-35 73-88 0-50-21-86-72-86-52 0-73 35-73 86s22 88 72 88" id="V"/><g id="l"><use transform="matrix(0.06172839506172839,0,0,0.06172839506172839,0,0)" xlink:href="#V"/><use transform="matrix(0.06172839506172839,0,0,0.06172839506172839,17.28395061728395,0)" xlink:href="#M"/><use transform="matrix(0.06172839506172839,0,0,0.06172839506172839,23.456790123456788,0)" xlink:href="#O"/></g><path fill="#333" d="M230 0l2-204L168 0h-37L68-204 70 0H24v-248h70l56 185 57-185h69V0h-46" id="W"/><g id="m"><use transform="matrix(0.08641975308641973,0,0,0.08641975308641973,0,0)" xlink:href="#W"/><use transform="matrix(0.08641975308641973,0,0,0.08641975308641973,25.8395061728395,0)" xlink:href="#E"/><use transform="matrix(0.08641975308641973,0,0,0.08641975308641973,34.481481481481474,0)" xlink:href="#O"/><use transform="matrix(0.08641975308641973,0,0,0.08641975308641973,53.40740740740738,0)" xlink:href="#O"/><use transform="matrix(0.08641975308641973,0,0,0.08641975308641973,72.33333333333331,0)" xlink:href="#M"/><use transform="matrix(0.08641975308641973,0,0,0.08641975308641973,80.97530864197529,0)" xlink:href="#D"/><use transform="matrix(0.08641975308641973,0,0,0.08641975308641973,98.25925925925924,0)" xlink:href="#S"/><use transform="matrix(0.08641975308641973,0,0,0.08641975308641973,122.45679012345677,0)" xlink:href="#C"/><use transform="matrix(0.08641975308641973,0,0,0.08641975308641973,139.7407407407407,0)" xlink:href="#H"/><use transform="matrix(0.08641975308641973,0,0,0.08641975308641973,151.83950617283946,0)" xlink:href="#D"/></g><g id="n"><use transform="matrix(0.06172839506172839,0,0,0.06172839506172839,0,0)" xlink:href="#L"/><use transform="matrix(0.06172839506172839,0,0,0.06172839506172839,12.345679012345679,0)" xlink:href="#D"/><use transform="matrix(0.06172839506172839,0,0,0.06172839506172839,24.691358024691358,0)" xlink:href="#M"/><use transform="matrix(0.06172839506172839,0,0,0.06172839506172839,30.864197530864196,0)" xlink:href="#D"/><use transform="matrix(0.06172839506172839,0,0,0.06172839506172839,43.20987654320987,0)" xlink:href="#Q"/><use transform="matrix(0.06172839506172839,0,0,0.06172839506172839,55.55555555555555,0)" xlink:href="#B"/></g><g id="o"><use transform="matrix(0.06172839506172839,0,0,0.06172839506172839,0,0)" xlink:href="#W"/><use transform="matrix(0.06172839506172839,0,0,0.06172839506172839,18.456790123456788,0)" xlink:href="#y"/><use transform="matrix(0.06172839506172839,0,0,0.06172839506172839,31.9753086419753,0)" xlink:href="#O"/><use transform="matrix(0.06172839506172839,0,0,0.06172839506172839,45.49382716049382,0)" xlink:href="#D"/><use transform="matrix(0.06172839506172839,0,0,0.06172839506172839,57.8395061728395,0)" xlink:href="#M"/></g><g id="p"><use transform="matrix(0.06172839506172839,0,0,0.06172839506172839,0,0)" xlink:href="#I"/><use transform="matrix(0.06172839506172839,0,0,0.06172839506172839,19.753086419753085,0)" xlink:href="#C"/><use transform="matrix(0.06172839506172839,0,0,0.06172839506172839,32.098765432098766,0)" xlink:href="#K"/></g><g id="q"><use transform="matrix(0.08641975308641973,0,0,0.08641975308641973,0,0)" xlink:href="#w"/><use transform="matrix(0.08641975308641973,0,0,0.08641975308641973,22.38271604938271,0)" xlink:href="#x"/><use transform="matrix(0.08641975308641973,0,0,0.08641975308641973,41.30864197530863,0)" xlink:href="#y"/><use transform="matrix(0.08641975308641973,0,0,0.08641975308641973,60.234567901234556,0)" xlink:href="#z"/></g><path fill="#333" d="M114-157C55-157 80-60 75 0H25v-261h50l-1 109c12-26 28-41 61-42 86-1 58 113 63 194h-50c-7-57 23-157-34-157" id="X"/><path fill="#333" d="M67-93c0 74 22 123 53 168H70C40 30 18-18 18-93s22-123 52-168h50c-32 44-53 94-53 168" id="Y"/><path fill="#333" d="M102-93c0 74-22 123-52 168H0C30 29 54-18 53-93c0-74-22-123-53-168h50c30 45 52 94 52 168" id="Z"/><g id="r"><use transform="matrix(0.06172839506172839,0,0,0.06172839506172839,0,0)" xlink:href="#B"/><use transform="matrix(0.06172839506172839,0,0,0.06172839506172839,7.345679012345679,0)" xlink:href="#X"/><use transform="matrix(0.06172839506172839,0,0,0.06172839506172839,20.864197530864196,0)" xlink:href="#P"/><use transform="matrix(0.06172839506172839,0,0,0.06172839506172839,34.382716049382715,0)" xlink:href="#F"/><use transform="matrix(0.06172839506172839,0,0,0.06172839506172839,47.901234567901234,0)" xlink:href="#G"/><use transform="matrix(0.06172839506172839,0,0,0.06172839506172839,60.24691358024691,0)" xlink:href="#Y"/><use transform="matrix(0.06172839506172839,0,0,0.06172839506172839,67.5925925925926,0)" xlink:href="#L"/><use transform="matrix(0.06172839506172839,0,0,0.06172839506172839,79.93827160493828,0)" xlink:href="#Z"/></g><path fill="#333" d="M199 0l-22-63H83L61 0H9l90-248h61L250 0h-51zm-33-102l-36-108c-10 38-24 72-36 108h72" id="aa"/><g id="s"><use transform="matrix(0.06172839506172839,0,0,0.06172839506172839,0,0)" xlink:href="#aa"/><use transform="matrix(0.06172839506172839,0,0,0.06172839506172839,15.987654320987653,0)" xlink:href="#Q"/><use transform="matrix(0.06172839506172839,0,0,0.06172839506172839,28.333333333333332,0)" xlink:href="#B"/><use transform="matrix(0.06172839506172839,0,0,0.06172839506172839,35.67901234567901,0)" xlink:href="#E"/><use transform="matrix(0.06172839506172839,0,0,0.06172839506172839,41.851851851851855,0)" xlink:href="#y"/><use transform="matrix(0.06172839506172839,0,0,0.06172839506172839,55.370370370370374,0)" xlink:href="#F"/><use transform="matrix(0.06172839506172839,0,0,0.06172839506172839,68.88888888888889,0)" xlink:href="#Y"/><use transform="matrix(0.06172839506172839,0,0,0.06172839506172839,76.23456790123457,0)" xlink:href="#L"/><use transform="matrix(0.06172839506172839,0,0,0.06172839506172839,88.58024691358025,0)" xlink:href="#Z"/></g><g id="t"><use transform="matrix(0.06172839506172839,0,0,0.06172839506172839,0,0)" xlink:href="#H"/><use transform="matrix(0.06172839506172839,0,0,0.06172839506172839,8.641975308641975,0)" xlink:href="#D"/><use transform="matrix(0.06172839506172839,0,0,0.06172839506172839,20.98765432098765,0)" xlink:href="#O"/><use transform="matrix(0.06172839506172839,0,0,0.06172839506172839,34.50617283950617,0)" xlink:href="#P"/><use transform="matrix(0.06172839506172839,0,0,0.06172839506172839,48.02469135802469,0)" xlink:href="#Q"/><use transform="matrix(0.06172839506172839,0,0,0.06172839506172839,60.37037037037037,0)" xlink:href="#D"/><use transform="matrix(0.06172839506172839,0,0,0.06172839506172839,72.71604938271605,0)" xlink:href="#H"/><use transform="matrix(0.06172839506172839,0,0,0.06172839506172839,81.35802469135803,0)" xlink:href="#Y"/><use transform="matrix(0.06172839506172839,0,0,0.06172839506172839,88.70370370370371,0)" xlink:href="#L"/><use transform="matrix(0.06172839506172839,0,0,0.06172839506172839,101.0493827160494,0)" xlink:href="#Z"/></g><g id="u"><use transform="matrix(0.06172839506172839,0,0,0.06172839506172839,0,0)" xlink:href="#A"/><use transform="matrix(0.06172839506172839,0,0,0.06172839506172839,14.814814814814813,0)" xlink:href="#E"/><use transform="matrix(0.06172839506172839,0,0,0.06172839506172839,20.98765432098765,0)" xlink:href="#O"/><use transform="matrix(0.06172839506172839,0,0,0.06172839506172839,34.50617283950617,0)" xlink:href="#D"/></g><path fill="#333" d="M24 0v-248h195v40H76v63h132v40H76v65h150V0H24" id="ab"/><path fill="#333" d="M121-226c-27-7-43 5-38 36h38v33H83V0H34v-157H6v-33h28c-9-59 32-81 87-68v32" id="ac"/><g id="v"><use transform="matrix(0.06172839506172839,0,0,0.06172839506172839,0,0)" xlink:href="#ab"/><use transform="matrix(0.06172839506172839,0,0,0.06172839506172839,14.814814814814813,0)" xlink:href="#ac"/><use transform="matrix(0.06172839506172839,0,0,0.06172839506172839,22.160493827160494,0)" xlink:href="#ac"/><use transform="matrix(0.06172839506172839,0,0,0.06172839506172839,29.50617283950617,0)" xlink:href="#D"/><use transform="matrix(0.06172839506172839,0,0,0.06172839506172839,41.85185185185185,0)" xlink:href="#Q"/><use transform="matrix(0.06172839506172839,0,0,0.06172839506172839,54.197530864197525,0)" xlink:href="#B"/><use transform="matrix(0.06172839506172839,0,0,0.06172839506172839,61.5432098765432,0)" xlink:href="#Y"/><use transform="matrix(0.06172839506172839,0,0,0.06172839506172839,68.88888888888889,0)" xlink:href="#L"/><use transform="matrix(0.06172839506172839,0,0,0.06172839506172839,81.23456790123457,0)" xlink:href="#Z"/></g></defs></g></svg>