<svg id="svg" version="1.1"
	xmlns="http://www.w3.org/2000/svg"
	xmlns:xlink="http://www.w3.org/1999/xlink" width="400" height="366.92034500253675" viewBox="0, 0, 400,366.92034500253675">
	<g id="svgg">
		<path id="path0" d="M289.904 1.910 C 281.608 6.546,267.718 14.609,267.225 15.074 C 265.710 16.503,268.132 24.348,274.693 39.269 C 275.773 41.725,276.780 44.020,276.931 44.370 C 277.193 44.977,277.169 45.058,276.431 46.095 C 274.851 48.316,271.748 53.837,271.100 55.579 C 271.061 55.682,269.569 55.917,267.783 56.102 C 252.573 57.675,242.401 59.658,240.442 61.431 C 240.076 61.762,239.852 91.099,240.208 92.027 C 240.843 93.683,250.378 95.720,264.942 97.310 C 271.699 98.048,270.974 97.833,271.645 99.303 C 272.555 101.298,274.099 104.026,275.709 106.484 L 277.198 108.758 275.157 113.384 C 269.946 125.197,266.667 134.314,266.667 136.990 C 266.667 138.668,265.545 137.912,282.699 147.802 C 286.550 150.022,290.546 152.295,291.579 152.853 L 293.458 153.867 294.320 153.362 C 296.594 152.030,309.425 136.656,313.546 130.325 L 313.851 129.858 316.946 130.102 C 319.352 130.292,320.726 130.292,323.121 130.103 C 325.879 129.886,326.220 129.894,326.381 130.181 C 328.000 133.074,341.225 149.321,344.280 152.169 C 346.568 154.303,345.570 154.554,354.033 149.716 C 373.111 138.810,373.418 138.612,373.410 137.237 C 373.392 134.196,370.176 125.250,364.511 112.485 L 362.869 108.786 364.428 106.397 C 365.286 105.083,366.668 102.684,367.500 101.065 C 368.333 99.447,369.036 98.094,369.063 98.059 C 369.090 98.023,371.518 97.724,374.459 97.394 C 389.408 95.714,397.937 93.967,399.674 92.230 C 400.202 91.702,400.168 61.910,399.639 61.431 C 397.686 59.664,387.458 57.670,372.298 56.102 C 370.362 55.901,369.018 55.673,368.968 55.537 C 368.547 54.385,365.829 49.462,364.510 47.465 L 362.859 44.964 364.586 41.056 C 371.646 25.083,374.368 16.694,372.983 15.182 C 372.443 14.592,355.739 4.887,349.671 1.638 C 346.894 0.151,346.685 0.088,345.782 0.465 C 344.194 1.129,336.056 10.607,329.324 19.636 C 326.249 23.759,326.083 23.943,325.560 23.800 C 324.849 23.606,315.723 23.598,314.653 23.791 C 313.896 23.927,313.805 23.894,313.492 23.364 C 311.826 20.543,300.336 6.324,296.839 2.754 C 293.828 -0.319,293.881 -0.313,289.904 1.910 M111.863 50.509 C 108.700 51.607,107.781 53.732,106.039 63.969 C 105.074 69.639,103.095 85.039,103.095 86.878 C 103.095 87.083,102.778 87.295,102.232 87.458 C 99.395 88.302,93.362 90.745,89.599 92.573 C 88.371 93.170,87.310 93.685,87.241 93.717 C 87.171 93.749,85.573 92.567,83.689 91.089 C 59.972 72.485,61.652 73.668,58.944 73.668 C 55.462 73.668,47.414 80.265,34.964 93.325 C 21.826 107.107,21.419 108.366,27.656 115.940 C 33.694 123.272,43.431 135.818,43.771 136.705 C 43.821 136.835,43.365 137.933,42.758 139.145 C 40.837 142.982,38.352 148.976,37.532 151.750 C 37.392 152.225,37.169 152.613,37.038 152.613 C 36.906 152.613,32.057 153.347,26.263 154.244 C 20.469 155.142,13.152 156.273,10.003 156.757 C 2.765 157.872,1.510 158.571,0.497 162.056 C -0.062 163.977,0.162 203.751,0.738 204.997 C 2.146 208.041,2.194 208.058,16.134 210.244 C 31.843 212.707,36.809 213.501,36.840 213.553 C 36.853 213.578,37.166 214.465,37.534 215.525 C 38.707 218.899,40.358 222.820,42.248 226.716 L 44.084 230.500 42.194 233.007 C 41.155 234.387,37.509 239.077,34.092 243.430 C 24.843 255.214,24.660 255.481,24.417 257.530 C 24.146 259.819,26.150 262.959,32.254 269.808 C 37.881 276.121,53.958 291.596,55.853 292.522 C 58.047 293.594,60.928 293.408,62.663 292.083 C 63.191 291.680,68.999 287.294,75.570 282.337 L 87.517 273.323 90.283 274.645 C 93.924 276.384,97.328 277.792,100.506 278.875 C 101.929 279.360,103.093 279.819,103.094 279.894 C 103.107 281.351,108.060 312.598,108.383 313.266 C 108.901 314.336,110.339 315.678,111.583 316.253 L 112.532 316.692 133.638 316.692 C 157.485 316.692,155.619 316.818,157.349 315.088 C 159.496 312.941,161.315 303.970,163.383 285.337 C 163.736 282.156,164.037 279.546,164.052 279.537 C 164.067 279.528,165.358 279.085,166.920 278.552 C 170.451 277.348,174.377 275.765,177.538 274.270 L 179.957 273.125 192.064 282.593 C 207.582 294.730,207.496 294.691,212.308 291.598 C 217.784 288.077,233.394 272.703,240.814 263.521 C 243.119 260.669,243.225 260.436,243.226 258.245 C 243.227 255.751,242.899 255.181,238.086 249.312 C 233.494 243.714,228.703 237.592,225.483 233.210 L 223.193 230.093 224.618 227.122 C 226.425 223.356,227.582 220.609,228.821 217.149 C 229.361 215.642,229.809 214.394,229.817 214.376 C 229.833 214.341,241.601 212.496,254.877 210.446 C 264.456 208.967,264.653 208.885,266.137 205.784 L 266.768 204.465 266.768 183.663 L 266.768 162.861 266.200 161.704 C 264.644 158.537,264.756 158.572,247.996 156.053 C 240.573 154.938,233.538 153.881,232.362 153.704 L 230.224 153.382 229.657 151.729 C 228.714 148.981,226.764 144.219,224.932 140.190 L 223.199 136.380 224.171 135.009 C 225.972 132.468,229.380 127.989,234.093 121.969 C 242.248 111.553,242.405 111.319,242.646 109.250 C 243.082 105.513,234.476 95.589,215.292 77.703 C 211.842 74.487,210.725 73.821,208.577 73.700 C 205.830 73.545,207.502 72.453,188.459 86.833 C 183.562 90.531,179.519 93.557,179.475 93.557 C 179.430 93.557,178.486 93.101,177.377 92.545 C 174.377 91.039,169.933 89.179,166.829 88.130 C 165.317 87.619,164.065 87.193,164.048 87.182 C 164.030 87.172,162.904 79.772,161.545 70.736 C 159.800 59.133,158.965 54.094,158.702 53.579 C 158.207 52.608,156.665 51.210,155.490 50.667 L 154.541 50.228 133.739 50.182 C 114.004 50.139,112.883 50.155,111.863 50.509 M323.896 50.628 C 337.613 52.736,347.771 65.617,346.443 79.218 C 343.998 104.260,311.751 112.320,297.833 91.366 C 285.381 72.619,301.638 47.208,323.896 50.628 M141.411 130.778 C 171.609 135.341,191.588 163.978,185.669 194.216 C 181.621 214.899,164.256 231.986,143.489 235.720 C 105.651 242.522,73.906 209.940,81.499 172.095 C 85.880 150.254,105.128 133.019,127.955 130.497 C 130.392 130.228,138.952 130.406,141.411 130.778 M290.545 214.711 C 284.854 217.813,267.355 227.981,267.011 228.387 C 265.728 229.898,268.714 238.985,275.568 254.431 L 277.208 258.127 276.121 259.708 C 274.773 261.667,272.331 265.940,271.600 267.617 C 270.969 269.065,271.773 268.822,265.348 269.512 C 252.867 270.852,243.577 272.625,241.096 274.142 L 240.183 274.700 240.183 290.006 L 240.183 305.311 240.826 305.745 C 242.906 307.146,250.862 308.800,261.695 310.083 C 265.594 310.545,270.679 311.111,270.932 311.111 C 271.024 311.111,271.198 311.408,271.318 311.771 C 271.671 312.841,274.279 317.502,275.797 319.775 L 277.203 321.882 275.284 326.233 C 268.503 341.600,265.720 350.133,266.997 351.640 C 267.484 352.215,292.329 366.620,293.248 366.860 C 294.456 367.176,298.522 362.884,306.167 353.222 C 308.955 349.699,313.371 343.859,313.721 343.233 C 313.835 343.031,314.300 343.018,315.888 343.172 C 318.465 343.422,321.617 343.422,324.193 343.172 C 325.964 343.000,326.238 343.015,326.396 343.298 C 327.171 344.682,336.703 356.894,340.083 360.832 C 342.187 363.284,345.420 366.470,346.082 366.744 C 346.818 367.049,345.883 367.534,357.889 360.624 C 374.604 351.004,373.392 351.813,373.407 350.279 C 373.435 347.410,369.375 336.323,363.694 323.757 L 362.852 321.893 364.052 320.104 C 365.564 317.851,367.112 315.161,368.175 312.938 C 368.629 311.989,369.013 311.196,369.029 311.175 C 369.045 311.154,370.381 310.992,371.998 310.815 C 388.412 309.014,396.899 307.406,399.405 305.622 L 400.000 305.198 400.000 290.083 L 400.000 274.968 399.469 274.476 C 397.750 272.883,388.105 270.947,374.734 269.512 C 368.274 268.818,369.077 269.060,368.430 267.614 C 367.520 265.582,365.760 262.453,364.263 260.207 L 362.866 258.110 364.006 255.539 C 370.143 241.708,373.408 232.706,373.413 229.607 C 373.415 228.249,373.862 228.545,358.397 219.689 C 347.616 213.517,347.020 213.219,346.030 213.516 C 344.484 213.979,336.748 222.867,330.031 231.898 L 326.230 237.007 324.505 236.870 C 322.286 236.693,317.784 236.694,315.576 236.871 L 313.851 237.009 312.034 234.474 C 306.724 227.062,297.135 215.737,294.592 213.873 C 293.525 213.091,293.514 213.093,290.545 214.711 M322.820 263.637 C 341.601 265.731,352.590 287.079,343.132 303.095 C 329.665 325.901,295.303 317.885,293.542 291.527 C 292.478 275.610,306.910 261.863,322.820 263.637 " stroke="none" fill="#ffab00" fill-rule="evenodd"></path>
	</g>
</svg>