<svg id="svg" version="1.1"
	xmlns="http://www.w3.org/2000/svg"
	xmlns:xlink="http://www.w3.org/1999/xlink" width="400" height="355.46875" viewBox="0, 0, 400,355.46875">
	<g id="svgg">
		<path id="path0" d="M161.676 1.473 C 123.308 13.751,123.850 69.448,162.446 80.785 C 168.760 82.639,231.240 82.639,237.554 80.785 C 276.576 69.323,276.329 11.502,237.212 1.086 C 230.496 -0.702,167.464 -0.379,161.676 1.473 M292.969 40.524 L 292.969 54.486 310.352 54.897 C 335.583 55.493,344.652 58.575,356.657 70.638 C 388.493 102.627,369.339 159.612,325.586 163.074 L 320.313 163.491 320.313 150.040 C 320.313 142.518,320.006 136.703,319.618 136.849 C 318.608 137.228,279.688 177.079,279.688 177.734 C 279.688 178.390,318.608 218.241,319.618 218.620 C 320.007 218.766,320.313 212.880,320.313 205.258 L 320.313 191.636 327.539 191.184 C 394.210 187.016,424.646 98.890,376.159 50.403 C 358.409 32.653,340.338 26.612,304.883 26.575 L 292.969 26.563 292.969 40.524 M232.296 29.224 C 233.946 30.043,236.219 32.107,237.347 33.812 C 241.600 40.239,239.165 49.397,232.296 52.808 C 227.690 55.095,172.310 55.095,167.704 52.808 C 156.991 47.489,158.866 30.914,170.483 28.237 C 177.202 26.689,228.851 27.513,232.296 29.224 M161.676 138.192 C 123.232 150.494,124.028 207.343,162.788 217.664 C 169.116 219.349,231.729 219.215,237.554 217.504 C 276.600 206.035,276.353 148.227,237.212 137.805 C 230.496 136.016,167.464 136.339,161.676 138.192 M67.188 164.604 C 9.401 174.318,-19.302 243.055,13.710 292.669 C 27.117 312.818,49.919 326.493,72.461 327.903 L 79.688 328.355 79.688 341.977 C 79.688 349.599,79.993 355.484,80.382 355.339 C 81.392 354.960,120.313 315.108,120.313 314.453 C 120.313 313.798,81.392 273.946,80.382 273.568 C 79.994 273.422,79.688 279.193,79.688 286.654 L 79.688 300.000 75.945 300.000 C 60.469 300.000,41.781 287.646,33.739 272.099 C 17.345 240.407,33.736 202.243,67.578 193.309 C 70.842 192.448,77.545 191.937,89.648 191.626 L 107.031 191.181 107.031 177.622 L 107.031 164.063 88.086 164.169 C 77.666 164.227,68.262 164.423,67.188 164.604 M232.296 165.942 C 240.987 170.258,241.934 182.506,234.035 188.437 C 230.750 190.903,172.443 191.709,167.486 189.357 C 156.963 184.364,159.022 167.597,170.483 164.956 C 177.202 163.407,228.851 164.232,232.296 165.942 M162.990 274.305 C 123.840 283.498,123.687 343.971,162.788 354.383 C 168.580 355.925,231.420 355.925,237.212 354.383 C 276.406 343.947,276.406 284.960,237.212 274.524 C 232.515 273.273,168.192 273.083,162.990 274.305 M232.296 302.661 C 240.987 306.976,241.934 319.225,234.035 325.156 C 230.750 327.622,172.443 328.428,167.486 326.076 C 157.193 321.191,158.925 304.734,170.050 301.719 C 175.962 300.116,228.782 300.916,232.296 302.661 " stroke="none" fill="#43a047" fill-rule="evenodd"></path>
	</g>
</svg>