<svg id="svg" version="1.1"
	xmlns="http://www.w3.org/2000/svg"
	xmlns:xlink="http://www.w3.org/1999/xlink" width="400" height="400" viewBox="0, 0, 400,400">
	<g id="svgg">
		<path id="path0" d="M156.575 4.833 C 83.390 20.709,20.309 84.333,4.700 158.014 C -36.270 351.413,201.029 480.447,340.738 340.738 C 480.887 200.589,350.498 -37.235,156.575 4.833 M237.714 61.286 C 345.164 93.166,379.711 223.278,301.495 301.495 C 211.352 391.637,56.250 327.448,56.250 200.000 C 56.250 106.014,149.141 35.006,237.714 61.286 M185.938 165.321 C 149.141 181.483,159.985 235.938,200.000 235.938 C 245.659 235.938,249.761 168.672,204.396 163.869 C 197.681 163.158,189.375 163.812,185.938 165.321 " stroke="none" fill="#1a237e" fill-rule="evenodd"></path>
	</g>
</svg>