<svg xmlns="http://www.w3.org/2000/svg" xmlns:xlink="http://www.w3.org/1999/xlink" xmlns:lucid="lucid" width="1595.15" height="982.09"><g transform="translate(9.907858746683132 12.379584377125425)" lucid:page-tab-id="Q-R5GCtX2zzO"><path d="M0 0h1870.87v1322.83H0z" fill="#fff"/><path d="M1314.66 185.46c0-3.3 2.7-6 6-6h238.58c3.3 0 6 2.7 6 6V943.7c0 3.33-2.7 6-6 6h-238.58c-3.3 0-6-2.67-6-6z" stroke="#5e5e5e" stroke-width="3" fill="#ffeca9"/><path d="M1365.44 540c0-3.32 2.7-6 6-6h135.8c3.32 0 6 2.68 6 6v36.24c0 3.32-2.68 6-6 6h-135.8c-3.3 0-6-2.68-6-6z" stroke="#000" stroke-opacity="0" stroke-width="3" fill="#fff" fill-opacity="0"/><use xlink:href="#a" transform="matrix(1,0,0,1,1370.4436566946583,538.9983669648184) translate(-10.246913580246897 25.72222222222222)"/><path d="M251.87 185.46c0-3.3 2.7-6 6-6h238.4c3.32 0 6 2.7 6 6v756.5c0 3.32-2.68 6-6 6h-238.4c-3.3 0-6-2.68-6-6z" stroke="#5e5e5e" stroke-width="3" fill="#ffeca9"/><path d="M308.05 541.48c0-3.32 2.68-6 6-6h113.4c3.3 0 6 2.68 6 6v42.76c0 3.32-2.7 6-6 6h-113.4c-3.32 0-6-2.68-6-6z" stroke="#000" stroke-opacity="0" stroke-width="3" fill="#fff" fill-opacity="0"/><use xlink:href="#b" transform="matrix(1,0,0,1,313.0467171555266,540.4778591430106) translate(22.87037037037038 27.701388888888886)"/><path d="M790.5 185.46c0-3.3 2.68-6 6-6h242.78c3.3 0 6 2.7 6 6V943.7c0 3.33-2.7 6-6 6h-242.8c-3.3 0-6-2.67-6-6z" stroke="#5e5e5e" stroke-width="3" fill="#ffeca9"/><path d="M902.42 538.03c0-3.3 2.7-6 6-6h73.76c3.32 0 6 2.7 6 6v40.07c0 3.32-2.68 6-6 6h-73.76c-3.3 0-6-2.68-6-6z" stroke="#000" stroke-opacity="0" stroke-width="3" fill="#fff" fill-opacity="0"/><use xlink:href="#c" transform="matrix(1,0,0,1,907.4220905313705,537.0288866991236) translate(-3.308641975308632 27.72222222222222)"/><path d="M504.78 562h56.3" stroke="#5e5e5e" stroke-width="2" fill="none"/><path d="M504.8 563h-1.02v-2h1.02z" stroke="#5e5e5e" stroke-width=".05" fill="#5e5e5e"/><path d="M576.36 562l-14.27 4.63v-9.27z" stroke="#5e5e5e" stroke-width="2" fill="#5e5e5e"/><path d="M690.26 558.5h30.65c.13 0 .23-.1.23-.22s.1-.2.2-.2h13.16" stroke="#5e5e5e" stroke-width="2" fill="none"/><path d="M690.28 559.5h-1.02v-2h1.02z" stroke="#5e5e5e" stroke-width=".05" fill="#5e5e5e"/><path d="M749.76 558.07l-14.27 4.63v-9.27z" stroke="#5e5e5e" stroke-width="2" fill="#5e5e5e"/><path d="M1220.64 348.42h26.93c.1 0 .16-.07.16-.17s.07-.16.17-.16h9.42" stroke="#5e5e5e" stroke-width="2" fill="none"/><path d="M1220.66 349.42h-1.02v-2h1.02z" stroke="#5e5e5e" stroke-width=".05" fill="#5e5e5e"/><path d="M1272.6 348.1l-14.28 4.62v-9.27z" stroke="#5e5e5e" stroke-width="2" fill="#5e5e5e"/><path d="M1047.78 348.42h43.7" stroke="#5e5e5e" stroke-width="2" fill="none"/><path d="M1047.8 349.42h-1.02v-2h1.02z" stroke="#5e5e5e" stroke-width=".05" fill="#5e5e5e"/><path d="M1106.73 348.42l-14.26 4.63v-9.27z" stroke="#5e5e5e" stroke-width="2" fill="#5e5e5e"/><path d="M85.8 564.08h81.6c.1 0 .18-.08.18-.2 0-.1.08-.17.18-.17h64.1" stroke="#5e5e5e" stroke-width="2" fill="none"/><path d="M85.82 565.08H84.8v-2h1.02z" stroke="#5e5e5e" stroke-width=".05" fill="#5e5e5e"/><path d="M247.13 563.7l-14.26 4.65v-9.27z" stroke="#5e5e5e" stroke-width="2" fill="#5e5e5e"/><use xlink:href="#d" transform="matrix(1,0,0,1,121.36535140951081,533.045439051781) translate(0 17.77777777777778)"/><path d="M1251.57 822.3h-18.48c-.13 0-.22-.1-.22-.2s-.1-.2-.2-.2h-18.5" stroke="#5e5e5e" stroke-width="2" fill="none"/><path d="M1252.47 821.4l.2 1.9h-1.13v-2h1zM1214.22 822.9h-1.03v-2h1.02z" stroke="#5e5e5e" stroke-width=".05" fill="#5e5e5e"/><path d="M1102.53 821.9h-37.25" stroke="#5e5e5e" stroke-width="2" fill="none"/><path d="M1103.53 822.9h-1.03v-2h1.03z" stroke="#5e5e5e" stroke-width=".05" fill="#5e5e5e"/><path d="M1050 821.9l14.28-4.64v9.27z" stroke="#5e5e5e" stroke-width="2" fill="#5e5e5e"/><path d="M581.1 528c0-3.32 2.68-6 6-6h94.66c3.3 0 6 2.68 6 6v74c-17.8-13.36-28.9-13.36-35.63-13.36-10.66 0-24.85 13.36-35.52 13.36-6.6 0-17.8 0-35.5-13.36z" stroke="#5e5e5e" stroke-width="3" fill="#fff"/><use xlink:href="#e" transform="matrix(1,0,0,1,586.0921412533168,526.9983669648184) translate(14.055555555555557 32.02777777777778)"/><path d="M849.5 744.38c2.76-1.83 5-.64 5 2.68v148c0 3.3-2.24 4.5-5 2.67l-110.02-73.35c-2.75-1.83-2.75-4.8 0-6.65z" stroke="#5e5e5e" stroke-width="3" fill="#fff"/><use xlink:href="#f" transform="matrix(6.123233995736766e-17,1,-1,6.123233995736766e-17,849.4921412533167,746.05524661762) translate(37.38154320987655 45.27777777777778)"/><path d="M759.48 634.74c-2.75 1.84-5 .64-5-2.67v-148c0-3.32 2.25-4.5 5-2.68l110.02 73.34c2.76 1.84 2.76 4.82 0 6.65z" stroke="#5e5e5e" stroke-width="3" fill="#fff"/><use xlink:href="#g" transform="matrix(6.123233995736766e-17,-1,1,6.123233995736766e-17,759.4921412533174,633.0666225481804) translate(51.57907407407408 59.02777777777778)"/><path d="M1282.32 428.1c-2.76 1.83-5 .63-5-2.68v-148c0-3.3 2.24-4.5 5-2.67l110 73.34c2.77 1.83 2.77 4.8 0 6.65z" stroke="#5e5e5e" stroke-width="3" fill="#fff"/><use xlink:href="#g" transform="matrix(6.123233995736766e-17,-1,1,6.123233995736766e-17,1282.3261073688511,426.419668244474) translate(51.57907407407408 59.02777777777778)"/><path d="M1105.03 787.9c0-3.32 2.68-6 6-6h94.66c3.3 0 6 2.68 6 6v74c-17.82-13.36-28.9-13.36-35.63-13.36-10.67 0-24.86 13.36-35.52 13.36-6.62 0-17.82 0-35.52-13.36z" stroke="#5e5e5e" stroke-width="3" fill="#fff"/><use xlink:href="#h" transform="matrix(1,0,0,1,1110.0282118387433,786.8976011545726) translate(21.401234567901238 32.02777777777778)"/><path d="M1366.02 745.8c2.75-1.83 5-.64 5 2.68v148c0 3.3-2.25 4.5-5 2.67L1256 825.8c-2.76-1.83-2.76-4.8 0-6.65z" stroke="#5e5e5e" stroke-width="3" fill="#fff"/><use xlink:href="#f" transform="matrix(6.123233995736766e-17,1,-1,6.123233995736766e-17,1366.007860746684,747.4755680966184) translate(37.38154320987655 45.27777777777778)"/><path d="M73.84 508.2c0 10.6-11.92 19.15-26.62 19.15-14.78 0-26.7-8.56-26.7-19.14s11.92-19.13 26.7-19.13c14.7 0 26.62 8.55 26.62 19.14zM24.34 529.23h46.28c14.25 0 14.25 0 14.25 10.3s0 10.3-14.25 10.3H24.34c-14.25 0-14.25 0-14.25-10.3s0-10.3 14.24-10.3z" fill="#29aae1"/><path d="M27.5 546.5h39.37v42.47H27.5V546.5z" fill="#29aae1"/><path d="M27.5 587.38h17.77v46.83H27.5V587.4zM50.37 587.8h16.5v46.12h-16.5v-46.1zM10.24 536.92h13.5v41.03h-13.5v-41.03zM71.14 537.5H84.8v41.03H71.13V537.5z" fill="#29aae1"/><path d="M581.1 787.03c0-3.3 2.68-6 6-6h94.66c3.3 0 6 2.7 6 6v74c-17.8-13.36-28.9-13.36-35.63-13.36-10.66 0-24.85 13.36-35.52 13.36-6.6 0-17.8 0-35.5-13.36z" stroke="#5e5e5e" stroke-width="3" fill="#fff"/><use xlink:href="#h" transform="matrix(1,0,0,1,586.0921412533168,786.0324947564995) translate(21.401234567901238 32.02777777777778)"/><path d="M735.07 821.06h-44.8" stroke="#5e5e5e" stroke-width="2" fill="none"/><path d="M736.2 822.06h-1.15v-2h.9zM690.28 822.06h-1.02v-2h1.02z" stroke="#5e5e5e" stroke-width=".05" fill="#5e5e5e"/><path d="M578.6 821.03h-36.84c-.04 0-.07-.03-.07-.07 0-.04-.05-.08-.1-.08H522.3" stroke="#5e5e5e" stroke-width="2" fill="none"/><path d="M579.6 822.03h-1.03v-2h1.02z" stroke="#5e5e5e" stroke-width=".05" fill="#5e5e5e"/><path d="M507 820.88l14.28-4.63v9.27z" stroke="#5e5e5e" stroke-width="2" fill="#5e5e5e"/><path d="M1111.47 314.42c0-3.3 2.68-6 6-6h94.67c3.3 0 6 2.7 6 6v74c-17.82-13.36-28.9-13.36-35.63-13.36-10.66 0-24.84 13.36-35.5 13.36-6.62 0-17.82 0-35.53-13.36z" stroke="#5e5e5e" stroke-width="3" fill="#fff"/><use xlink:href="#i" transform="matrix(1,0,0,1,1116.468614306537,313.419668244474) translate(1.0617283950617278 32.02777777777778)"/><path d="M849.5 244.4c2.76-1.84 5-.65 5 2.67v148c0 3.3-2.24 4.5-5 2.67L739.48 324.4c-2.75-1.84-2.75-4.82 0-6.66z" stroke="#5e5e5e" stroke-width="3" fill="#fff"/><use xlink:href="#f" transform="matrix(6.123233995736766e-17,1,-1,6.123233995736766e-17,849.4921412533172,246.06662254818048) translate(37.38154320987655 45.27777777777778)"/><path d="M581.1 287.04c0-3.3 2.68-6 6-6h94.66c3.3 0 6 2.7 6 6v74c-17.8-13.36-28.9-13.36-35.63-13.36-10.66 0-24.85 13.36-35.52 13.36-6.6 0-17.8 0-35.5-13.36z" stroke="#5e5e5e" stroke-width="3" fill="#fff"/><use xlink:href="#j" transform="matrix(1,0,0,1,586.0921412533172,286.04387068705955) translate(25.074074074074076 17.77777777777778)"/><use xlink:href="#k" transform="matrix(1,0,0,1,586.0921412533172,286.04387068705955) translate(17.7283950617284 44.44444444444444)"/><path d="M578.6 321.04h-36.85c-.03 0-.06.04-.06.07 0 .05-.05.08-.08.08h-19.34" stroke="#5e5e5e" stroke-width="2" fill="none"/><path d="M579.6 322.04h-1.03v-2h1.02z" stroke="#5e5e5e" stroke-width=".05" fill="#5e5e5e"/><path d="M507 321.18l14.28-4.63v9.27z" stroke="#5e5e5e" stroke-width="2" fill="#5e5e5e"/><path d="M735.07 321.07h-44.8" stroke="#5e5e5e" stroke-width="2" fill="none"/><path d="M736.2 322.07h-1.15v-2h.9zM690.3 322.07h-1.04v-2h1.03z" stroke="#5e5e5e" stroke-width=".05" fill="#5e5e5e"/><path d="M634.43 278.54V97.2" stroke="#5e5e5e" stroke-width="2" fill="none"/><path d="M635.43 279.54h-2v-1.02h2z" stroke="#5e5e5e" stroke-width=".05" fill="#5e5e5e"/><path d="M634.43 81.9l4.63 14.28h-9.27z" stroke="#5e5e5e" stroke-width="2" fill="#5e5e5e"/><path d="M509.25 23.17c0-3.3 2.7-6 6-6h228c3.32 0 6 2.7 6 6v48c0 3.32-2.68 6-6 6h-228c-3.3 0-6-2.68-6-6z" stroke="#5e5e5e" stroke-width="3" fill="#ffeca9"/><path d="M504 13.62c0-3.3 2.7-6 6-6h228c3.33 0 6 2.7 6 6V86.3c0 3.3-2.67 6-6 6H510c-3.3 0-6-2.7-6-6z" stroke="#000" stroke-opacity="0" stroke-width="3" fill="#fff" fill-opacity="0"/><use xlink:href="#l" transform="matrix(1,0,0,1,509.0114734024037,12.620415622874575) translate(38.25925925925928 43.638888888888886)"/><defs><path fill="#333" d="M182-130c37 4 62 22 62 59C244 23 116-4 24 0v-248c84 5 203-23 205 63 0 31-19 50-47 55zM76-148c40-3 101 13 101-30 0-44-60-28-101-31v61zm0 110c48-3 116 14 116-37 0-48-69-32-116-35v72" id="m"/><path fill="#333" d="M24 0v-248h52v208h133V0H24" id="n"/><path fill="#333" d="M110-194c64 0 96 36 96 99 0 64-35 99-97 99-61 0-95-36-95-99 0-62 34-99 96-99zm-1 164c35 0 45-28 45-65 0-40-10-65-43-65-34 0-45 26-45 65 0 36 10 65 43 65" id="o"/><path fill="#333" d="M67-125c0 53 21 87 73 88 37 1 54-22 65-47l45 17C233-25 199 4 140 4 58 4 20-42 15-125 8-235 124-281 211-232c18 10 29 29 36 50l-46 12c-8-25-30-41-62-41-52 0-71 34-72 86" id="p"/><path fill="#333" d="M169-182c-1-43-94-46-97-3 18 66 151 10 154 114 3 95-165 93-204 36-6-8-10-19-12-30l50-8c3 46 112 56 116 5-17-69-150-10-154-114-4-87 153-88 188-35 5 8 8 18 10 28" id="q"/><path fill="#333" d="M115-3C79 11 28 4 28-45v-112H4v-33h27l15-45h31v45h36v33H77v99c-1 23 16 31 38 25v30" id="r"/><path fill="#333" d="M133-34C117-15 103 5 69 4 32 3 11-16 11-54c-1-60 55-63 116-61 1-26-3-47-28-47-18 1-26 9-28 27l-52-2c7-38 36-58 82-57s74 22 75 68l1 82c-1 14 12 18 25 15v27c-30 8-71 5-69-32zm-48 3c29 0 43-24 42-57-32 0-66-3-65 30 0 17 8 27 23 27" id="s"/><path fill="#333" d="M185-48c-13 30-37 53-82 52C43 2 14-33 14-96s30-98 90-98c62 0 83 45 84 108H66c0 31 8 55 39 56 18 0 30-7 34-22zm-45-69c5-46-57-63-70-21-2 6-4 13-4 21h74" id="t"/><g id="a"><use transform="matrix(0.08641975308641973,0,0,0.08641975308641973,0,0)" xlink:href="#m"/><use transform="matrix(0.08641975308641973,0,0,0.08641975308641973,22.38271604938271,0)" xlink:href="#n"/><use transform="matrix(0.08641975308641973,0,0,0.08641975308641973,41.30864197530863,0)" xlink:href="#o"/><use transform="matrix(0.08641975308641973,0,0,0.08641975308641973,60.234567901234556,0)" xlink:href="#p"/><use transform="matrix(0.08641975308641973,0,0,0.08641975308641973,82.61728395061726,0)" xlink:href="#q"/><use transform="matrix(0.08641975308641973,0,0,0.08641975308641973,103.358024691358,0)" xlink:href="#r"/><use transform="matrix(0.08641975308641973,0,0,0.08641975308641973,113.64197530864195,0)" xlink:href="#s"/><use transform="matrix(0.08641975308641973,0,0,0.08641975308641973,130.9259259259259,0)" xlink:href="#r"/><use transform="matrix(0.08641975308641973,0,0,0.08641975308641973,141.20987654320984,0)" xlink:href="#t"/></g><path fill="#333" d="M147 0H94L2-248h55l64 206c17-72 42-137 63-206h54" id="u"/><path fill="#333" d="M25-224v-37h50v37H25zM25 0v-190h50V0H25" id="v"/><path fill="#333" d="M231 0h-52l-39-155L100 0H48L-1-190h46L77-45c9-52 24-97 36-145h53l37 145 32-145h46" id="w"/><g id="b"><use transform="matrix(0.08641975308641973,0,0,0.08641975308641973,0,0)" xlink:href="#u"/><use transform="matrix(0.08641975308641973,0,0,0.08641975308641973,20.1358024691358,0)" xlink:href="#v"/><use transform="matrix(0.08641975308641973,0,0,0.08641975308641973,28.77777777777777,0)" xlink:href="#t"/><use transform="matrix(0.08641975308641973,0,0,0.08641975308641973,46.06172839506172,0)" xlink:href="#w"/></g><g id="c"><use transform="matrix(0.08641975308641973,0,0,0.08641975308641973,0,0)" xlink:href="#m"/><use transform="matrix(0.08641975308641973,0,0,0.08641975308641973,22.38271604938271,0)" xlink:href="#n"/><use transform="matrix(0.08641975308641973,0,0,0.08641975308641973,41.30864197530863,0)" xlink:href="#o"/><use transform="matrix(0.08641975308641973,0,0,0.08641975308641973,60.234567901234556,0)" xlink:href="#p"/></g><path fill="#333" d="M135-194c87-1 58 113 63 194h-50c-7-57 23-157-34-157-59 0-34 97-39 157H25l-1-190h47c2 12-1 28 3 38 12-26 28-41 61-42" id="x"/><path fill="#333" d="M135-150c-39-12-60 13-60 57V0H25l-1-190h47c2 13-1 29 3 40 6-28 27-53 61-41v41" id="y"/><path fill="#333" d="M190-63c-7 42-38 67-86 67-59 0-84-38-90-98-12-110 154-137 174-36l-49 2c-2-19-15-32-35-32-30 0-35 28-38 64-6 74 65 87 74 30" id="z"/><path fill="#333" d="M137-138c1-29-70-34-71-4 15 46 118 7 119 86 1 83-164 76-172 9l43-7c4 19 20 25 44 25 33 8 57-30 24-41C81-84 22-81 20-136c-2-80 154-74 161-7" id="A"/><g id="d"><use transform="matrix(0.06172839506172839,0,0,0.06172839506172839,0,0)" xlink:href="#v"/><use transform="matrix(0.06172839506172839,0,0,0.06172839506172839,6.172839506172839,0)" xlink:href="#x"/><use transform="matrix(0.06172839506172839,0,0,0.06172839506172839,19.691358024691358,0)" xlink:href="#r"/><use transform="matrix(0.06172839506172839,0,0,0.06172839506172839,27.037037037037038,0)" xlink:href="#t"/><use transform="matrix(0.06172839506172839,0,0,0.06172839506172839,39.382716049382715,0)" xlink:href="#y"/><use transform="matrix(0.06172839506172839,0,0,0.06172839506172839,48.02469135802469,0)" xlink:href="#s"/><use transform="matrix(0.06172839506172839,0,0,0.06172839506172839,60.37037037037037,0)" xlink:href="#z"/><use transform="matrix(0.06172839506172839,0,0,0.06172839506172839,72.71604938271605,0)" xlink:href="#r"/><use transform="matrix(0.06172839506172839,0,0,0.06172839506172839,80.06172839506173,0)" xlink:href="#A"/></g><path fill="#333" d="M199 0l-22-63H83L61 0H9l90-248h61L250 0h-51zm-33-102l-36-108c-10 38-24 72-36 108h72" id="B"/><g id="e"><use transform="matrix(0.06172839506172839,0,0,0.06172839506172839,0,0)" xlink:href="#B"/><use transform="matrix(0.06172839506172839,0,0,0.06172839506172839,15.987654320987653,0)" xlink:href="#z"/><use transform="matrix(0.06172839506172839,0,0,0.06172839506172839,28.333333333333332,0)" xlink:href="#r"/><use transform="matrix(0.06172839506172839,0,0,0.06172839506172839,35.67901234567901,0)" xlink:href="#v"/><use transform="matrix(0.06172839506172839,0,0,0.06172839506172839,41.851851851851855,0)" xlink:href="#o"/><use transform="matrix(0.06172839506172839,0,0,0.06172839506172839,55.370370370370374,0)" xlink:href="#x"/></g><path fill="#333" d="M220-157c-53 9-28 100-34 157h-49v-107c1-27-5-49-29-50C55-147 81-57 75 0H25l-1-190h47c2 12-1 28 3 38 10-53 101-56 108 0 13-22 24-43 59-42 82 1 51 116 57 194h-49v-107c-1-25-5-48-29-50" id="C"/><g id="f"><use transform="matrix(0.06172839506172839,0,0,0.06172839506172839,0,0)" xlink:href="#q"/><use transform="matrix(0.06172839506172839,0,0,0.06172839506172839,14.814814814814813,0)" xlink:href="#r"/><use transform="matrix(0.06172839506172839,0,0,0.06172839506172839,22.160493827160494,0)" xlink:href="#y"/><use transform="matrix(0.06172839506172839,0,0,0.06172839506172839,30.80246913580247,0)" xlink:href="#t"/><use transform="matrix(0.06172839506172839,0,0,0.06172839506172839,43.148148148148145,0)" xlink:href="#s"/><use transform="matrix(0.06172839506172839,0,0,0.06172839506172839,55.49382716049382,0)" xlink:href="#C"/></g><path fill="#333" d="M147 0L96-86 75-71V0H25v-261h50v150l67-79h53l-66 74L201 0h-54" id="D"/><g id="g"><use transform="matrix(0.06172839506172839,0,0,0.06172839506172839,0,0)" xlink:href="#q"/><use transform="matrix(0.06172839506172839,0,0,0.06172839506172839,14.814814814814813,0)" xlink:href="#v"/><use transform="matrix(0.06172839506172839,0,0,0.06172839506172839,20.98765432098765,0)" xlink:href="#x"/><use transform="matrix(0.06172839506172839,0,0,0.06172839506172839,34.50617283950617,0)" xlink:href="#D"/></g><g id="h"><use transform="matrix(0.06172839506172839,0,0,0.06172839506172839,0,0)" xlink:href="#q"/><use transform="matrix(0.06172839506172839,0,0,0.06172839506172839,14.814814814814813,0)" xlink:href="#r"/><use transform="matrix(0.06172839506172839,0,0,0.06172839506172839,22.160493827160494,0)" xlink:href="#s"/><use transform="matrix(0.06172839506172839,0,0,0.06172839506172839,34.50617283950617,0)" xlink:href="#r"/><use transform="matrix(0.06172839506172839,0,0,0.06172839506172839,41.85185185185185,0)" xlink:href="#t"/></g><path fill="#333" d="M24-248c93 1 206-16 204 79-1 75-69 88-152 82V0H24v-248zm52 121c47 0 100 7 100-41 0-47-54-39-100-39v80" id="E"/><path fill="#333" d="M135-194c53 0 70 44 70 98 0 56-19 98-73 100-31 1-45-17-59-34 3 33 2 69 2 105H25l-1-265h48c2 10 0 23 3 31 11-24 29-35 60-35zM114-30c33 0 39-31 40-66 0-38-9-64-40-64-56 0-55 130 0 130" id="F"/><path fill="#333" d="M25 0v-261h50V0H25" id="G"/><g id="i"><use transform="matrix(0.06172839506172839,0,0,0.06172839506172839,0,0)" xlink:href="#E"/><use transform="matrix(0.06172839506172839,0,0,0.06172839506172839,14.814814814814813,0)" xlink:href="#y"/><use transform="matrix(0.06172839506172839,0,0,0.06172839506172839,23.456790123456788,0)" xlink:href="#o"/><use transform="matrix(0.06172839506172839,0,0,0.06172839506172839,36.9753086419753,0)" xlink:href="#F"/><use transform="matrix(0.06172839506172839,0,0,0.06172839506172839,50.49382716049382,0)" xlink:href="#o"/><use transform="matrix(0.06172839506172839,0,0,0.06172839506172839,64.01234567901234,0)" xlink:href="#A"/><use transform="matrix(0.06172839506172839,0,0,0.06172839506172839,76.35802469135803,0)" xlink:href="#s"/><use transform="matrix(0.06172839506172839,0,0,0.06172839506172839,88.70370370370371,0)" xlink:href="#G"/></g><path fill="#333" d="M88-194c31-1 46 15 58 34l-1-101h50l1 261h-48c-2-10 0-23-3-31C134-8 116 4 84 4 32 4 16-41 15-95c0-56 19-97 73-99zm17 164c33 0 40-30 41-66 1-37-9-64-41-64s-38 30-39 65c0 43 13 65 39 65" id="H"/><g id="j"><use transform="matrix(0.06172839506172839,0,0,0.06172839506172839,0,0)" xlink:href="#q"/><use transform="matrix(0.06172839506172839,0,0,0.06172839506172839,14.814814814814813,0)" xlink:href="#v"/><use transform="matrix(0.06172839506172839,0,0,0.06172839506172839,20.98765432098765,0)" xlink:href="#H"/><use transform="matrix(0.06172839506172839,0,0,0.06172839506172839,34.50617283950617,0)" xlink:href="#t"/></g><path fill="#333" d="M24 0v-248h195v40H76v63h132v40H76v65h150V0H24" id="I"/><path fill="#333" d="M121-226c-27-7-43 5-38 36h38v33H83V0H34v-157H6v-33h28c-9-59 32-81 87-68v32" id="J"/><g id="k"><use transform="matrix(0.06172839506172839,0,0,0.06172839506172839,0,0)" xlink:href="#I"/><use transform="matrix(0.06172839506172839,0,0,0.06172839506172839,14.814814814814813,0)" xlink:href="#J"/><use transform="matrix(0.06172839506172839,0,0,0.06172839506172839,22.160493827160494,0)" xlink:href="#J"/><use transform="matrix(0.06172839506172839,0,0,0.06172839506172839,29.50617283950617,0)" xlink:href="#t"/><use transform="matrix(0.06172839506172839,0,0,0.06172839506172839,41.85185185185185,0)" xlink:href="#z"/><use transform="matrix(0.06172839506172839,0,0,0.06172839506172839,54.197530864197525,0)" xlink:href="#r"/></g><path fill="#333" d="M85 4C-2 5 27-109 22-190h50c7 57-23 150 33 157 60-5 35-97 40-157h50l1 190h-47c-2-12 1-28-3-38-12 25-28 42-61 42" id="K"/><g id="l"><use transform="matrix(0.08641975308641973,0,0,0.08641975308641973,0,0)" xlink:href="#p"/><use transform="matrix(0.08641975308641973,0,0,0.08641975308641973,22.38271604938271,0)" xlink:href="#o"/><use transform="matrix(0.08641975308641973,0,0,0.08641975308641973,41.30864197530863,0)" xlink:href="#x"/><use transform="matrix(0.08641975308641973,0,0,0.08641975308641973,60.234567901234556,0)" xlink:href="#A"/><use transform="matrix(0.08641975308641973,0,0,0.08641975308641973,77.5185185185185,0)" xlink:href="#K"/><use transform="matrix(0.08641975308641973,0,0,0.08641975308641973,96.44444444444443,0)" xlink:href="#C"/><use transform="matrix(0.08641975308641973,0,0,0.08641975308641973,124.09876543209874,0)" xlink:href="#t"/><use transform="matrix(0.08641975308641973,0,0,0.08641975308641973,141.38271604938268,0)" xlink:href="#y"/></g></defs></g></svg>