<svg xmlns:lucid="lucid" xmlns:xlink="http://www.w3.org/1999/xlink" height="982.09" width="1595.15"
    xmlns="http://www.w3.org/2000/svg">
    <g transform="translate(10.24119208001639 1255.0462510437917)" lucid:page-tab-id="Q-R5GCtX2zzO">
        <path d="M0-1258.83h1870.87V64H0z" fill="#fff" />
        <path
            d="M1314.33-1057.2c0-3.32 2.7-6 6-6h238.58c3.32 0 6 2.68 6 6v758.25c0 3.3-2.68 6-6 6h-238.57c-3.3 0-6-2.7-6-6z"
            fill="#ffeca9" stroke="#5e5e5e" stroke-width="3" />
        <path
            d="M1391.66-1043.84c0-3.32 2.7-6 6-6h135.8c3.3 0 6 2.68 6 6v36.24c0 3.3-2.7 6-6 6h-135.8c-3.3 0-6-2.7-6-6z"
            fill="#fff" fill-opacity="0" stroke="#000" stroke-opacity="0" stroke-width="3" />
        <use
            transform="matrix(1,0,0,1,1396.6594407021846,-1044.8429761947868) translate(-10.246913580246897 25.72222222222222)"
            xlink:href="#a" />
        <path
            d="M251.54-1057.2c0-3.32 2.68-6 6-6h238.4c3.32 0 6 2.68 6 6v756.5c0 3.3-2.68 6-6 6h-238.4c-3.32 0-6-2.7-6-6z"
            fill="#ffeca9" stroke="#5e5e5e" stroke-width="3" />
        <path
            d="M376.55-1047.68c0-3.3 2.7-6 6-6h113.4c3.3 0 6 2.7 6 6v42.77c0 3.3-2.7 6-6 6h-113.4c-3.3 0-6-2.7-6-6z"
            fill="#fff" fill-opacity="0" stroke="#000" stroke-opacity="0" stroke-width="3" />
        <use
            transform="matrix(1,0,0,1,381.5534671490395,-1048.6755158165995) translate(22.87037037037038 27.701388888888886)"
            xlink:href="#b" />
        <path
            d="M790.16-1057.2c0-3.32 2.7-6 6-6h242.78c3.32 0 6 2.68 6 6v758.25c0 3.3-2.68 6-6 6H796.16c-3.3 0-6-2.7-6-6z"
            fill="#ffeca9" stroke="#5e5e5e" stroke-width="3" />
        <path
            d="M941.85-1047.68c0-3.3 2.68-6 6-6h73.76c3.32 0 6 2.7 6 6v40.08c0 3.3-2.68 6-6 6h-73.75c-3.32 0-6-2.7-6-6z"
            fill="#fff" fill-opacity="0" stroke="#000" stroke-opacity="0" stroke-width="3" />
        <use
            transform="matrix(1,0,0,1,946.8457360251879,-1048.6755158165993) translate(-3.308641975308632 27.72222222222222)"
            xlink:href="#c" />
        <path d="M504.44-680.67h56.32" fill="none" stroke="#5e5e5e" stroke-width="2" />
        <path d="M504.47-679.67h-1.03v-2h1.03z" fill="#5e5e5e" stroke="#5e5e5e"
            stroke-width=".05" />
        <path d="M576.02-680.67l-14.26 4.64v-9.27z" fill="#5e5e5e" stroke="#5e5e5e"
            stroke-width="2" />
        <path d="M689.93-684.17h30.65c.12 0 .2-.1.2-.2 0-.13.1-.23.23-.23h13.16" fill="none"
            stroke="#5e5e5e" stroke-width="2" />
        <path d="M689.95-683.17h-1.02v-2h1.02z" fill="#5e5e5e" stroke="#5e5e5e"
            stroke-width=".05" />
        <path d="M749.42-684.6l-14.26 4.64v-9.28z" fill="#5e5e5e" stroke="#5e5e5e"
            stroke-width="2" />
        <path d="M1047.44-686.6h43.7" fill="none" stroke="#5e5e5e" stroke-width="2" />
        <path d="M1047.47-685.6h-1.03v-2h1.03z" fill="#5e5e5e" stroke="#5e5e5e"
            stroke-width=".05" />
        <path d="M1106.4-686.6l-14.27 4.64v-9.28z" fill="#5e5e5e" stroke="#5e5e5e"
            stroke-width="2" />
        <path d="M1220.3-687h54.7" fill="none" stroke="#5e5e5e" stroke-width="2" />
        <path d="M1220.33-686h-1.03v-2h1.03z" fill="#5e5e5e" stroke="#5e5e5e" stroke-width=".05" />
        <path d="M1290.26-687l-14.27 4.64v-9.27z" fill="#5e5e5e" stroke="#5e5e5e"
            stroke-width="2" />
        <path d="M85.46-678.6h146.07" fill="none" stroke="#5e5e5e" stroke-width="2" />
        <path d="M85.48-677.6h-1.02v-2h1.02z" fill="#5e5e5e" stroke="#5e5e5e" stroke-width=".05" />
        <path d="M246.8-678.6l-14.27 4.65v-9.27z" fill="#5e5e5e" stroke="#5e5e5e"
            stroke-width="2" />
        <use
            transform="matrix(1,0,0,1,121.0440014274947,-709.2561830567183) translate(0 17.77777777777778)"
            xlink:href="#d" />
        <path d="M1251.24-420.36h-18.5c-.1 0-.2-.1-.2-.2 0-.12-.08-.2-.2-.2h-18.48" fill="none"
            stroke="#5e5e5e" stroke-width="2" />
        <path d="M1252.13-421.26l.22 1.9h-1.14v-2h1zM1213.9-419.77h-1.04v-2h1.03z" fill="#5e5e5e"
            stroke="#5e5e5e" stroke-width=".05" />
        <path d="M1102.2-420.77h-37.25" fill="none" stroke="#5e5e5e" stroke-width="2" />
        <path d="M1103.2-419.77h-1.03v-2h1.02z" fill="#5e5e5e" stroke="#5e5e5e"
            stroke-width=".05" />
        <path d="M1049.68-420.77l14.27-4.63v9.27z" fill="#5e5e5e" stroke="#5e5e5e"
            stroke-width="2" />
        <path
            d="M580.76-714.67c0-3.3 2.7-6 6-6h94.67c3.3 0 6 2.7 6 6v74c-17.82-13.36-28.9-13.36-35.63-13.36-10.67 0-24.85 13.36-35.52 13.36-6.6 0-17.8 0-35.52-13.36z"
            fill="#fff" stroke="#5e5e5e" stroke-width="3" />
        <use
            transform="matrix(1,0,0,1,585.7588079199835,-715.6682997018481) translate(14.055555555555557 32.02777777777778)"
            xlink:href="#e" />
        <path
            d="M849.17-498.28c2.75-1.84 5-.65 5 2.67v148c0 3.3-2.25 4.5-5 2.66l-110.02-73.34c-2.76-1.84-2.76-4.82 0-6.66z"
            fill="#fff" stroke="#5e5e5e" stroke-width="3" />
        <use
            transform="matrix(6.123233995736766e-17,1,-1,6.123233995736766e-17,849.1588079199835,-496.6114200490465) translate(37.38154320987655 45.27777777777778)"
            xlink:href="#f" />
        <path
            d="M759.15-607.93c-2.76 1.84-5 .64-5-2.67v-148c0-3.3 2.24-4.5 5-2.67l110.02 73.34c2.75 1.84 2.75 4.82 0 6.66z"
            fill="#fff" stroke="#5e5e5e" stroke-width="3" />
        <use
            transform="matrix(6.123233995736766e-17,-1,1,6.123233995736766e-17,759.1588079199839,-609.6000441184863) translate(51.57907407407408 59.02777777777778)"
            xlink:href="#g" />
        <path
            d="M1300-607c-2.77 1.84-5 .65-5-2.67v-148c0-3.3 2.23-4.5 5-2.67L1410-687c2.76 1.84 2.76 4.82 0 6.66z"
            fill="#fff" stroke="#5e5e5e" stroke-width="3" />
        <use
            transform="matrix(6.123233995736766e-17,-1,1,6.123233995736766e-17,1299.9927740355179,-608.6682997018481) translate(51.57907407407408 59.02777777777778)"
            xlink:href="#g" />
        <path
            d="M1104.7-454.77c0-3.3 2.68-6 6-6h94.66c3.32 0 6 2.7 6 6v74c-17.8-13.36-28.9-13.36-35.63-13.36-10.66 0-24.85 13.36-35.52 13.36-6.6 0-17.8 0-35.5-13.36z"
            fill="#fff" stroke="#5e5e5e" stroke-width="3" />
        <use
            transform="matrix(1,0,0,1,1109.69487850541,-455.7690655120939) translate(21.401234567901238 32.02777777777778)"
            xlink:href="#h" />
        <path
            d="M1365.68-496.86c2.76-1.84 5-.64 5 2.67v148c0 3.32-2.24 4.52-5 2.68l-110-73.34c-2.77-1.84-2.77-4.82 0-6.66z"
            fill="#fff" stroke="#5e5e5e" stroke-width="3" />
        <use
            transform="matrix(6.123233995736766e-17,1,-1,6.123233995736766e-17,1365.6745274133502,-495.1910985700481) translate(37.38154320987655 45.27777777777778)"
            xlink:href="#f" />
        <path
            d="M73.5-734.46c0 10.58-11.92 19.14-26.62 19.14-14.77 0-26.7-8.56-26.7-19.14 0-10.6 11.93-19.14 26.7-19.14 14.7 0 26.63 8.55 26.63 19.14zM24-713.44H70.3c14.25 0 14.25 0 14.25 10.3s0 10.3-14.25 10.3H24c-14.24 0-14.24 0-14.24-10.3s0-10.3 14.25-10.3z"
            fill="#29aae1" />
        <path d="M27.16-696.18h39.37v42.48H27.16v-42.48z" fill="#29aae1" />
        <path
            d="M27.16-655.3h17.77v46.84H27.16v-46.83zM50.03-654.86h16.5v46.1h-16.5v-46.1zM9.9-705.75h13.5v41.03H9.9v-41.03zM70.8-705.17h13.66v41.03H70.8v-41.03z"
            fill="#29aae1" />
        <path
            d="M580.76-455.63c0-3.32 2.7-6 6-6h94.67c3.3 0 6 2.68 6 6v74C669.6-395 658.53-395 651.8-395c-10.67 0-24.85 13.37-35.52 13.37-6.6 0-17.8 0-35.52-13.36z"
            fill="#fff" stroke="#5e5e5e" stroke-width="3" />
        <use
            transform="matrix(1,0,0,1,585.7588079199835,-456.63417191016697) translate(21.401234567901238 32.02777777777778)"
            xlink:href="#h" />
        <path d="M734.74-421.6h-44.8" fill="none" stroke="#5e5e5e" stroke-width="2" />
        <path d="M735.85-420.6h-1.14v-2h.93zM689.95-420.6h-1.02v-2h1.02z" fill="#5e5e5e"
            stroke="#5e5e5e" stroke-width=".05" />
        <path d="M578.26-421.63h-36.83c-.05 0-.08-.04-.08-.08 0-.05-.03-.08-.07-.08h-19.33"
            fill="none" stroke="#5e5e5e" stroke-width="2" />
        <path d="M579.26-420.63h-1.03v-2h1.03z" fill="#5e5e5e" stroke="#5e5e5e"
            stroke-width=".05" />
        <path d="M506.68-421.78l14.27-4.64v9.27z" fill="#5e5e5e" stroke="#5e5e5e"
            stroke-width="2" />
        <path
            d="M1111.14-720.6c0-3.3 2.68-6 6-6h94.66c3.32 0 6 2.7 6 6v74c-17.8-13.36-28.9-13.36-35.62-13.36-10.67 0-24.86 13.36-35.52 13.36-6.62 0-17.82 0-35.52-13.36z"
            fill="#fff" stroke="#5e5e5e" stroke-width="3" />
        <use
            transform="matrix(1,0,0,1,1116.1352809732036,-721.6000441184863) translate(1.0617283950617278 32.02777777777778)"
            xlink:href="#i" />
        <path
            d="M849.17-998.27c2.75-1.84 5-.64 5 2.67v148c0 3.3-2.25 4.5-5 2.67l-110.02-73.34c-2.76-1.84-2.76-4.82 0-6.66z"
            fill="#fff" stroke="#5e5e5e" stroke-width="3" />
        <use
            transform="matrix(6.123233995736766e-17,1,-1,6.123233995736766e-17,849.1588079199838,-996.600044118486) translate(37.38154320987655 45.27777777777778)"
            xlink:href="#f" />
        <path
            d="M580.76-955.62c0-3.32 2.7-6 6-6h94.67c3.3 0 6 2.68 6 6v74c-17.82-13.36-28.9-13.36-35.63-13.36-10.67 0-24.85 13.36-35.52 13.36-6.6 0-17.8 0-35.52-13.36z"
            fill="#fff" stroke="#5e5e5e" stroke-width="3" />
        <use
            transform="matrix(1,0,0,1,585.758807919984,-956.622795979607) translate(25.074074074074076 17.77777777777778)"
            xlink:href="#j" />
        <use
            transform="matrix(1,0,0,1,585.758807919984,-956.622795979607) translate(17.7283950617284 44.44444444444444)"
            xlink:href="#k" />
        <path d="M578.26-921.62h-36.84c-.04 0-.07.03-.07.07 0 .04-.03.07-.07.07h-19.33" fill="none"
            stroke="#5e5e5e" stroke-width="2" />
        <path d="M579.26-920.62h-1.03v-2h1.03z" fill="#5e5e5e" stroke="#5e5e5e"
            stroke-width=".05" />
        <path d="M506.68-921.48l14.27-4.64v9.27z" fill="#5e5e5e" stroke="#5e5e5e"
            stroke-width="2" />
        <path d="M734.74-921.6h-44.8" fill="none" stroke="#5e5e5e" stroke-width="2" />
        <path d="M735.85-920.6h-1.14v-2h.93zM689.95-920.6h-1.02v-2h1.02z" fill="#5e5e5e"
            stroke="#5e5e5e" stroke-width=".05" />
        <path d="M634.1-964.12v-181.37" fill="none" stroke="#5e5e5e" stroke-width="2" />
        <path d="M635.1-963.12h-2v-1.03h2z" fill="#5e5e5e" stroke="#5e5e5e" stroke-width=".05" />
        <path d="M634.1-1160.76l4.63 14.27h-9.27z" fill="#5e5e5e" stroke="#5e5e5e"
            stroke-width="2" />
        <path
            d="M508.92-1219.5c0-3.3 2.68-6 6-6h228c3.3 0 6 2.7 6 6v48c0 3.32-2.7 6-6 6h-228c-3.32 0-6-2.68-6-6z"
            fill="#ffeca9" stroke="#5e5e5e" stroke-width="3" />
        <path
            d="M503.68-1229.05c0-3.3 2.68-6 6-6h228c3.3 0 6 2.7 6 6v72.67c0 3.3-2.7 6-6 6h-228c-3.32 0-6-2.7-6-6z"
            fill="#fff" fill-opacity="0" stroke="#000" stroke-opacity="0" stroke-width="3" />
        <use
            transform="matrix(1,0,0,1,508.6781400690704,-1230.0462510437917) translate(38.25925925925928 43.638888888888886)"
            xlink:href="#l" />
        <defs>
            <path
                d="M182-130c37 4 62 22 62 59C244 23 116-4 24 0v-248c84 5 203-23 205 63 0 31-19 50-47 55zM76-148c40-3 101 13 101-30 0-44-60-28-101-31v61zm0 110c48-3 116 14 116-37 0-48-69-32-116-35v72"
                fill="#333" id="m" />
            <path d="M24 0v-248h52v208h133V0H24" fill="#333" id="n" />
            <path
                d="M110-194c64 0 96 36 96 99 0 64-35 99-97 99-61 0-95-36-95-99 0-62 34-99 96-99zm-1 164c35 0 45-28 45-65 0-40-10-65-43-65-34 0-45 26-45 65 0 36 10 65 43 65"
                fill="#333" id="o" />
            <path
                d="M67-125c0 53 21 87 73 88 37 1 54-22 65-47l45 17C233-25 199 4 140 4 58 4 20-42 15-125 8-235 124-281 211-232c18 10 29 29 36 50l-46 12c-8-25-30-41-62-41-52 0-71 34-72 86"
                fill="#333" id="p" />
            <path
                d="M169-182c-1-43-94-46-97-3 18 66 151 10 154 114 3 95-165 93-204 36-6-8-10-19-12-30l50-8c3 46 112 56 116 5-17-69-150-10-154-114-4-87 153-88 188-35 5 8 8 18 10 28"
                fill="#333" id="q" />
            <path
                d="M115-3C79 11 28 4 28-45v-112H4v-33h27l15-45h31v45h36v33H77v99c-1 23 16 31 38 25v30"
                fill="#333" id="r" />
            <path
                d="M133-34C117-15 103 5 69 4 32 3 11-16 11-54c-1-60 55-63 116-61 1-26-3-47-28-47-18 1-26 9-28 27l-52-2c7-38 36-58 82-57s74 22 75 68l1 82c-1 14 12 18 25 15v27c-30 8-71 5-69-32zm-48 3c29 0 43-24 42-57-32 0-66-3-65 30 0 17 8 27 23 27"
                fill="#333" id="s" />
            <path
                d="M185-48c-13 30-37 53-82 52C43 2 14-33 14-96s30-98 90-98c62 0 83 45 84 108H66c0 31 8 55 39 56 18 0 30-7 34-22zm-45-69c5-46-57-63-70-21-2 6-4 13-4 21h74"
                fill="#333" id="t" />
            <g id="a">
                <use transform="matrix(0.08641975308641973,0,0,0.08641975308641973,0,0)"
                    xlink:href="#m" />
                <use
                    transform="matrix(0.08641975308641973,0,0,0.08641975308641973,22.38271604938271,0)"
                    xlink:href="#n" />
                <use
                    transform="matrix(0.08641975308641973,0,0,0.08641975308641973,41.30864197530863,0)"
                    xlink:href="#o" />
                <use
                    transform="matrix(0.08641975308641973,0,0,0.08641975308641973,60.234567901234556,0)"
                    xlink:href="#p" />
                <use
                    transform="matrix(0.08641975308641973,0,0,0.08641975308641973,82.61728395061726,0)"
                    xlink:href="#q" />
                <use
                    transform="matrix(0.08641975308641973,0,0,0.08641975308641973,103.358024691358,0)"
                    xlink:href="#r" />
                <use
                    transform="matrix(0.08641975308641973,0,0,0.08641975308641973,113.64197530864195,0)"
                    xlink:href="#s" />
                <use
                    transform="matrix(0.08641975308641973,0,0,0.08641975308641973,130.9259259259259,0)"
                    xlink:href="#r" />
                <use
                    transform="matrix(0.08641975308641973,0,0,0.08641975308641973,141.20987654320984,0)"
                    xlink:href="#t" />
            </g>
            <path d="M147 0H94L2-248h55l64 206c17-72 42-137 63-206h54" fill="#333" id="u" />
            <path d="M25-224v-37h50v37H25zM25 0v-190h50V0H25" fill="#333" id="v" />
            <path
                d="M231 0h-52l-39-155L100 0H48L-1-190h46L77-45c9-52 24-97 36-145h53l37 145 32-145h46"
                fill="#333" id="w" />
            <g id="b">
                <use transform="matrix(0.08641975308641973,0,0,0.08641975308641973,0,0)"
                    xlink:href="#u" />
                <use
                    transform="matrix(0.08641975308641973,0,0,0.08641975308641973,20.1358024691358,0)"
                    xlink:href="#v" />
                <use
                    transform="matrix(0.08641975308641973,0,0,0.08641975308641973,28.77777777777777,0)"
                    xlink:href="#t" />
                <use
                    transform="matrix(0.08641975308641973,0,0,0.08641975308641973,46.06172839506172,0)"
                    xlink:href="#w" />
            </g>
            <g id="c">
                <use transform="matrix(0.08641975308641973,0,0,0.08641975308641973,0,0)"
                    xlink:href="#m" />
                <use
                    transform="matrix(0.08641975308641973,0,0,0.08641975308641973,22.38271604938271,0)"
                    xlink:href="#n" />
                <use
                    transform="matrix(0.08641975308641973,0,0,0.08641975308641973,41.30864197530863,0)"
                    xlink:href="#o" />
                <use
                    transform="matrix(0.08641975308641973,0,0,0.08641975308641973,60.234567901234556,0)"
                    xlink:href="#p" />
            </g>
            <path
                d="M135-194c87-1 58 113 63 194h-50c-7-57 23-157-34-157-59 0-34 97-39 157H25l-1-190h47c2 12-1 28 3 38 12-26 28-41 61-42"
                fill="#333" id="x" />
            <path d="M135-150c-39-12-60 13-60 57V0H25l-1-190h47c2 13-1 29 3 40 6-28 27-53 61-41v41"
                fill="#333" id="y" />
            <path
                d="M190-63c-7 42-38 67-86 67-59 0-84-38-90-98-12-110 154-137 174-36l-49 2c-2-19-15-32-35-32-30 0-35 28-38 64-6 74 65 87 74 30"
                fill="#333" id="z" />
            <path
                d="M137-138c1-29-70-34-71-4 15 46 118 7 119 86 1 83-164 76-172 9l43-7c4 19 20 25 44 25 33 8 57-30 24-41C81-84 22-81 20-136c-2-80 154-74 161-7"
                fill="#333" id="A" />
            <g id="d">
                <use transform="matrix(0.06172839506172839,0,0,0.06172839506172839,0,0)"
                    xlink:href="#v" />
                <use
                    transform="matrix(0.06172839506172839,0,0,0.06172839506172839,6.172839506172839,0)"
                    xlink:href="#x" />
                <use
                    transform="matrix(0.06172839506172839,0,0,0.06172839506172839,19.691358024691358,0)"
                    xlink:href="#r" />
                <use
                    transform="matrix(0.06172839506172839,0,0,0.06172839506172839,27.037037037037038,0)"
                    xlink:href="#t" />
                <use
                    transform="matrix(0.06172839506172839,0,0,0.06172839506172839,39.382716049382715,0)"
                    xlink:href="#y" />
                <use
                    transform="matrix(0.06172839506172839,0,0,0.06172839506172839,48.02469135802469,0)"
                    xlink:href="#s" />
                <use
                    transform="matrix(0.06172839506172839,0,0,0.06172839506172839,60.37037037037037,0)"
                    xlink:href="#z" />
                <use
                    transform="matrix(0.06172839506172839,0,0,0.06172839506172839,72.71604938271605,0)"
                    xlink:href="#r" />
                <use
                    transform="matrix(0.06172839506172839,0,0,0.06172839506172839,80.06172839506173,0)"
                    xlink:href="#A" />
            </g>
            <path
                d="M199 0l-22-63H83L61 0H9l90-248h61L250 0h-51zm-33-102l-36-108c-10 38-24 72-36 108h72"
                fill="#333" id="B" />
            <g id="e">
                <use transform="matrix(0.06172839506172839,0,0,0.06172839506172839,0,0)"
                    xlink:href="#B" />
                <use
                    transform="matrix(0.06172839506172839,0,0,0.06172839506172839,15.987654320987653,0)"
                    xlink:href="#z" />
                <use
                    transform="matrix(0.06172839506172839,0,0,0.06172839506172839,28.333333333333332,0)"
                    xlink:href="#r" />
                <use
                    transform="matrix(0.06172839506172839,0,0,0.06172839506172839,35.67901234567901,0)"
                    xlink:href="#v" />
                <use
                    transform="matrix(0.06172839506172839,0,0,0.06172839506172839,41.851851851851855,0)"
                    xlink:href="#o" />
                <use
                    transform="matrix(0.06172839506172839,0,0,0.06172839506172839,55.370370370370374,0)"
                    xlink:href="#x" />
            </g>
            <path
                d="M220-157c-53 9-28 100-34 157h-49v-107c1-27-5-49-29-50C55-147 81-57 75 0H25l-1-190h47c2 12-1 28 3 38 10-53 101-56 108 0 13-22 24-43 59-42 82 1 51 116 57 194h-49v-107c-1-25-5-48-29-50"
                fill="#333" id="C" />
            <g id="f">
                <use transform="matrix(0.06172839506172839,0,0,0.06172839506172839,0,0)"
                    xlink:href="#q" />
                <use
                    transform="matrix(0.06172839506172839,0,0,0.06172839506172839,14.814814814814813,0)"
                    xlink:href="#r" />
                <use
                    transform="matrix(0.06172839506172839,0,0,0.06172839506172839,22.160493827160494,0)"
                    xlink:href="#y" />
                <use
                    transform="matrix(0.06172839506172839,0,0,0.06172839506172839,30.80246913580247,0)"
                    xlink:href="#t" />
                <use
                    transform="matrix(0.06172839506172839,0,0,0.06172839506172839,43.148148148148145,0)"
                    xlink:href="#s" />
                <use
                    transform="matrix(0.06172839506172839,0,0,0.06172839506172839,55.49382716049382,0)"
                    xlink:href="#C" />
            </g>
            <path d="M147 0L96-86 75-71V0H25v-261h50v150l67-79h53l-66 74L201 0h-54" fill="#333"
                id="D" />
            <g id="g">
                <use transform="matrix(0.06172839506172839,0,0,0.06172839506172839,0,0)"
                    xlink:href="#q" />
                <use
                    transform="matrix(0.06172839506172839,0,0,0.06172839506172839,14.814814814814813,0)"
                    xlink:href="#v" />
                <use
                    transform="matrix(0.06172839506172839,0,0,0.06172839506172839,20.98765432098765,0)"
                    xlink:href="#x" />
                <use
                    transform="matrix(0.06172839506172839,0,0,0.06172839506172839,34.50617283950617,0)"
                    xlink:href="#D" />
            </g>
            <g id="h">
                <use transform="matrix(0.06172839506172839,0,0,0.06172839506172839,0,0)"
                    xlink:href="#q" />
                <use
                    transform="matrix(0.06172839506172839,0,0,0.06172839506172839,14.814814814814813,0)"
                    xlink:href="#r" />
                <use
                    transform="matrix(0.06172839506172839,0,0,0.06172839506172839,22.160493827160494,0)"
                    xlink:href="#s" />
                <use
                    transform="matrix(0.06172839506172839,0,0,0.06172839506172839,34.50617283950617,0)"
                    xlink:href="#r" />
                <use
                    transform="matrix(0.06172839506172839,0,0,0.06172839506172839,41.85185185185185,0)"
                    xlink:href="#t" />
            </g>
            <path
                d="M24-248c93 1 206-16 204 79-1 75-69 88-152 82V0H24v-248zm52 121c47 0 100 7 100-41 0-47-54-39-100-39v80"
                fill="#333" id="E" />
            <path
                d="M135-194c53 0 70 44 70 98 0 56-19 98-73 100-31 1-45-17-59-34 3 33 2 69 2 105H25l-1-265h48c2 10 0 23 3 31 11-24 29-35 60-35zM114-30c33 0 39-31 40-66 0-38-9-64-40-64-56 0-55 130 0 130"
                fill="#333" id="F" />
            <path d="M25 0v-261h50V0H25" fill="#333" id="G" />
            <g id="i">
                <use transform="matrix(0.06172839506172839,0,0,0.06172839506172839,0,0)"
                    xlink:href="#E" />
                <use
                    transform="matrix(0.06172839506172839,0,0,0.06172839506172839,14.814814814814813,0)"
                    xlink:href="#y" />
                <use
                    transform="matrix(0.06172839506172839,0,0,0.06172839506172839,23.456790123456788,0)"
                    xlink:href="#o" />
                <use
                    transform="matrix(0.06172839506172839,0,0,0.06172839506172839,36.9753086419753,0)"
                    xlink:href="#F" />
                <use
                    transform="matrix(0.06172839506172839,0,0,0.06172839506172839,50.49382716049382,0)"
                    xlink:href="#o" />
                <use
                    transform="matrix(0.06172839506172839,0,0,0.06172839506172839,64.01234567901234,0)"
                    xlink:href="#A" />
                <use
                    transform="matrix(0.06172839506172839,0,0,0.06172839506172839,76.35802469135803,0)"
                    xlink:href="#s" />
                <use
                    transform="matrix(0.06172839506172839,0,0,0.06172839506172839,88.70370370370371,0)"
                    xlink:href="#G" />
            </g>
            <path
                d="M88-194c31-1 46 15 58 34l-1-101h50l1 261h-48c-2-10 0-23-3-31C134-8 116 4 84 4 32 4 16-41 15-95c0-56 19-97 73-99zm17 164c33 0 40-30 41-66 1-37-9-64-41-64s-38 30-39 65c0 43 13 65 39 65"
                fill="#333" id="H" />
            <g id="j">
                <use transform="matrix(0.06172839506172839,0,0,0.06172839506172839,0,0)"
                    xlink:href="#q" />
                <use
                    transform="matrix(0.06172839506172839,0,0,0.06172839506172839,14.814814814814813,0)"
                    xlink:href="#v" />
                <use
                    transform="matrix(0.06172839506172839,0,0,0.06172839506172839,20.98765432098765,0)"
                    xlink:href="#H" />
                <use
                    transform="matrix(0.06172839506172839,0,0,0.06172839506172839,34.50617283950617,0)"
                    xlink:href="#t" />
            </g>
            <path d="M24 0v-248h195v40H76v63h132v40H76v65h150V0H24" fill="#333" id="I" />
            <path d="M121-226c-27-7-43 5-38 36h38v33H83V0H34v-157H6v-33h28c-9-59 32-81 87-68v32"
                fill="#333" id="J" />
            <g id="k">
                <use transform="matrix(0.06172839506172839,0,0,0.06172839506172839,0,0)"
                    xlink:href="#I" />
                <use
                    transform="matrix(0.06172839506172839,0,0,0.06172839506172839,14.814814814814813,0)"
                    xlink:href="#J" />
                <use
                    transform="matrix(0.06172839506172839,0,0,0.06172839506172839,22.160493827160494,0)"
                    xlink:href="#J" />
                <use
                    transform="matrix(0.06172839506172839,0,0,0.06172839506172839,29.50617283950617,0)"
                    xlink:href="#t" />
                <use
                    transform="matrix(0.06172839506172839,0,0,0.06172839506172839,41.85185185185185,0)"
                    xlink:href="#z" />
                <use
                    transform="matrix(0.06172839506172839,0,0,0.06172839506172839,54.197530864197525,0)"
                    xlink:href="#r" />
            </g>
            <path
                d="M85 4C-2 5 27-109 22-190h50c7 57-23 150 33 157 60-5 35-97 40-157h50l1 190h-47c-2-12 1-28-3-38-12 25-28 42-61 42"
                fill="#333" id="K" />
            <g id="l">
                <use transform="matrix(0.08641975308641973,0,0,0.08641975308641973,0,0)"
                    xlink:href="#p" />
                <use
                    transform="matrix(0.08641975308641973,0,0,0.08641975308641973,22.38271604938271,0)"
                    xlink:href="#o" />
                <use
                    transform="matrix(0.08641975308641973,0,0,0.08641975308641973,41.30864197530863,0)"
                    xlink:href="#x" />
                <use
                    transform="matrix(0.08641975308641973,0,0,0.08641975308641973,60.234567901234556,0)"
                    xlink:href="#A" />
                <use
                    transform="matrix(0.08641975308641973,0,0,0.08641975308641973,77.5185185185185,0)"
                    xlink:href="#K" />
                <use
                    transform="matrix(0.08641975308641973,0,0,0.08641975308641973,96.44444444444443,0)"
                    xlink:href="#C" />
                <use
                    transform="matrix(0.08641975308641973,0,0,0.08641975308641973,124.09876543209874,0)"
                    xlink:href="#t" />
                <use
                    transform="matrix(0.08641975308641973,0,0,0.08641975308641973,141.38271604938268,0)"
                    xlink:href="#y" />
            </g>
        </defs>
    </g>
</svg>